<svg width="17" height="17" viewBox="0 0 17 17" fill="none" xmlns="http://www.w3.org/2000/svg">
<path fill-rule="evenodd" clip-rule="evenodd" d="M10.1783 1.93774C11.3973 0.718671 13.3738 0.718671 14.5929 1.93774C15.8119 3.1568 15.8119 5.1333 14.5929 6.35236L8.26934 12.6759C7.90806 13.0372 7.69539 13.2499 7.45879 13.4344C7.17993 13.6519 6.8782 13.8384 6.55894 13.9906C6.28807 14.1197 6.00272 14.2148 5.51798 14.3763L3.29724 15.1166L2.76252 15.2948C2.32881 15.4394 1.85064 15.3265 1.52738 15.0032C1.20411 14.68 1.09123 14.2018 1.2358 13.7681L2.15428 11.0126C2.31585 10.5279 2.41095 10.2425 2.54004 9.97168C2.69219 9.65242 2.87867 9.35068 3.09618 9.07182C3.28073 8.83522 3.49342 8.62254 3.85474 8.26125L10.1783 1.93774ZM3.27417 14.0702L5.16851 13.4387C5.69592 13.2629 5.92001 13.1873 6.12872 13.0878C6.38241 12.9669 6.62218 12.8188 6.84377 12.6459C7.02608 12.5037 7.19391 12.3371 7.58702 11.944L12.6333 6.89768C12.1076 6.71225 11.4303 6.36852 10.7962 5.73444C10.1621 5.10036 9.81837 4.42303 9.63293 3.89727L4.58661 8.94359C4.1935 9.3367 4.02689 9.50454 3.8847 9.68684C3.71185 9.90843 3.56367 10.1482 3.44276 10.4019C3.3433 10.6106 3.26769 10.8347 3.09189 11.3621L2.46044 13.2564L3.27417 14.0702ZM10.4441 3.08613C10.4669 3.20277 10.5054 3.36133 10.5697 3.54669C10.7145 3.96399 10.988 4.51203 11.5033 5.02733C12.0186 5.54264 12.5666 5.81613 12.9839 5.9609C13.1693 6.02521 13.3278 6.06375 13.4445 6.08654L13.8858 5.64525C14.7143 4.81671 14.7143 3.47338 13.8858 2.64484C13.0572 1.8163 11.7139 1.8163 10.8854 2.64484L10.4441 3.08613Z" fill="#C4C4C4"/>
</svg>
