<svg width="17" height="17" viewBox="0 0 17 17" fill="none" xmlns="http://www.w3.org/2000/svg">
<path d="M14.0072 4.19043H2.67383" stroke="#C4C4C4" stroke-width="1.332" stroke-linecap="round"/>
<path d="M12.8963 5.85742L12.5896 10.4568C12.4716 12.2268 12.4126 13.1117 11.836 13.6512C11.2593 14.1908 10.3724 14.1908 8.5985 14.1908H8.08292C6.30906 14.1908 5.42212 14.1908 4.84545 13.6512C4.26878 13.1117 4.20978 12.2268 4.09178 10.4568L3.78516 5.85742" stroke="#C4C4C4" stroke-width="1.332" stroke-linecap="round"/>
<path d="M4.67383 4.19043C4.71108 4.19043 4.72971 4.19043 4.74659 4.19C5.29556 4.17609 5.77984 3.82704 5.96664 3.31064C5.97239 3.29476 5.97828 3.27709 5.99006 3.24175L6.05478 3.04757C6.11003 2.88182 6.13766 2.79893 6.1743 2.72856C6.3205 2.44781 6.59099 2.25285 6.90357 2.20294C6.98191 2.19043 7.06928 2.19043 7.244 2.19043H9.43699C9.61171 2.19043 9.69908 2.19043 9.77742 2.20294C10.09 2.25285 10.3605 2.44781 10.5067 2.72856C10.5433 2.79893 10.571 2.88181 10.6262 3.04757L10.6909 3.24175C10.7027 3.27704 10.7086 3.29477 10.7144 3.31064C10.9011 3.82704 11.3854 4.17609 11.9344 4.19C11.9513 4.19043 11.9699 4.19043 12.0072 4.19043" stroke="#C4C4C4" stroke-width="1.332"/>
</svg>
