<svg width="18" height="18" viewBox="0 0 18 18" fill="none" xmlns="http://www.w3.org/2000/svg">
<path d="M7.40047 16.2804C10.67 16.2804 13.3205 13.63 13.3205 10.3604C13.3205 7.0909 10.67 4.44043 7.40047 4.44043C4.13094 4.44043 1.48047 7.0909 1.48047 10.3604C1.48047 11.2747 1.68772 12.1406 2.05782 12.9136C2.18502 13.1793 2.22968 13.4803 2.15354 13.7649L1.91079 14.6722C1.71946 15.3872 2.37366 16.0414 3.08875 15.8501L3.99601 15.6074C4.28058 15.5312 4.58159 15.5759 4.84729 15.7031C5.62033 16.0732 6.4862 16.2804 7.40047 16.2804Z" stroke="#C4C4C4" stroke-width="1.332"/>
<path d="M13.3213 10.7318C13.3704 10.7113 13.4192 10.69 13.4676 10.6679C13.7355 10.5455 14.0361 10.4998 14.3207 10.5759L14.673 10.6702C15.3881 10.8615 16.0423 10.2073 15.8509 9.49219L15.7567 9.13992C15.6805 8.85536 15.7263 8.55473 15.8487 8.28678C16.1265 7.6787 16.2813 7.00266 16.2813 6.29047C16.2813 3.63398 14.1277 1.48047 11.4713 1.48047C9.47158 1.48047 7.75691 2.70072 7.03125 4.43721" stroke="#C4C4C4" stroke-width="1.332"/>
<path d="M4.82437 10.3604H4.83103M7.40751 10.3604H7.41417M9.99085 10.3604H9.99751" stroke="#C4C4C4" stroke-width="1.776" stroke-linecap="round" stroke-linejoin="round"/>
</svg>
