<svg width="18" height="17" viewBox="0 0 18 17" fill="none" xmlns="http://www.w3.org/2000/svg">
<path d="M6.81988 13.2936L7.19292 12.8204L6.81988 13.2936ZM8.95578 3.86625L8.52164 4.28411C8.63523 4.40213 8.79198 4.46882 8.95578 4.46882C9.11959 4.46882 9.27633 4.40213 9.38993 4.28411L8.95578 3.86625ZM11.0917 13.2936L11.4647 13.7669L11.0917 13.2936ZM7.19292 12.8204C6.12295 11.977 4.9662 11.1628 4.04771 10.1286C3.14989 9.11759 2.52835 7.94395 2.52835 6.42268H1.32321C1.32321 8.32006 2.1145 9.76661 3.14661 10.9288C4.15807 12.0677 5.44837 12.9798 6.44684 13.7669L7.19292 12.8204ZM2.52835 6.42268C2.52835 4.9388 3.36672 3.69833 4.50502 3.17801C5.60533 2.67506 7.09416 2.80101 8.52164 4.28411L9.38993 3.44838C7.65402 1.64483 5.62785 1.33969 4.004 2.08195C2.41815 2.80685 1.32321 4.48792 1.32321 6.42268H2.52835ZM6.44684 13.7669C6.80625 14.0502 7.19687 14.3562 7.59391 14.5883C7.99075 14.8202 8.45131 15.0134 8.95578 15.0134V13.8082C8.75725 13.8082 8.51481 13.7306 8.20193 13.5477C7.88924 13.365 7.56341 13.1125 7.19292 12.8204L6.44684 13.7669ZM11.4647 13.7669C12.4632 12.9798 13.7535 12.0677 14.7649 10.9288C15.7971 9.76661 16.5884 8.32006 16.5884 6.42268H15.3832C15.3832 7.94395 14.7617 9.11759 13.8638 10.1286C12.9454 11.1628 11.7886 11.977 10.7186 12.8204L11.4647 13.7669ZM16.5884 6.42268C16.5884 4.48792 15.4934 2.80685 13.9076 2.08195C12.2837 1.33969 10.2575 1.64483 8.52164 3.44838L9.38993 4.28411C10.8174 2.80101 12.3062 2.67506 13.4065 3.17801C14.5448 3.69833 15.3832 4.9388 15.3832 6.42268H16.5884ZM10.7186 12.8204C10.3481 13.1125 10.0223 13.365 9.70963 13.5477C9.39675 13.7306 9.15431 13.8082 8.95578 13.8082V15.0134C9.46025 15.0134 9.92081 14.8202 10.3177 14.5883C10.7147 14.3562 11.1053 14.0502 11.4647 13.7669L10.7186 12.8204Z" fill="#C4C4C4"/>
</svg>
