<svg width="19" height="18" viewBox="0 0 19 18" fill="none" xmlns="http://www.w3.org/2000/svg">
<path d="M15.9316 4.44043H3.35156" stroke="#C4C4C4" stroke-width="1.332" stroke-linecap="round"/>
<path d="M14.6993 6.29004L14.3589 11.3954C14.2279 13.36 14.1625 14.3423 13.5223 14.9412C12.8822 15.54 11.8977 15.54 9.92875 15.54H9.35646C7.38747 15.54 6.40297 15.54 5.76286 14.9412C5.12276 14.3423 5.05727 13.36 4.92629 11.3954L4.58594 6.29004" stroke="#C4C4C4" stroke-width="1.332" stroke-linecap="round"/>
<path d="M5.57031 4.43973C5.61166 4.43973 5.63234 4.43973 5.65108 4.43925C6.26043 4.42381 6.79799 4.03636 7.00533 3.46316C7.01171 3.44553 7.01825 3.42592 7.03133 3.38669L7.10317 3.17116C7.1645 2.98717 7.19517 2.89517 7.23584 2.81705C7.39812 2.50542 7.69836 2.28902 8.04532 2.23361C8.13229 2.21973 8.22926 2.21973 8.42321 2.21973H10.8574C11.0514 2.21973 11.1483 2.21973 11.2353 2.23361C11.5823 2.28902 11.8825 2.50542 12.0448 2.81705C12.0855 2.89517 12.1161 2.98716 12.1775 3.17116L12.2493 3.38669C12.2624 3.42586 12.2689 3.44554 12.2753 3.46316C12.4826 4.03636 13.0202 4.42381 13.6295 4.43925C13.6483 4.43973 13.669 4.43973 13.7103 4.43973" stroke="#C4C4C4" stroke-width="1.332"/>
</svg>
