<svg width="17" height="16" viewBox="0 0 17 16" fill="none" xmlns="http://www.w3.org/2000/svg">
<g clip-path="url(#clip0_1560_7353)">
<circle cx="8.51166" cy="3.99603" r="2.664" stroke="#C4C4C4" stroke-width="1.14171"/>
<path d="M10.5096 8.87605C9.89259 8.73557 9.21815 8.6582 8.51159 8.6582C5.56902 8.6582 3.18359 10 3.18359 11.6552C3.18359 13.3104 3.18359 14.6522 8.51159 14.6522C12.2994 14.6522 13.3944 13.974 13.7109 12.9872" stroke="#C4C4C4" stroke-width="1.14171"/>
<path d="M10.624 12.5399C11.1061 13.022 11.7721 13.3202 12.5078 13.3202C13.979 13.3202 15.1718 12.1275 15.1718 10.6562C15.1718 9.92053 14.8736 9.25452 14.3915 8.77243M10.624 12.5399C10.1419 12.0578 9.84375 11.3918 9.84375 10.6562C9.84375 9.1849 11.0365 7.99219 12.5078 7.99219C13.2434 7.99219 13.9094 8.29036 14.3915 8.77243M10.624 12.5399L14.3915 8.77243" stroke="#C4C4C4" stroke-width="1.14171" stroke-linejoin="round"/>
</g>
<defs>
<clipPath id="clip0_1560_7353">
<rect width="15.984" height="15.984" fill="white" transform="translate(0.519531)"/>
</clipPath>
</defs>
</svg>
