<svg width="26" height="26" viewBox="0 0 26 26" fill="none" xmlns="http://www.w3.org/2000/svg">
<path d="M10.4846 12.9049C10.4846 11.5685 11.5679 10.4852 12.9043 10.4852C14.2406 10.4852 15.3239 11.5685 15.3239 12.9049C15.3239 14.2412 14.2406 15.3245 12.9043 15.3245C11.5679 15.3245 10.4846 14.2412 10.4846 12.9049Z" fill="#C4C4C4"/>
<path fill-rule="evenodd" clip-rule="evenodd" d="M2.15039 12.9049C2.15039 14.6678 2.60739 15.2615 3.52139 16.449C5.3464 18.82 8.40711 21.5079 12.9043 21.5079C17.4014 21.5079 20.4621 18.82 22.2871 16.449C23.2011 15.2615 23.6581 14.6678 23.6581 12.9049C23.6581 11.1419 23.2011 10.5482 22.2871 9.36073C20.4621 6.98975 17.4014 4.30176 12.9043 4.30176C8.40711 4.30176 5.3464 6.98975 3.52139 9.36073C2.60739 10.5482 2.15039 11.1419 2.15039 12.9049ZM12.9043 8.87215C10.6771 8.87215 8.87156 10.6777 8.87156 12.9049C8.87156 15.132 10.6771 16.9375 12.9043 16.9375C15.1315 16.9375 16.937 15.132 16.937 12.9049C16.937 10.6777 15.1315 8.87215 12.9043 8.87215Z" fill="#C4C4C4"/>
</svg>
