<svg width="33" height="35" viewBox="0 0 33 35" fill="none" xmlns="http://www.w3.org/2000/svg">
<path d="M12.5207 17.2847C12.5207 19.2164 11.0107 20.7823 9.14803 20.7823C7.28537 20.7823 5.77539 19.2164 5.77539 17.2847C5.77539 15.353 7.28537 13.7871 9.14803 13.7871C11.0107 13.7871 12.5207 15.353 12.5207 17.2847Z" stroke="white" stroke-width="2.2551"/>
<path d="M19.2658 9.58984L12.5205 14.4865" stroke="white" stroke-width="2.2551" stroke-linecap="round"/>
<path d="M19.2658 24.9795L12.5205 20.0829" stroke="white" stroke-width="2.2551" stroke-linecap="round"/>
<path d="M26.0109 26.3785C26.0109 28.3101 24.5009 29.876 22.6383 29.876C20.7756 29.876 19.2656 28.3101 19.2656 26.3785C19.2656 24.4468 20.7756 22.8809 22.6383 22.8809C24.5009 22.8809 26.0109 24.4468 26.0109 26.3785Z" stroke="white" stroke-width="2.2551"/>
<path d="M26.0109 8.19095C26.0109 10.1226 24.5009 11.6885 22.6383 11.6885C20.7756 11.6885 19.2656 10.1226 19.2656 8.19095C19.2656 6.25928 20.7756 4.69336 22.6383 4.69336C24.5009 4.69336 26.0109 6.25928 26.0109 8.19095Z" stroke="white" stroke-width="2.2551"/>
</svg>
