<svg width="16" height="16" viewBox="0 0 16 16" fill="none" xmlns="http://www.w3.org/2000/svg">
<path fill-rule="evenodd" clip-rule="evenodd" d="M0.832031 14.666C0.832031 14.3899 1.05589 14.166 1.33203 14.166H14.6654C14.9415 14.166 15.1654 14.3899 15.1654 14.666C15.1654 14.9422 14.9415 15.166 14.6654 15.166H1.33203C1.05589 15.166 0.832031 14.9422 0.832031 14.666Z" fill="white"/>
<path d="M6.5 2.66634V14.6663H9.5V2.66634C9.5 1.93301 9.2 1.33301 8.3 1.33301H7.7C6.8 1.33301 6.5 1.93301 6.5 2.66634Z" fill="white"/>
<path d="M2 6.66634V14.6663H4.66667V6.66634C4.66667 5.93301 4.4 5.33301 3.6 5.33301H3.06667C2.26667 5.33301 2 5.93301 2 6.66634Z" fill="white"/>
<path d="M11.332 9.99935V14.666H13.9987V9.99935C13.9987 9.26602 13.732 8.66602 12.932 8.66602H12.3987C11.5987 8.66602 11.332 9.26602 11.332 9.99935Z" fill="white"/>
</svg>
