<svg width="16" height="16" viewBox="0 0 16 16" fill="none" xmlns="http://www.w3.org/2000/svg">
<g clip-path="url(#clip0_1891_3271)">
<circle cx="12.5221" cy="10.6667" r="0.666667" stroke="#C4C4C4" stroke-width="0.666667"/>
<path d="M12.9132 8.47817C12.8316 8.44434 12.728 8.44434 12.5209 8.44434C12.3139 8.44434 12.2103 8.44434 12.1286 8.47817C12.0197 8.52328 11.9332 8.6098 11.8881 8.7187C11.8675 8.76841 11.8595 8.82623 11.8563 8.91056C11.8517 9.03449 11.7881 9.1492 11.6807 9.21121C11.5733 9.27322 11.4422 9.2709 11.3325 9.21295C11.2579 9.17351 11.2038 9.15159 11.1505 9.14456C11.0336 9.12918 10.9154 9.16085 10.8219 9.2326C10.7518 9.28642 10.7 9.37609 10.5965 9.55543C10.4929 9.73477 10.4411 9.82444 10.4296 9.91209C10.4142 10.029 10.4459 10.1471 10.5176 10.2407C10.5504 10.2833 10.5964 10.3192 10.6679 10.3641C10.7729 10.4301 10.8405 10.5425 10.8405 10.6666C10.8405 10.7906 10.7729 10.903 10.6679 10.969C10.5964 11.0139 10.5504 11.0497 10.5176 11.0924C10.4459 11.186 10.4142 11.3041 10.4296 11.421C10.4411 11.5087 10.4929 11.5983 10.5964 11.7777C10.7 11.957 10.7518 12.0467 10.8219 12.1005C10.9154 12.1723 11.0336 12.2039 11.1505 12.1885C11.2038 12.1815 11.2579 12.1596 11.3325 12.1202C11.4422 12.0622 11.5733 12.0599 11.6807 12.1219C11.7881 12.1839 11.8517 12.2986 11.8563 12.4226C11.8595 12.5069 11.8675 12.5647 11.8881 12.6144C11.9332 12.7233 12.0197 12.8098 12.1286 12.8549C12.2103 12.8888 12.3139 12.8888 12.5209 12.8888C12.728 12.8888 12.8316 12.8888 12.9132 12.8549C13.0221 12.8098 13.1087 12.7233 13.1538 12.6144C13.1744 12.5647 13.1824 12.5069 13.1856 12.4226C13.1902 12.2986 13.2538 12.1839 13.3612 12.1219C13.4686 12.0599 13.5997 12.0622 13.7094 12.1201C13.784 12.1596 13.8381 12.1815 13.8914 12.1885C14.0083 12.2039 14.1265 12.1722 14.22 12.1005C14.2901 12.0467 14.3419 11.957 14.4454 11.7777C14.549 11.5983 14.6007 11.5086 14.6123 11.421C14.6277 11.3041 14.596 11.1859 14.5242 11.0924C14.4915 11.0497 14.4454 11.0139 14.374 10.969C14.269 10.903 14.2014 10.7906 14.2014 10.6665C14.2014 10.5425 14.269 10.4301 14.374 10.3642C14.4455 10.3193 14.4915 10.2834 14.5243 10.2407C14.596 10.1472 14.6277 10.029 14.6123 9.91211C14.6008 9.82446 14.549 9.73479 14.4454 9.55545C14.3419 9.37611 14.2901 9.28644 14.22 9.23262C14.1265 9.16086 14.0083 9.12919 13.8914 9.14458C13.8381 9.1516 13.784 9.17353 13.7094 9.21296C13.5997 9.27091 13.4686 9.27323 13.3612 9.21122C13.2538 9.1492 13.1902 9.03448 13.1856 8.91054C13.1824 8.82622 13.1744 8.76841 13.1538 8.7187C13.1087 8.6098 13.0221 8.52328 12.9132 8.47817Z" stroke="#C4C4C4" stroke-width="0.666667"/>
</g>
<circle cx="7.9987" cy="4.00016" r="2.66667" stroke="#C4C4C4"/>
<path d="M10.0013 8.88457C9.38368 8.74394 8.70857 8.6665 8.0013 8.6665C5.05578 8.6665 2.66797 10.0096 2.66797 11.6665C2.66797 13.3234 2.66797 14.6665 8.0013 14.6665C11.7929 14.6665 12.889 13.9876 13.2058 12.9998" stroke="#C4C4C4"/>
<defs>
<clipPath id="clip0_1891_3271">
<rect x="9.85547" y="8" width="5.33333" height="5.33333" rx="1.11111" fill="white"/>
</clipPath>
</defs>
</svg>
