<svg width="24" height="25" viewBox="0 0 24 25" fill="none" xmlns="http://www.w3.org/2000/svg">
<path d="M22.5005 13.1086C22.5005 12.2452 22.4291 11.6152 22.2744 10.9619H12.2148V14.8585H18.1196C18.0006 15.8269 17.3577 17.2852 15.9291 18.2652L15.9091 18.3956L19.0897 20.8104L19.3101 20.8319C21.3338 19.0002 22.5005 16.3052 22.5005 13.1086Z" fill="#4285F4"/>
<path d="M12.214 23.3746C15.1068 23.3746 17.5353 22.4412 19.3092 20.8312L15.9282 18.2645C15.0235 18.8828 13.8092 19.3145 12.214 19.3145C9.38069 19.3145 6.97596 17.4829 6.11874 14.9512L5.99309 14.9616L2.68583 17.47L2.64258 17.5878C4.40446 21.0178 8.0235 23.3746 12.214 23.3746Z" fill="#34A853"/>
<path d="M6.12095 14.9515C5.89476 14.2982 5.76386 13.5981 5.76386 12.8748C5.76386 12.1514 5.89476 11.4515 6.10905 10.7981L6.10306 10.659L2.75435 8.11035L2.64478 8.16142C1.91862 9.58477 1.50195 11.1831 1.50195 12.8748C1.50195 14.5665 1.91862 16.1647 2.64478 17.5881L6.12095 14.9515Z" fill="#FBBC05"/>
<path d="M12.2141 6.43497C14.2259 6.43497 15.583 7.28663 16.3569 7.99835L19.3807 5.105C17.5236 3.41334 15.1069 2.375 12.2141 2.375C8.02353 2.375 4.40447 4.73165 2.64258 8.16162L6.10686 10.7983C6.97598 8.26666 9.38073 6.43497 12.2141 6.43497Z" fill="#EB4335"/>
</svg>
