<svg width="25" height="25" viewBox="0 0 25 25" fill="none" xmlns="http://www.w3.org/2000/svg">
<path d="M23.0005 13.1086C23.0005 12.2452 22.9291 11.6152 22.7744 10.9619H12.7148V14.8585H18.6196C18.5006 15.8269 17.8577 17.2852 16.4291 18.2652L16.4091 18.3956L19.5897 20.8104L19.8101 20.8319C21.8338 19.0002 23.0005 16.3052 23.0005 13.1086Z" fill="#4285F4"/>
<path d="M12.714 23.3746C15.6068 23.3746 18.0353 22.4412 19.8092 20.8312L16.4282 18.2645C15.5235 18.8828 14.3092 19.3145 12.714 19.3145C9.88069 19.3145 7.47596 17.4829 6.61874 14.9512L6.49309 14.9616L3.18583 17.47L3.14258 17.5878C4.90446 21.0178 8.5235 23.3746 12.714 23.3746Z" fill="#34A853"/>
<path d="M6.62095 14.9515C6.39476 14.2982 6.26386 13.5981 6.26386 12.8748C6.26386 12.1514 6.39476 11.4515 6.60905 10.7981L6.60306 10.659L3.25435 8.11035L3.14478 8.16142C2.41862 9.58477 2.00195 11.1831 2.00195 12.8748C2.00195 14.5665 2.41862 16.1647 3.14478 17.5881L6.62095 14.9515Z" fill="#FBBC05"/>
<path d="M12.7141 6.43497C14.7259 6.43497 16.083 7.28663 16.8569 7.99835L19.8807 5.105C18.0236 3.41334 15.6069 2.375 12.7141 2.375C8.52353 2.375 4.90447 4.73165 3.14258 8.16162L6.60686 10.7983C7.47598 8.26666 9.88073 6.43497 12.7141 6.43497Z" fill="#EB4335"/>
</svg>
