<svg width="12" height="12" viewBox="0 0 12 12" fill="none" xmlns="http://www.w3.org/2000/svg">
<g clip-path="url(#clip0_1540_9058)">
<path d="M8.14844 3.5127H10.6987V6.06291" stroke="#660BAD" stroke-width="0.729556" stroke-linecap="round" stroke-linejoin="round"/>
<path d="M1.22852 8.61115L3.99096 5.8487C4.0586 5.78105 4.1389 5.72738 4.22727 5.69077C4.31565 5.65416 4.41037 5.63531 4.50603 5.63531C4.60169 5.63531 4.69642 5.65416 4.78479 5.69077C4.87317 5.72738 4.95347 5.78105 5.0211 5.8487L6.17597 7.00357C6.24361 7.07122 6.32391 7.12488 6.41228 7.1615C6.50066 7.19811 6.59539 7.21695 6.69105 7.21695C6.78671 7.21695 6.88143 7.19811 6.96981 7.1615C7.05818 7.12488 7.13848 7.07122 7.20612 7.00357L10.3327 3.87695" stroke="#660BAD" stroke-width="0.729556" stroke-linecap="round" stroke-linejoin="round"/>
</g>
<defs>
<clipPath id="clip0_1540_9058">
<rect width="11.6534" height="11.6534" fill="white" transform="translate(0.136719 0.234375)"/>
</clipPath>
</defs>
</svg>
