<svg width="16" height="16" viewBox="0 0 16 16" fill="none" xmlns="http://www.w3.org/2000/svg">
<path fill-rule="evenodd" clip-rule="evenodd" d="M0.833984 14.667C0.833984 14.3908 1.05784 14.167 1.33398 14.167H14.6673C14.9435 14.167 15.1673 14.3908 15.1673 14.667C15.1673 14.9431 14.9435 15.167 14.6673 15.167H1.33398C1.05784 15.167 0.833984 14.9431 0.833984 14.667Z" fill="#C4C4C4"/>
<path d="M6.5 2.66634V14.6663H9.5V2.66634C9.5 1.93301 9.2 1.33301 8.3 1.33301H7.7C6.8 1.33301 6.5 1.93301 6.5 2.66634Z" fill="#C4C4C4"/>
<path d="M2 6.66634V14.6663H4.66667V6.66634C4.66667 5.93301 4.4 5.33301 3.6 5.33301H3.06667C2.26667 5.33301 2 5.93301 2 6.66634Z" fill="#C4C4C4"/>
<path d="M11.334 10.0003V14.667H14.0007V10.0003C14.0007 9.26699 13.734 8.66699 12.934 8.66699H12.4007C11.6007 8.66699 11.334 9.26699 11.334 10.0003Z" fill="#C4C4C4"/>
</svg>
