<svg width="16" height="16" viewBox="0 0 16 16" fill="none" xmlns="http://www.w3.org/2000/svg">
<g clip-path="url(#clip0_1857_6647)">
<path fill-rule="evenodd" clip-rule="evenodd" d="M6.97441 0.833008H9.02689C10.0958 0.833004 10.9338 0.833 11.6032 0.896653C12.2856 0.961533 12.8443 1.09605 13.3369 1.39789C13.8527 1.71397 14.2864 2.14763 14.6024 2.66343C14.9043 3.15598 15.0388 3.71471 15.1037 4.39708C15.1673 5.06653 15.1673 5.90451 15.1673 6.97343V7.68491C15.1673 8.44576 15.1673 9.04232 15.1344 9.52423C15.101 10.0145 15.0318 10.4226 14.8755 10.8C14.4865 11.7392 13.7402 12.4855 12.8009 12.8745C12.2643 13.0968 11.653 13.1461 10.8162 13.1606C10.5235 13.1656 10.338 13.1693 10.1967 13.185C10.0646 13.1996 10.0134 13.221 9.98348 13.2384C9.95187 13.2568 9.90881 13.2903 9.83405 13.3929C9.75315 13.5039 9.66173 13.6573 9.51676 13.9022L9.15536 14.5128C8.63965 15.3841 7.36163 15.3841 6.84591 14.5128L6.48451 13.9022C6.33955 13.6573 6.24813 13.5039 6.16722 13.3929C6.09246 13.2903 6.0494 13.2568 6.0178 13.2384C5.98784 13.221 5.93664 13.1996 5.80457 13.185C5.66323 13.1693 5.47782 13.1656 5.18509 13.1606C4.34823 13.1461 3.73701 13.0968 3.20036 12.8745C2.26109 12.4855 1.51484 11.7392 1.12578 10.8C0.96947 10.4226 0.900315 10.0145 0.866861 9.52423C0.833981 9.04232 0.833982 8.44576 0.833985 7.6849L0.833984 6.97344C0.83398 5.90451 0.833977 5.06654 0.897629 4.39708C0.962509 3.71471 1.09703 3.15598 1.39886 2.66343C1.71494 2.14763 2.14861 1.71397 2.66441 1.39789C3.15695 1.09605 3.71569 0.961533 4.39806 0.896653C5.06751 0.833 5.90549 0.833004 6.97441 0.833008ZM4.49271 1.89216C3.88354 1.95008 3.49592 2.06116 3.18691 2.25053C2.80566 2.48415 2.48513 2.80469 2.2515 3.18593C2.06214 3.49495 1.95106 3.88256 1.89314 4.49173C1.83451 5.10834 1.83398 5.89885 1.83398 6.99967V7.66634C1.83398 8.44975 1.83426 9.01227 1.86454 9.45616C1.89452 9.89556 1.95223 10.1821 2.04966 10.4173C2.33723 11.1115 2.8888 11.6631 3.58305 11.9507C3.92681 12.0931 4.36536 12.1463 5.20232 12.1607L5.22353 12.1611C5.48886 12.1656 5.72138 12.1696 5.91463 12.191C6.12229 12.214 6.32539 12.2605 6.52056 12.374C6.71409 12.4866 6.85367 12.6369 6.97536 12.8039C7.0878 12.9582 7.20335 13.1534 7.33423 13.3746L7.70646 14.0035C7.83497 14.2206 8.16631 14.2206 8.29481 14.0035L8.66705 13.3746C8.79792 13.1534 8.91348 12.9582 9.02592 12.8039C9.1476 12.6369 9.28719 12.4866 9.48072 12.374C9.67589 12.2605 9.87898 12.214 10.0866 12.191C10.2799 12.1696 10.5124 12.1656 10.7777 12.1611L10.799 12.1607C11.6359 12.1463 12.0745 12.0931 12.4183 11.9507C13.1125 11.6631 13.6641 11.1115 13.9516 10.4173C14.0491 10.1821 14.1068 9.89556 14.1368 9.45616C14.167 9.01227 14.1673 8.44975 14.1673 7.66634V6.99967C14.1673 5.89885 14.1668 5.10834 14.1082 4.49173C14.0502 3.88256 13.9392 3.49495 13.7498 3.18593C13.5162 2.80469 13.1956 2.48415 12.8144 2.25053C12.5054 2.06116 12.1178 1.95008 11.5086 1.89216C10.892 1.83354 10.1015 1.83301 9.00065 1.83301H7.00065C5.89983 1.83301 5.10932 1.83354 4.49271 1.89216ZM4.83398 5.99967C4.83398 5.72353 5.05784 5.49967 5.33398 5.49967H10.6673C10.9435 5.49967 11.1673 5.72353 11.1673 5.99967C11.1673 6.27582 10.9435 6.49967 10.6673 6.49967H5.33398C5.05784 6.49967 4.83398 6.27582 4.83398 5.99967ZM4.83398 8.33301C4.83398 8.05687 5.05784 7.83301 5.33398 7.83301H9.00065C9.27679 7.83301 9.50065 8.05687 9.50065 8.33301C9.50065 8.60915 9.27679 8.83301 9.00065 8.83301H5.33398C5.05784 8.83301 4.83398 8.60915 4.83398 8.33301Z" fill="#808191"/>
</g>
<defs>
<clipPath id="clip0_1857_6647">
<rect width="16" height="16" fill="white"/>
</clipPath>
</defs>
</svg>
