<svg width="16" height="14" viewBox="0 0 16 14" fill="none" xmlns="http://www.w3.org/2000/svg">
<path fill-rule="evenodd" clip-rule="evenodd" d="M6.8433 0.729492H8.7129C9.68658 0.729489 10.4499 0.729486 11.0597 0.785182C11.6813 0.841951 12.1902 0.959657 12.6389 1.22376C13.1087 1.50033 13.5037 1.87979 13.7917 2.33111C14.0666 2.76209 14.1891 3.25098 14.2482 3.84805C14.3062 4.43383 14.3062 5.16705 14.3062 6.10236V6.7249C14.3062 7.39065 14.3062 7.91264 14.2763 8.33431C14.2458 8.76334 14.1828 9.12038 14.0404 9.45058C13.686 10.2724 13.0063 10.9254 12.1507 11.2658C11.6618 11.4603 11.1051 11.5035 10.3428 11.5161C10.0761 11.5205 9.90722 11.5238 9.77848 11.5375C9.65817 11.5502 9.61154 11.569 9.58425 11.5843C9.55546 11.6003 9.51624 11.6297 9.44814 11.7194C9.37444 11.8165 9.29117 11.9508 9.15912 12.1651L8.82992 12.6993C8.36016 13.4617 7.19602 13.4617 6.72625 12.6993L6.39705 12.1651C6.265 11.9508 6.18173 11.8165 6.10803 11.7194C6.03994 11.6297 6.00071 11.6003 5.97192 11.5843C5.94463 11.569 5.898 11.5502 5.7777 11.5375C5.64895 11.5238 5.48006 11.5205 5.21341 11.5161C4.45112 11.5035 3.89436 11.4603 3.40553 11.2658C2.54995 10.9254 1.87019 10.2724 1.5158 9.45058C1.37341 9.12038 1.31042 8.76334 1.27995 8.33431C1.25 7.91264 1.25 7.39065 1.25 6.7249L1.25 6.10237C1.25 5.16706 1.24999 4.43383 1.30797 3.84805C1.36707 3.25098 1.48961 2.76209 1.76455 2.33111C2.05246 1.87979 2.44749 1.50033 2.91733 1.22376C3.36599 0.959658 3.87494 0.841951 4.4965 0.785182C5.10631 0.729486 5.86962 0.729489 6.8433 0.729492ZM4.58272 1.65625C4.02783 1.70693 3.67475 1.80413 3.39327 1.96982C3.046 2.17424 2.75402 2.45471 2.54122 2.7883C2.36872 3.05869 2.26754 3.39785 2.21478 3.93088C2.16138 4.47041 2.1609 5.1621 2.1609 6.12533V6.70866C2.1609 7.39414 2.16114 7.88635 2.18873 8.27475C2.21604 8.65922 2.26861 8.90992 2.35736 9.11573C2.6193 9.72319 3.12173 10.2058 3.75412 10.4574C4.06724 10.582 4.46672 10.6286 5.2291 10.6412L5.24843 10.6416C5.49012 10.6455 5.70191 10.649 5.87795 10.6678C6.06711 10.6879 6.25211 10.7286 6.42989 10.8279C6.60617 10.9264 6.73332 11.0579 6.84416 11.204C6.94658 11.339 7.05184 11.5099 7.17106 11.7034L7.51013 12.2536C7.62718 12.4436 7.92899 12.4436 8.04605 12.2536L8.38512 11.7034C8.50433 11.5099 8.60959 11.339 8.71201 11.204C8.82285 11.0579 8.95 10.9264 9.12629 10.8279C9.30407 10.7286 9.48907 10.6879 9.67822 10.6678C9.85426 10.649 10.0661 10.6455 10.3077 10.6416L10.3271 10.6412C11.0895 10.6286 11.489 10.582 11.8021 10.4574C12.4345 10.2058 12.9369 9.72319 13.1988 9.11573C13.2876 8.90992 13.3402 8.65922 13.3675 8.27475C13.3951 7.88635 13.3953 7.39414 13.3953 6.70866V6.12533C13.3953 5.1621 13.3948 4.47041 13.3414 3.93088C13.2887 3.39785 13.1875 3.05869 13.015 2.7883C12.8022 2.45471 12.5102 2.17424 12.1629 1.96982C11.8814 1.80413 11.5284 1.70693 10.9735 1.65625C10.4118 1.60495 9.69174 1.60449 8.689 1.60449H6.8672C5.86446 1.60449 5.14439 1.60495 4.58272 1.65625Z" fill="#C4C4C4"/>
<path d="M5.9563 6.41699C5.9563 6.73916 5.68442 7.00033 5.34904 7.00033C5.01366 7.00033 4.74177 6.73916 4.74177 6.41699C4.74177 6.09483 5.01366 5.83366 5.34904 5.83366C5.68442 5.83366 5.9563 6.09483 5.9563 6.41699Z" fill="#C4C4C4"/>
<path d="M8.38536 6.41699C8.38536 6.73916 8.11348 7.00033 7.7781 7.00033C7.44272 7.00033 7.17083 6.73916 7.17083 6.41699C7.17083 6.09483 7.44272 5.83366 7.7781 5.83366C8.11348 5.83366 8.38536 6.09483 8.38536 6.41699Z" fill="#C4C4C4"/>
<path d="M10.8144 6.41699C10.8144 6.73916 10.5425 7.00033 10.2072 7.00033C9.87178 7.00033 9.59989 6.73916 9.59989 6.41699C9.59989 6.09483 9.87178 5.83366 10.2072 5.83366C10.5425 5.83366 10.8144 6.09483 10.8144 6.41699Z" fill="#C4C4C4"/>
</svg>
