<svg width="26" height="26" viewBox="0 0 26 26" fill="none" xmlns="http://www.w3.org/2000/svg">
<path fill-rule="evenodd" clip-rule="evenodd" d="M11.3436 23.1503L11.6125 22.6959C12.0435 21.9678 12.259 21.6038 12.6022 21.4007C12.9455 21.1977 13.3932 21.1834 14.2887 21.1547C15.1284 21.1279 15.6927 21.0546 16.1752 20.8547C17.1911 20.4339 17.9983 19.6268 18.4191 18.6109C18.7347 17.849 18.7347 16.883 18.7347 14.9512V14.122C18.7347 11.4076 18.7347 10.0504 18.1237 9.05341C17.7818 8.49553 17.3128 8.02648 16.7549 7.68461C15.7579 7.07365 14.4007 7.07364 11.6863 7.07364H9.19871C6.48433 7.07364 5.12715 7.07365 4.13014 7.68461C3.57227 8.02648 3.10322 8.49553 2.76135 9.05341C2.15039 10.0504 2.15039 11.4076 2.15039 14.122V14.9512C2.15039 16.883 2.15039 17.849 2.46599 18.6109C2.88679 19.6268 3.69392 20.4339 4.70983 20.8547C5.19235 21.0546 5.75667 21.1279 6.59633 21.1547C7.49182 21.1834 7.93956 21.1977 8.28281 21.4007C8.62607 21.6038 8.84156 21.9678 9.27252 22.6959L9.54143 23.1503C9.94207 23.8271 10.9429 23.8271 11.3436 23.1503ZM14.0703 15.3658C14.6428 15.3658 15.1069 14.9017 15.1069 14.3293C15.1069 13.7568 14.6428 13.2927 14.0703 13.2927C13.4979 13.2927 13.0338 13.7568 13.0338 14.3293C13.0338 14.9017 13.4979 15.3658 14.0703 15.3658ZM11.479 14.3293C11.479 14.9017 11.015 15.3658 10.4425 15.3658C9.87008 15.3658 9.40601 14.9017 9.40601 14.3293C9.40601 13.7568 9.87008 13.2927 10.4425 13.2927C11.015 13.2927 11.479 13.7568 11.479 14.3293ZM6.81472 15.3658C7.38717 15.3658 7.85124 14.9017 7.85124 14.3293C7.85124 13.7568 7.38717 13.2927 6.81472 13.2927C6.24227 13.2927 5.7782 13.7568 5.7782 14.3293C5.7782 14.9017 6.24227 15.3658 6.81472 15.3658Z" fill="#C4C4C4"/>
<path d="M16.3128 2.15039C17.5514 2.15038 18.5363 2.15038 19.3262 2.22548C20.1361 2.30249 20.8209 2.46391 21.4309 2.83773C22.0585 3.22233 22.5862 3.75001 22.9708 4.37762C23.3446 4.98764 23.506 5.67243 23.583 6.48236C23.6581 7.27223 23.6581 8.25719 23.6581 9.4957V10.3416C23.6581 11.2231 23.6581 11.9242 23.6193 12.4927C23.5796 13.0743 23.4968 13.5738 23.3031 14.0414C22.8297 15.1843 21.9216 16.0924 20.7788 16.5658C20.7502 16.5776 20.7215 16.589 20.6926 16.6001C20.5546 16.6528 20.4364 16.698 20.3327 16.7317C20.3478 16.2275 20.3478 15.6533 20.3477 15.0052V14.0457C20.3478 12.7535 20.3478 11.671 20.2641 10.791C20.1765 9.8697 19.986 9.00513 19.4991 8.21058C19.0242 7.43565 18.3727 6.78411 17.5977 6.30924C16.8032 5.82233 15.9386 5.63178 15.0173 5.54418C14.1373 5.46051 13.0549 5.46053 11.7627 5.46056H9.12241C8.24479 5.46054 7.46393 5.46052 6.77752 5.48673C6.8095 5.37591 6.85331 5.24888 6.90474 5.09978C6.99221 4.8462 7.10275 4.60637 7.24292 4.37762C7.62752 3.75001 8.1552 3.22233 8.78281 2.83773C9.39283 2.46391 10.0776 2.30249 10.8875 2.22548C11.6774 2.15038 12.6623 2.15038 13.9009 2.15039H16.3128Z" fill="#C4C4C4"/>
</svg>
