<svg width="16" height="16" viewBox="0 0 16 16" fill="none" xmlns="http://www.w3.org/2000/svg">
<g clip-path="url(#clip0_1857_6637)">
<path fill-rule="evenodd" clip-rule="evenodd" d="M5.50065 11.9997C5.50065 11.7235 5.72451 11.4997 6.00065 11.4997H10.0007C10.2768 11.4997 10.5007 11.7235 10.5007 11.9997C10.5007 12.2758 10.2768 12.4997 10.0007 12.4997H6.00065C5.72451 12.4997 5.50065 12.2758 5.50065 11.9997Z" fill="#808191"/>
<path fill-rule="evenodd" clip-rule="evenodd" d="M5.80022 0.833013H10.2009C10.3475 0.832973 10.4599 0.832942 10.5581 0.843484C11.4609 0.940368 12.1519 1.68172 12.1938 2.57976C12.9876 2.81681 13.5533 3.55134 13.5635 4.39379C13.9642 4.51401 14.3098 4.70364 14.5927 5.00922C15.0273 5.47872 15.162 6.05733 15.1672 6.73323C15.1721 7.383 15.0563 8.20415 14.9125 9.22388L14.6199 11.2996C14.5075 12.097 14.4161 12.7447 14.2741 13.2523C14.1254 13.7834 13.9063 14.2204 13.5006 14.5562C13.0982 14.8895 12.6207 15.0332 12.0563 15.1009C11.5106 15.1664 10.8242 15.1664 9.96943 15.1664H6.0319C5.17717 15.1664 4.49066 15.1664 3.94497 15.1009C3.3806 15.0332 2.90313 14.8895 2.50067 14.5562C2.095 14.2204 1.87589 13.7834 1.72724 13.2523C1.58516 12.7447 1.49385 12.097 1.38144 11.2996L1.08878 9.22388C0.944992 8.20415 0.829205 7.383 0.834136 6.73323C0.839266 6.05733 0.973964 5.47872 1.40862 5.00922C1.69146 4.70372 2.03695 4.5141 2.4375 4.39388C2.44771 3.55134 3.01343 2.81674 3.80735 2.57972C3.84929 1.6817 4.54027 0.940367 5.44305 0.843484C5.54128 0.832942 5.65365 0.832973 5.80022 0.833013ZM3.46 4.21824C4.07719 4.16633 4.83381 4.16634 5.74461 4.16635H10.2567C11.1673 4.16634 11.9239 4.16633 12.541 4.21821C12.4496 3.81313 12.0877 3.49968 11.6418 3.49968H4.35923C3.91329 3.49968 3.55144 3.81314 3.46 4.21824ZM10.4514 1.83778C10.8182 1.87714 11.1081 2.15056 11.1791 2.49968H4.82205C4.89306 2.15056 5.18295 1.87714 5.54975 1.83778C5.58727 1.83375 5.64074 1.83302 5.82798 1.83302H10.1732C10.3604 1.83302 10.4139 1.83375 10.4514 1.83778ZM2.14243 5.68858C2.34436 5.47046 2.64802 5.32579 3.23807 5.2473C3.83882 5.1674 4.64303 5.16635 5.78224 5.16635H10.2191C11.3583 5.16635 12.1625 5.1674 12.7632 5.2473C13.3533 5.32579 13.6569 5.47046 13.8589 5.68858C14.0561 5.90163 14.163 6.19156 14.1672 6.74082C14.1715 7.30753 14.0674 8.05488 13.9165 9.1252L13.6346 11.1252C13.516 11.9658 13.433 12.547 13.3111 12.9828C13.1936 13.4025 13.0553 13.6266 12.8629 13.786C12.6672 13.948 12.4045 14.0519 11.9372 14.108C11.458 14.1655 10.8317 14.1664 9.93707 14.1664H6.06422C5.16963 14.1664 4.54327 14.1655 4.06411 14.108C3.59676 14.0519 3.33408 13.948 3.13841 13.786C2.94595 13.6266 2.8077 13.4025 2.69023 12.9828C2.56825 12.547 2.48525 11.9658 2.36674 11.1252L2.08476 9.1252C1.93385 8.05488 1.82981 7.30753 1.83411 6.74082C1.83828 6.19156 1.94519 5.90163 2.14243 5.68858Z" fill="#808191"/>
</g>
<defs>
<clipPath id="clip0_1857_6637">
<rect width="16" height="16" fill="white"/>
</clipPath>
</defs>
</svg>
