<svg width="11" height="12" viewBox="0 0 11 12" fill="none" xmlns="http://www.w3.org/2000/svg">
<path d="M10.7849 6.93693L10.911 5.47579C11.01 4.32822 11.0595 3.75443 10.8796 3.51724C10.7822 3.38894 10.6498 3.31032 10.5083 3.29676C10.2467 3.27169 9.91811 3.67974 9.26097 4.49584C8.92113 4.91789 8.75121 5.12892 8.56164 5.1616C8.45661 5.17971 8.34959 5.16109 8.25261 5.10785C8.07757 5.01175 7.96087 4.75087 7.72746 4.22911L6.49719 1.47891C6.05613 0.492971 5.83561 0 5.5 0C5.16439 0 4.94387 0.492972 4.50281 1.47891L3.27254 4.22911C3.03913 4.75087 2.92243 5.01175 2.74739 5.10785C2.65041 5.16109 2.54339 5.17971 2.43836 5.1616C2.24879 5.12892 2.07887 4.91789 1.73903 4.49584C1.08189 3.67974 0.753327 3.27169 0.491693 3.29676C0.350162 3.31032 0.217788 3.38894 0.120442 3.51724C-0.059512 3.75443 -0.0100099 4.32822 0.0889943 5.47579L0.215051 6.93693C0.422759 9.3445 0.526613 10.5483 1.17705 11.2741C1.82749 12 2.80234 12 4.75204 12H6.24796C8.19766 12 9.17251 12 9.82295 11.2741C10.4734 10.5483 10.5772 9.3445 10.7849 6.93693Z" fill="#C4C4C4"/>
</svg>
