<svg width="18" height="19" viewBox="0 0 18 19" fill="none" xmlns="http://www.w3.org/2000/svg">
<path d="M5.8125 7.25C5.8125 6.93934 5.56066 6.6875 5.25 6.6875C4.93934 6.6875 4.6875 6.93934 4.6875 7.25V14C4.6875 14.3106 4.93934 14.5625 5.25 14.5625C5.56066 14.5625 5.8125 14.3106 5.8125 14V7.25Z" fill="white"/>
<path d="M9 4.4375C9.31065 4.4375 9.5625 4.68934 9.5625 5V14C9.5625 14.3106 9.31065 14.5625 9 14.5625C8.68935 14.5625 8.4375 14.3106 8.4375 14V5C8.4375 4.68934 8.68935 4.4375 9 4.4375Z" fill="white"/>
<path d="M13.3125 10.25C13.3125 9.93935 13.0606 9.6875 12.75 9.6875C12.4394 9.6875 12.1875 9.93935 12.1875 10.25V14C12.1875 14.3106 12.4394 14.5625 12.75 14.5625C13.0606 14.5625 13.3125 14.3106 13.3125 14V10.25Z" fill="white"/>
<path fill-rule="evenodd" clip-rule="evenodd" d="M8.95695 1.4375C7.22567 1.43749 5.86889 1.43749 4.81028 1.57981C3.72673 1.72549 2.87171 2.0295 2.20061 2.70061C1.5295 3.37171 1.22549 4.22673 1.07981 5.31028C0.937485 6.36889 0.937493 7.72567 0.9375 9.45695V9.54305C0.937493 11.2744 0.937485 12.6311 1.07981 13.6897C1.22549 14.7732 1.5295 15.6283 2.20061 16.2994C2.87171 16.9705 3.72673 17.2745 4.81028 17.4202C5.86889 17.5625 7.22567 17.5625 8.95695 17.5625H9.04305C10.7744 17.5625 12.1311 17.5625 13.1897 17.4202C14.2732 17.2745 15.1283 16.9705 15.7994 16.2994C16.4705 15.6283 16.7745 14.7732 16.9202 13.6897C17.0625 12.6311 17.0625 11.2744 17.0625 9.54305V9.45695C17.0625 7.72567 17.0625 6.36889 16.9202 5.31028C16.7745 4.22673 16.4705 3.37171 15.7994 2.70061C15.1283 2.0295 14.2732 1.72549 13.1897 1.57981C12.1311 1.43749 10.7744 1.43749 9.04305 1.4375H8.95695ZM2.9961 3.4961C3.42334 3.06886 4.00138 2.82369 4.96019 2.69478C5.93517 2.56369 7.21633 2.5625 9 2.5625C10.7837 2.5625 12.0648 2.56369 13.0398 2.69478C13.9986 2.82369 14.5766 3.06886 15.0039 3.4961C15.4312 3.92334 15.6764 4.50138 15.8052 5.46019C15.9363 6.43517 15.9375 7.71633 15.9375 9.5C15.9375 11.2837 15.9363 12.5648 15.8052 13.5398C15.6764 14.4986 15.4312 15.0766 15.0039 15.5039C14.5766 15.9312 13.9986 16.1764 13.0398 16.3052C12.0648 16.4363 10.7837 16.4375 9 16.4375C7.21633 16.4375 5.93517 16.4363 4.96019 16.3052C4.00138 16.1764 3.42334 15.9312 2.9961 15.5039C2.56886 15.0766 2.32369 14.4986 2.19478 13.5398C2.06369 12.5648 2.0625 11.2837 2.0625 9.5C2.0625 7.71633 2.06369 6.43517 2.19478 5.46019C2.32369 4.50138 2.56886 3.92334 2.9961 3.4961Z" fill="white"/>
</svg>
