<svg width="18" height="18" viewBox="0 0 18 18" fill="none" xmlns="http://www.w3.org/2000/svg">
<g clip-path="url(#clip0_2228_3290)">
<path d="M5.8125 6.75C5.8125 6.43934 5.56066 6.1875 5.25 6.1875C4.93934 6.1875 4.6875 6.43934 4.6875 6.75V13.5C4.6875 13.8107 4.93934 14.0625 5.25 14.0625C5.56066 14.0625 5.8125 13.8107 5.8125 13.5V6.75Z" fill="#660BAD"/>
<path d="M9 3.9375C9.31065 3.9375 9.5625 4.18934 9.5625 4.5V13.5C9.5625 13.8106 9.31065 14.0625 9 14.0625C8.68935 14.0625 8.4375 13.8106 8.4375 13.5V4.5C8.4375 4.18934 8.68935 3.9375 9 3.9375Z" fill="#660BAD"/>
<path d="M13.3125 9.75C13.3125 9.43935 13.0607 9.1875 12.75 9.1875C12.4393 9.1875 12.1875 9.43935 12.1875 9.75V13.5C12.1875 13.8107 12.4393 14.0625 12.75 14.0625C13.0607 14.0625 13.3125 13.8107 13.3125 13.5V9.75Z" fill="#660BAD"/>
<path fill-rule="evenodd" clip-rule="evenodd" d="M8.95695 0.9375C7.22567 0.937493 5.86889 0.937485 4.81028 1.07981C3.72673 1.22549 2.87171 1.5295 2.20061 2.20061C1.5295 2.87171 1.22549 3.72673 1.07981 4.81028C0.937485 5.86889 0.937493 7.22567 0.9375 8.95695V9.04305C0.937493 10.7743 0.937485 12.1311 1.07981 13.1897C1.22549 14.2732 1.5295 15.1283 2.20061 15.7994C2.87171 16.4705 3.72673 16.7745 4.81028 16.9202C5.86889 17.0625 7.22567 17.0625 8.95695 17.0625H9.04305C10.7743 17.0625 12.1311 17.0625 13.1897 16.9202C14.2732 16.7745 15.1283 16.4705 15.7994 15.7994C16.4705 15.1283 16.7745 14.2732 16.9202 13.1897C17.0625 12.1311 17.0625 10.7743 17.0625 9.04305V8.95695C17.0625 7.22567 17.0625 5.86889 16.9202 4.81028C16.7745 3.72673 16.4705 2.87171 15.7994 2.20061C15.1283 1.5295 14.2732 1.22549 13.1897 1.07981C12.1311 0.937485 10.7743 0.937493 9.04305 0.9375H8.95695ZM2.9961 2.9961C3.42334 2.56886 4.00138 2.32369 4.96019 2.19478C5.93517 2.06369 7.21633 2.0625 9 2.0625C10.7837 2.0625 12.0648 2.06369 13.0398 2.19478C13.9986 2.32369 14.5766 2.56886 15.0039 2.9961C15.4312 3.42334 15.6764 4.00138 15.8052 4.96019C15.9363 5.93517 15.9375 7.21633 15.9375 9C15.9375 10.7837 15.9363 12.0648 15.8052 13.0398C15.6764 13.9986 15.4312 14.5766 15.0039 15.0039C14.5766 15.4312 13.9986 15.6764 13.0398 15.8052C12.0648 15.9363 10.7837 15.9375 9 15.9375C7.21633 15.9375 5.93517 15.9363 4.96019 15.8052C4.00138 15.6764 3.42334 15.4312 2.9961 15.0039C2.56886 14.5766 2.32369 13.9986 2.19478 13.0398C2.06369 12.0648 2.0625 10.7837 2.0625 9C2.0625 7.21633 2.06369 5.93517 2.19478 4.96019C2.32369 4.00138 2.56886 3.42334 2.9961 2.9961Z" fill="#660BAD"/>
</g>
<defs>
<clipPath id="clip0_2228_3290">
<rect width="18" height="18" fill="white"/>
</clipPath>
</defs>
</svg>
