<svg width="27" height="27" viewBox="0 0 27 27" fill="none" xmlns="http://www.w3.org/2000/svg">
<path d="M14.215 19.3204C14.0314 19.5211 13.772 19.6354 13.5 19.6354C13.228 19.6354 12.9686 19.5211 12.785 19.3204L7.61837 13.6693C7.25735 13.2744 7.28479 12.6617 7.67965 12.3007C8.07452 11.9396 8.68728 11.9671 9.0483 12.3619L12.5313 16.1714V1.875C12.5313 1.33997 12.965 0.90625 13.5 0.90625C14.035 0.90625 14.4688 1.33997 14.4688 1.875V16.1714L17.9517 12.3619C18.3127 11.9671 18.9255 11.9396 19.3204 12.3007C19.7152 12.6617 19.7427 13.2744 19.3816 13.6693L14.215 19.3204Z" fill="#C4C4C4"/>
<path d="M2.84375 17.375C2.84375 16.84 2.41003 16.4063 1.875 16.4063C1.33998 16.4063 0.906251 16.84 0.906251 17.375V17.4459C0.906225 19.2123 0.906204 20.6362 1.05676 21.756C1.21307 22.9187 1.54748 23.8976 2.32495 24.675C3.10243 25.4525 4.08135 25.7869 5.24399 25.9432C6.36382 26.0938 7.78766 26.0938 9.55413 26.0938H17.4459C19.2123 26.0938 20.6362 26.0938 21.756 25.9432C22.9187 25.7869 23.8976 25.4525 24.6751 24.675C25.4525 23.8976 25.7869 22.9187 25.9432 21.756C26.0938 20.6362 26.0938 19.2123 26.0938 17.4459V17.375C26.0938 16.84 25.66 16.4063 25.125 16.4063C24.59 16.4063 24.1563 16.84 24.1563 17.375C24.1563 19.2291 24.1542 20.5222 24.023 21.4978C23.8956 22.4456 23.6625 22.9475 23.305 23.305C22.9475 23.6625 22.4456 23.8956 21.4978 24.023C20.5222 24.1542 19.2291 24.1563 17.375 24.1563H9.625C7.77092 24.1563 6.47782 24.1542 5.50216 24.023C4.55436 23.8956 4.05246 23.6625 3.69497 23.305C3.33749 22.9475 3.10441 22.4456 2.97698 21.4978C2.84581 20.5222 2.84375 19.2291 2.84375 17.375Z" fill="#C4C4C4"/>
</svg>
