<svg width="16" height="16" viewBox="0 0 16 16" fill="none" xmlns="http://www.w3.org/2000/svg">
<g clip-path="url(#clip0_1782_8430)">
<path d="M13.3333 1.3335C13.3333 1.3335 12 4.45909 12 7.04778C12 7.87661 12.284 8.57019 12.6667 9.26093C13.107 10.0559 13.6781 10.8471 14.0972 11.8364C14.4298 12.6215 14.6667 13.5313 14.6667 14.6668" stroke="#808191" stroke-linecap="round" stroke-linejoin="round"/>
<path d="M2.66732 1.3335C2.66732 1.3335 4.00065 4.45909 4.00065 7.04778C4.00065 7.87661 3.71664 8.57019 3.33399 9.26093C2.89362 10.0559 2.32259 10.8471 1.90349 11.8364C1.5709 12.6215 1.33398 13.5313 1.33398 14.6668" stroke="#808191" stroke-linecap="round" stroke-linejoin="round"/>
<path opacity="0.5" d="M4 8.6665H12" stroke="#808191" stroke-linecap="round"/>
<path d="M8 14.6665C8.33333 13.6665 10 11.6665 14 11.6665" stroke="#808191" stroke-linecap="round"/>
<path d="M8 14.6665C7.66667 13.6665 6 11.6665 2 11.6665" stroke="#808191" stroke-linecap="round"/>
</g>
<defs>
<clipPath id="clip0_1782_8430">
<rect width="16" height="16" fill="white"/>
</clipPath>
</defs>
</svg>
