<svg width="16" height="16" viewBox="0 0 16 16" fill="none" xmlns="http://www.w3.org/2000/svg">
<path d="M12.7616 3.33336C13.9404 4.53586 14.6673 6.18305 14.6673 8.00002C14.6673 9.83857 13.9231 11.5033 12.7194 12.7093M3.33398 12.761C2.09974 11.551 1.33398 9.86495 1.33398 8.00002C1.33398 6.15667 2.08213 4.48805 3.29134 3.28125" stroke="#808191" stroke-linecap="round" stroke-linejoin="round"/>
<path d="M10.8566 5.36257C11.5639 6.0391 12 6.96582 12 7.98805C12 9.02242 11.5535 9.959 10.8313 10.6375M5.2 10.6666C4.45946 9.98586 4 9.03727 4 7.98805C4 6.95097 4.44889 6.0122 5.17441 5.33325" stroke="#808191" stroke-linecap="round" stroke-linejoin="round"/>
<path d="M9.10358 6.9674C9.70076 7.40584 9.99935 7.62506 9.99935 8C9.99935 8.37494 9.70076 8.59416 9.10358 9.0326C8.93872 9.15363 8.77522 9.26759 8.62497 9.36254C8.49315 9.44585 8.34387 9.53202 8.18931 9.6166C7.59353 9.94267 7.29564 10.1057 7.02847 9.9252C6.76129 9.7447 6.73701 9.36682 6.68845 8.61108C6.67472 8.39735 6.66602 8.18783 6.66602 8C6.66602 7.81217 6.67472 7.60265 6.68845 7.38892C6.73701 6.63318 6.76129 6.2553 7.02847 6.0748C7.29564 5.89429 7.59353 6.05733 8.18931 6.3834C8.34387 6.46798 8.49315 6.55415 8.62497 6.63746C8.77522 6.73242 8.93872 6.84637 9.10358 6.9674Z" stroke="#808191"/>
</svg>
