<svg width="17" height="19" viewBox="0 0 17 19" fill="none" xmlns="http://www.w3.org/2000/svg">
<path fill-rule="evenodd" clip-rule="evenodd" d="M9.56225 1.18916L11.5904 1.52719C12.5536 1.68769 13.3338 1.81773 13.9443 1.99944C14.5799 2.18869 15.1051 2.45381 15.5094 2.93114C15.9137 3.40845 16.089 3.97009 16.1712 4.62823C16.25 5.26018 16.25 6.05121 16.25 7.02763V11.9722C16.25 12.9486 16.25 13.7397 16.1712 14.3716C16.089 15.0298 15.9137 15.5913 15.5094 16.0687C15.1051 16.546 14.5799 16.8111 13.9443 17.0003C13.3338 17.1821 12.5536 17.3121 11.5905 17.4726L9.56225 17.8107C8.70125 17.9542 7.98942 18.0728 7.42083 18.0866C6.8245 18.101 6.27166 18.0052 5.81039 17.6144C5.42103 17.2846 5.22821 16.8558 5.12713 16.3749H4.74693C3.80292 16.3749 3.03145 16.3749 2.42241 16.2931C1.78578 16.2075 1.23383 16.0223 0.793259 15.5817C0.352676 15.1411 0.167442 14.5892 0.0818506 13.9525C-3.27677e-05 13.3435 -1.61912e-05 12.572 4.75455e-07 11.628V7.37184C-1.61912e-05 6.42782 -3.27677e-05 5.65636 0.0818506 5.04732C0.167442 4.41069 0.352676 3.85874 0.793259 3.41817C1.23383 2.97759 1.78578 2.79235 2.42241 2.70676C3.03146 2.62488 3.8029 2.62489 4.74693 2.62491H5.12713C5.2282 2.14404 5.42103 1.71526 5.81039 1.38542C6.27166 0.99467 6.8245 0.898828 7.42083 0.913228C7.98942 0.92697 8.70133 1.04564 9.56225 1.18916ZM5 13.9458C4.99999 14.3758 4.99998 14.7692 5.00953 15.1249H4.79167C3.79191 15.1249 3.10496 15.1236 2.58897 15.0543C2.09095 14.9873 1.84676 14.8674 1.67714 14.6978C1.50753 14.5282 1.38766 14.284 1.3207 13.7859C1.25133 13.2699 1.25 12.583 1.25 11.5833V7.41658C1.25 6.41682 1.25133 5.72987 1.3207 5.21388C1.38766 4.71586 1.50753 4.47167 1.67714 4.30205C1.84676 4.13244 2.09095 4.01257 2.58897 3.94561C3.10496 3.87624 3.79191 3.87491 4.79167 3.87491H5.00953C4.99998 4.23067 4.99999 4.62399 5 5.054V13.9458ZM7.39067 2.16287C6.93875 2.15194 6.7465 2.23067 6.61833 2.33919C6.49025 2.44772 6.38099 2.62442 6.31748 3.07197C6.25149 3.53681 6.25 4.16905 6.25 5.10144V13.8983C6.25 14.8308 6.25149 15.463 6.31748 15.9278C6.38099 16.3754 6.49025 16.5521 6.61833 16.6606C6.7465 16.7692 6.93875 16.8478 7.39067 16.8369C7.86 16.8256 8.48392 16.7232 9.40358 16.5698L11.3443 16.2464C12.3578 16.0775 13.0607 15.9592 13.5876 15.8023C14.0977 15.6504 14.3676 15.4828 14.5557 15.2607C14.7438 15.0387 14.8648 14.7449 14.9307 14.2168C14.9988 13.6713 15 12.9584 15 11.9309V7.06888C15 6.04136 14.9988 5.32858 14.9307 4.78309C14.8648 4.25492 14.7438 3.96114 14.5557 3.7391C14.3676 3.51706 14.0977 3.34936 13.5876 3.19748C13.0607 3.04063 12.3578 2.92232 11.3443 2.7534L9.40358 2.42995C8.48392 2.27668 7.86 2.1742 7.39067 2.16287Z" fill="#BC3636"/>
<path d="M8.75 8.6665C8.75 8.32134 8.47017 8.0415 8.125 8.0415C7.77983 8.0415 7.5 8.32134 7.5 8.6665V10.3332C7.5 10.6783 7.77983 10.9582 8.125 10.9582C8.47017 10.9582 8.75 10.6783 8.75 10.3332V8.6665Z" fill="#BC3636"/>
</svg>
