<svg width="24" height="25" viewBox="0 0 24 25" fill="none" xmlns="http://www.w3.org/2000/svg">
<path fill-rule="evenodd" clip-rule="evenodd" d="M12 8.625C9.92893 8.625 8.25 10.3039 8.25 12.375C8.25 14.4461 9.92893 16.125 12 16.125C14.0711 16.125 15.75 14.4461 15.75 12.375C15.75 10.3039 14.0711 8.625 12 8.625ZM9.75 12.375C9.75 11.1324 10.7574 10.125 12 10.125C13.2426 10.125 14.25 11.1324 14.25 12.375C14.25 13.6176 13.2426 14.625 12 14.625C10.7574 14.625 9.75 13.6176 9.75 12.375Z" fill="#666666"/>
<path fill-rule="evenodd" clip-rule="evenodd" d="M12 3.625C7.48587 3.625 4.44529 6.3292 2.68057 8.62186L2.64874 8.6632C2.24964 9.18153 1.88206 9.65892 1.63269 10.2234C1.36564 10.8279 1.25 11.4867 1.25 12.375C1.25 13.2633 1.36564 13.9221 1.63269 14.5266C1.88206 15.0911 2.24964 15.5685 2.64875 16.0868L2.68057 16.1281C4.44529 18.4208 7.48587 21.125 12 21.125C16.5141 21.125 19.5547 18.4208 21.3194 16.1281L21.3512 16.0868C21.7504 15.5685 22.1179 15.0911 22.3673 14.5266C22.6344 13.9221 22.75 13.2633 22.75 12.375C22.75 11.4867 22.6344 10.8279 22.3673 10.2234C22.1179 9.65891 21.7504 9.18152 21.3512 8.66318L21.3194 8.62186C19.5547 6.3292 16.5141 3.625 12 3.625ZM3.86922 9.5368C5.49864 7.41992 8.15036 5.125 12 5.125C15.8496 5.125 18.5014 7.41992 20.1308 9.5368C20.5694 10.1066 20.8263 10.4471 20.9952 10.8295C21.1532 11.187 21.25 11.6239 21.25 12.375C21.25 13.1261 21.1532 13.563 20.9952 13.9205C20.8263 14.3029 20.5694 14.6434 20.1308 15.2132C18.5014 17.3301 15.8496 19.625 12 19.625C8.15036 19.625 5.49864 17.3301 3.86922 15.2132C3.43064 14.6434 3.17374 14.3029 3.00476 13.9205C2.84684 13.563 2.75 13.1261 2.75 12.375C2.75 11.6239 2.84684 11.187 3.00476 10.8295C3.17374 10.4471 3.43063 10.1066 3.86922 9.5368Z" fill="#666666"/>
<rect x="2.77734" y="4.21289" width="1.5" height="23.6622" rx="0.75" transform="rotate(-45 2.77734 4.21289)" fill="#666666"/>
</svg>
