<svg width="34" height="35" viewBox="0 0 34 35" fill="none" xmlns="http://www.w3.org/2000/svg">
<path d="M17.0108 34.8058C26.3765 34.8058 33.9689 27.2134 33.9689 17.8477C33.9689 8.48204 26.3765 0.889648 17.0108 0.889648C7.64513 0.889648 0.0527344 8.48204 0.0527344 17.8477C0.0527344 27.2134 7.64513 34.8058 17.0108 34.8058Z" fill="#3C5A9A"/>
<path d="M22.525 6.09375H18.7684C16.5391 6.09375 14.0595 7.03137 14.0595 10.2628C14.0704 11.3888 14.0595 12.4672 14.0595 13.6808H11.4805V17.7847H14.1393V29.5994H19.025V17.7068H22.2497L22.5415 13.6693H18.9408C18.9408 13.6693 18.9489 11.8732 18.9408 11.3516C18.9408 10.0746 20.2696 10.1477 20.3495 10.1477C20.9818 10.1477 22.2113 10.1496 22.5269 10.1477V6.09375H22.525Z" fill="white"/>
</svg>
