<svg width="16" height="16" viewBox="0 0 16 16" fill="none" xmlns="http://www.w3.org/2000/svg">
<path fill-rule="evenodd" clip-rule="evenodd" d="M7.22726 8.00489L7.22828 8.24096C7.23638 9.17728 7.29283 10.0127 7.39017 10.5421C7.39017 10.5516 7.49635 11.0767 7.56398 11.2515C7.67016 11.5041 7.86216 11.7185 8.10289 11.8544C8.29561 11.9513 8.49779 12.0005 8.70942 12.0005C8.87579 11.9928 9.15015 11.9091 9.34596 11.8389L9.50869 11.7765C10.5865 11.3484 12.6468 9.94945 13.4359 9.09393L13.4941 9.03414L13.7537 8.75393C13.9174 8.5395 14.0039 8.27734 14.0039 7.99535C14.0039 7.74273 13.9268 7.49012 13.7726 7.28597C13.7265 7.21983 13.6521 7.13497 13.586 7.06328L13.3332 6.79875C12.4636 5.91763 10.5807 4.68171 9.60469 4.2722C9.60469 4.26339 8.99815 4.01003 8.70942 4.00049H8.67088C8.22798 4.00049 7.81416 4.2531 7.60253 4.6614C7.54471 4.77302 7.48926 4.99168 7.44708 5.18371L7.37126 5.54629C7.28471 6.12937 7.22726 7.0238 7.22726 8.00489ZM3.00608 6.98826C2.45263 6.98826 2.00391 7.44135 2.00391 8.00019C2.00391 8.55903 2.45263 9.01213 3.00608 9.01213L5.47223 8.79403C5.9064 8.79403 6.2584 8.43934 6.2584 8.00019C6.2584 7.56179 5.9064 7.20636 5.47223 7.20636L3.00608 6.98826Z" fill="#808191"/>
</svg>
