<svg width="12" height="8" viewBox="0 0 12 8" fill="none" xmlns="http://www.w3.org/2000/svg">
<path fill-rule="evenodd" clip-rule="evenodd" d="M5.22726 4.00489L5.22828 4.24096C5.23638 5.17728 5.29283 6.01266 5.39017 6.54207C5.39017 6.55162 5.49635 7.07668 5.56398 7.25145C5.67016 7.50407 5.86216 7.7185 6.10289 7.85435C6.29561 7.95129 6.49779 8.00049 6.70942 8.00049C6.87579 7.99278 7.15015 7.90906 7.34596 7.83887L7.50869 7.77651C8.58649 7.34839 10.6468 5.94945 11.4359 5.09393L11.4941 5.03414L11.7537 4.75393C11.9174 4.5395 12.0039 4.27734 12.0039 3.99535C12.0039 3.74273 11.9268 3.49012 11.7726 3.28597C11.7265 3.21983 11.6521 3.13497 11.586 3.06328L11.3332 2.79875C10.4636 1.91763 8.58068 0.681709 7.60469 0.272197C7.60469 0.263385 6.99815 0.0100348 6.70942 0.000488281L6.67088 0.000488281C6.22798 0.000488281 5.81416 0.253104 5.60253 0.661403C5.54471 0.773024 5.48926 0.991676 5.44708 1.18371L5.37126 1.54629C5.28471 2.12937 5.22726 3.0238 5.22726 4.00489ZM1.00608 2.98826C0.452628 2.98826 0.00390625 3.44135 0.00390625 4.00019C0.00390625 4.55903 0.452628 5.01213 1.00608 5.01213L3.47223 4.79403C3.9064 4.79403 4.2584 4.43934 4.2584 4.00019C4.2584 3.56179 3.9064 3.20636 3.47223 3.20636L1.00608 2.98826Z" fill="#808191"/>
</svg>
