<svg width="25" height="25" viewBox="0 0 25 25" fill="none" xmlns="http://www.w3.org/2000/svg">
    <path d="M12.0015 12.8306L12 12.5061C12 11.1571 12.0848 9.92721 12.2125 9.12548L12.3244 8.62693C12.3866 8.36288 12.4684 8.06224 12.5538 7.90876C12.8661 7.34735 13.4767 7 14.1303 7H14.1872C14.6132 7.01313 15.5083 7.36148 15.5083 7.3736C16.9485 7.93668 19.727 9.63608 21.0103 10.8476L21.3832 11.2113C21.4809 11.3099 21.5906 11.4266 21.6587 11.5175C21.8862 11.7982 22 12.1456 22 12.4929C22 12.8807 21.8723 13.2411 21.6308 13.536L21.2477 13.9213V13.9213L21.1618 14.0035C19.9974 15.1798 16.9571 17.1034 15.3666 17.692L15.1265 17.7778C14.8375 17.8743 14.4327 17.9894 14.1872 18C13.8749 18 13.5765 17.9323 13.2921 17.7991C12.9369 17.6123 12.6536 17.3174 12.4969 16.9701C12.3971 16.7298 12.2404 16.0078 12.2404 15.9947C12.0968 15.2667 12.0135 14.1181 12.0015 12.8306Z" stroke="#808191" stroke-width="2"/>
    <path d="M3 13C3 11.8955 3.63282 11 4.41333 11L7.89128 11.4311C8.50359 11.4311 9 12.1335 9 13C9 13.8679 8.50359 14.5689 7.89128 14.5689L4.41333 15C3.63282 15 3 14.1045 3 13Z" stroke="#808191" stroke-width="1.5"/>
</svg>