<svg width="20" height="20" viewBox="0 0 20 20" fill="none" xmlns="http://www.w3.org/2000/svg">
<path d="M15.8327 2.5H4.16602C2.9875 2.5 2.39825 2.5 2.03213 2.8435C1.66602 3.187 1.66602 3.73985 1.66602 4.84555V5.4204C1.66602 6.28527 1.66602 6.7177 1.88235 7.07618C2.09868 7.43466 2.49391 7.65715 3.28436 8.10212L5.71189 9.46865C6.24223 9.7672 6.50741 9.91648 6.69728 10.0813C7.09267 10.4246 7.33608 10.8279 7.44638 11.3226C7.49935 11.5602 7.49935 11.8382 7.49935 12.3941L7.49935 14.6187C7.49935 15.3766 7.49935 15.7556 7.70929 16.0511C7.91922 16.3465 8.29209 16.4923 9.03781 16.7838C10.6033 17.3958 11.3861 17.7018 11.9427 17.3537C12.4993 17.0055 12.4993 16.2099 12.4993 14.6187V12.3941C12.4993 11.8382 12.4993 11.5602 12.5523 11.3226C12.6626 10.8279 12.906 10.4246 13.3014 10.0813C13.4913 9.91648 13.7565 9.7672 14.2868 9.46865L16.7143 8.10212C17.5048 7.65715 17.9 7.43466 18.1164 7.07618C18.3327 6.7177 18.3327 6.28527 18.3327 5.4204V4.84555C18.3327 3.73985 18.3327 3.187 17.9666 2.8435C17.6004 2.5 17.0112 2.5 15.8327 2.5Z" stroke="#C4C4C4" stroke-width="1.5"/>
</svg>
