<svg width="16" height="14" viewBox="0 0 16 14" fill="none" xmlns="http://www.w3.org/2000/svg">
<path d="M1.7207 7.00033C1.7207 4.25047 1.7207 2.87554 2.61002 2.02126C3.49934 1.16699 4.93068 1.16699 7.79335 1.16699C10.656 1.16699 12.0874 1.16699 12.9767 2.02126C13.866 2.87554 13.866 4.25047 13.866 7.00033C13.866 9.75019 13.866 11.1251 12.9767 11.9794C12.0874 12.8337 10.656 12.8337 7.79335 12.8337C4.93068 12.8337 3.49934 12.8337 2.61002 11.9794C1.7207 11.1251 1.7207 9.75019 1.7207 7.00033Z" stroke="#C4C4C4" stroke-width="0.625"/>
<path d="M4.75586 8.16634L5.84705 6.90852C6.27945 6.41009 6.49565 6.16087 6.78008 6.16087C7.0645 6.16087 7.2807 6.41009 7.7131 6.90852L7.87127 7.09083C8.30367 7.58926 8.51987 7.83848 8.80429 7.83848C9.08872 7.83848 9.30492 7.58926 9.73732 7.09083L10.8285 5.83301" stroke="#C4C4C4" stroke-width="0.625" stroke-linecap="round"/>
</svg>
