<svg width="14" height="14" viewBox="0 0 14 14" fill="none" xmlns="http://www.w3.org/2000/svg">
<path d="M4.03516 7.99935L5.12635 6.74153C5.55875 6.24309 5.77495 5.99388 6.05937 5.99388C6.3438 5.99388 6.56 6.24309 6.9924 6.74153L7.15056 6.92384C7.58296 7.42227 7.79916 7.67149 8.08359 7.67149C8.36802 7.67149 8.58422 7.42227 9.01662 6.92384L10.1078 5.66602" stroke="#C4C4C4" stroke-linecap="round"/>
<path d="M1 6.83333C1 4.08347 1 2.70854 1.88932 1.85427C2.77864 1 4.20998 1 7.07265 1C9.93533 1 11.3667 1 12.256 1.85427C13.1453 2.70854 13.1453 4.08347 13.1453 6.83333C13.1453 9.58319 13.1453 10.9581 12.256 11.8124C11.3667 12.6667 9.93533 12.6667 7.07265 12.6667C4.20998 12.6667 2.77864 12.6667 1.88932 11.8124C1 10.9581 1 9.58319 1 6.83333Z" stroke="#C4C4C4"/>
</svg>
