<svg width="16" height="16" viewBox="0 0 16 16" fill="none" xmlns="http://www.w3.org/2000/svg">
<g clip-path="url(#clip0_1782_8405)">
<path opacity="0.5" d="M13.0418 4.66659C13.1942 3.79674 12.5249 2.99992 11.6418 2.99992H4.35923C3.47614 2.99992 2.8068 3.79674 2.95921 4.66659M11.6673 2.99992C11.6862 2.8272 11.6957 2.74082 11.6958 2.66948C11.6973 1.98707 11.1833 1.41368 10.5047 1.34086C10.4338 1.33325 10.3469 1.33325 10.1732 1.33325H5.82798C5.65421 1.33325 5.56733 1.33325 5.4964 1.34086C4.81788 1.41368 4.30386 1.98707 4.30534 2.66948C4.3055 2.74082 4.31496 2.82719 4.33387 2.99992" stroke="#808191"/>
<path d="M9.72015 9.07721C10.0924 9.30798 10.0924 9.9054 9.72015 10.1362L7.47244 11.5296C7.11064 11.7539 6.66602 11.462 6.66602 11.0001L6.66602 8.21327C6.66602 7.75143 7.11064 7.45949 7.47244 7.68378L9.72015 9.07721Z" stroke="#808191"/>
<path d="M1.58966 9.1954C1.29231 7.08637 1.14363 6.03185 1.77553 5.3493C2.40743 4.66675 3.53237 4.66675 5.78225 4.66675H10.2191C12.4689 4.66675 13.5939 4.66675 14.2258 5.3493C14.8577 6.03185 14.709 7.08637 14.4116 9.1954L14.1297 11.1954C13.8965 12.8493 13.7799 13.6763 13.1818 14.1715C12.5836 14.6667 11.7014 14.6667 9.93708 14.6667H6.06423C4.29986 14.6667 3.41767 14.6667 2.81954 14.1715C2.22142 13.6763 2.10482 12.8493 1.87164 11.1954L1.58966 9.1954Z" stroke="#808191"/>
</g>
<defs>
<clipPath id="clip0_1782_8405">
<rect width="16" height="16" fill="white"/>
</clipPath>
</defs>
</svg>

