<svg width="35" height="35" viewBox="0 0 35 35" fill="none" xmlns="http://www.w3.org/2000/svg">
<path d="M8.88346 34.6859C6.86645 34.5941 5.77075 34.2585 5.04197 33.9742C4.07631 33.5982 3.38784 33.1507 2.66309 32.4269C1.93834 31.7032 1.48978 31.0147 1.11581 30.0491C0.831555 29.3203 0.495891 28.2246 0.404163 26.2076C0.303363 24.0273 0.283203 23.3731 0.283203 17.8492C0.283203 12.3254 0.305379 11.6722 0.403155 9.4899C0.494883 7.47289 0.832563 6.37921 1.1148 5.64842C1.49079 4.68275 1.93935 3.99429 2.66208 3.26853C3.38583 2.54478 4.07429 2.09522 5.04096 1.72125C5.76975 1.43699 6.86544 1.10133 8.88245 1.0096C11.0638 0.909808 11.719 0.889648 17.2408 0.889648C22.7646 0.889648 23.4178 0.911824 25.6001 1.0096C27.6171 1.10133 28.7108 1.43901 29.4416 1.72125C30.4073 2.09522 31.0957 2.54478 31.8205 3.26853C32.5452 3.99227 32.9918 4.68174 33.3678 5.64741C33.652 6.37619 33.9877 7.47189 34.0794 9.48889C34.1792 11.6712 34.1994 12.3244 34.1994 17.8482C34.1994 23.3701 34.1792 24.0253 34.0794 26.2076C33.9877 28.2246 33.65 29.3203 33.3678 30.0491C32.9918 31.0147 32.5442 31.7032 31.8205 32.4269C31.0967 33.1507 30.4073 33.5982 29.4416 33.9742C28.7128 34.2585 27.6171 34.5941 25.6001 34.6859C23.4198 34.7857 22.7646 34.8058 17.2408 34.8058C11.719 34.8058 11.0638 34.7867 8.88346 34.6859Z" fill="url(#paint0_radial_1985_3558)"/>
<path d="M8.88346 34.6859C6.86645 34.5941 5.77075 34.2585 5.04197 33.9742C4.07631 33.5982 3.38784 33.1507 2.66309 32.4269C1.93834 31.7032 1.48978 31.0147 1.11581 30.0491C0.831555 29.3203 0.495891 28.2246 0.404163 26.2076C0.303363 24.0273 0.283203 23.3731 0.283203 17.8492C0.283203 12.3254 0.305379 11.6722 0.403155 9.4899C0.494883 7.47289 0.832563 6.37921 1.1148 5.64842C1.49079 4.68275 1.93935 3.99429 2.66208 3.26853C3.38583 2.54478 4.07429 2.09522 5.04096 1.72125C5.76975 1.43699 6.86544 1.10133 8.88245 1.0096C11.0638 0.909808 11.719 0.889648 17.2408 0.889648C22.7646 0.889648 23.4178 0.911824 25.6001 1.0096C27.6171 1.10133 28.7108 1.43901 29.4416 1.72125C30.4073 2.09522 31.0957 2.54478 31.8205 3.26853C32.5452 3.99227 32.9918 4.68174 33.3678 5.64741C33.652 6.37619 33.9877 7.47189 34.0794 9.48889C34.1792 11.6712 34.1994 12.3244 34.1994 17.8482C34.1994 23.3701 34.1792 24.0253 34.0794 26.2076C33.9877 28.2246 33.65 29.3203 33.3678 30.0491C32.9918 31.0147 32.5442 31.7032 31.8205 32.4269C31.0967 33.1507 30.4073 33.5982 29.4416 33.9742C28.7128 34.2585 27.6171 34.5941 25.6001 34.6859C23.4198 34.7857 22.7646 34.8058 17.2408 34.8058C11.719 34.8058 11.0638 34.7867 8.88346 34.6859Z" fill="url(#paint1_radial_1985_3558)"/>
<path d="M13.0745 17.9193C13.0745 15.5998 14.9543 13.719 17.2738 13.719C19.5933 13.719 21.4742 15.5998 21.4742 17.9193C21.4742 20.2388 19.5933 22.1197 17.2738 22.1197C14.9543 22.1197 13.0745 20.2388 13.0745 17.9193ZM10.8039 17.9193C10.8039 21.4927 13.7005 24.3893 17.2738 24.3893C20.8472 24.3893 23.7438 21.4927 23.7438 17.9193C23.7438 14.346 20.8472 11.4494 17.2738 11.4494C13.7005 11.4494 10.804 14.3458 10.804 17.9193M22.488 11.1929C22.4879 11.4919 22.5764 11.7843 22.7425 12.033C22.9085 12.2817 23.1446 12.4756 23.4208 12.5901C23.6971 12.7047 24.0011 12.7347 24.2944 12.6765C24.5877 12.6183 24.8572 12.4744 25.0687 12.263C25.2803 12.0517 25.4244 11.7823 25.4828 11.489C25.5413 11.1957 25.5115 10.8917 25.3971 10.6154C25.2828 10.3391 25.0891 10.1028 24.8405 9.93661C24.5919 9.77037 24.2997 9.68157 24.0006 9.68146H24C23.5992 9.68164 23.2148 9.84092 22.9313 10.1243C22.6478 10.4077 22.4884 10.792 22.488 11.1929ZM12.1834 28.1755C10.955 28.1196 10.2873 27.915 9.84356 27.7421C9.25529 27.5131 8.83556 27.2403 8.39425 26.7996C7.95295 26.3589 7.67978 25.9396 7.45177 25.3513C7.2788 24.9078 7.07418 24.2399 7.01833 23.0114C6.95725 21.6833 6.94505 21.2843 6.94505 17.9195C6.94505 14.5547 6.95826 14.1569 7.01833 12.8276C7.07428 11.5992 7.28041 10.9326 7.45177 10.4878C7.68079 9.89949 7.95356 9.47975 8.39425 9.03845C8.83495 8.59715 9.25428 8.32398 9.84356 8.09597C10.2871 7.923 10.955 7.71838 12.1834 7.66253C13.5116 7.60145 13.9105 7.58925 17.2738 7.58925C20.6371 7.58925 21.0365 7.60225 22.3657 7.66273C23.5942 7.71868 24.2608 7.92481 24.7056 8.09617C25.2939 8.32418 25.7136 8.59796 26.1549 9.03865C26.5962 9.47935 26.8684 9.89969 27.0974 10.488C27.2704 10.9315 27.475 11.5994 27.5308 12.8278C27.5919 14.1571 27.6041 14.5549 27.6041 17.9197C27.6041 21.2845 27.5919 21.6824 27.5308 23.0116C27.4749 24.2401 27.2692 24.9078 27.0974 25.3515C26.8684 25.9398 26.5956 26.3595 26.1549 26.7998C25.7142 27.2401 25.2939 27.5133 24.7056 27.7423C24.2621 27.9153 23.5942 28.1199 22.3657 28.1757C21.0376 28.2368 20.6386 28.249 17.2738 28.249C13.909 28.249 13.5112 28.2368 12.1834 28.1757M12.0791 5.39564C10.7378 5.45673 9.82118 5.66941 9.02073 5.98089C8.19225 6.30254 7.48998 6.73406 6.78871 7.43422C6.08745 8.13438 5.65703 8.83675 5.33538 9.66623C5.02391 10.4672 4.81122 11.3833 4.75013 12.7246C4.68804 14.0681 4.67383 14.4976 4.67383 17.9193C4.67383 21.3411 4.68804 21.7706 4.75013 23.1141C4.81122 24.4555 5.02391 25.3715 5.33538 26.1724C5.65703 27.0009 6.08755 27.7046 6.78871 28.4044C7.48988 29.1043 8.19124 29.5352 9.02073 29.8578C9.82269 30.1693 10.7378 30.3819 12.0791 30.443C13.4233 30.5041 13.8521 30.5193 17.2738 30.5193C20.6956 30.5193 21.1251 30.5051 22.4686 30.443C23.81 30.3819 24.726 30.1693 25.5269 29.8578C26.3554 29.5352 27.0577 29.1046 27.7589 28.4044C28.4602 27.7043 28.8897 27.0009 29.2123 26.1724C29.5237 25.3715 29.7374 24.4554 29.7975 23.1141C29.8586 21.7696 29.8728 21.3411 29.8728 17.9193C29.8728 14.4976 29.8586 14.0681 29.7975 12.7246C29.7364 11.3832 29.5237 10.4667 29.2123 9.66623C28.8897 8.83776 28.4591 8.13549 27.7589 7.43422C27.0588 6.73296 26.3554 6.30254 25.5279 5.98089C24.726 5.66941 23.8099 5.45572 22.4696 5.39564C21.1259 5.33425 20.6966 5.31934 17.2753 5.31934C13.8541 5.31934 13.4238 5.33355 12.0796 5.39564" fill="white"/>
<defs>
<radialGradient id="paint0_radial_1985_3558" cx="0" cy="0" r="1" gradientUnits="userSpaceOnUse" gradientTransform="translate(2.47822 34.0628) scale(43.0609)">
<stop offset="0.09" stop-color="#FA8F21"/>
<stop offset="0.78" stop-color="#D82D7E"/>
</radialGradient>
<radialGradient id="paint1_radial_1985_3558" cx="0" cy="0" r="1" gradientUnits="userSpaceOnUse" gradientTransform="translate(23.7757 32.9738) scale(37.894)">
<stop offset="0.64" stop-color="#8C3AAA" stop-opacity="0"/>
<stop offset="1" stop-color="#8C3AAA"/>
</radialGradient>
</defs>
</svg>
