<svg width="16" height="14" viewBox="0 0 16 14" fill="none" xmlns="http://www.w3.org/2000/svg">
<path fill-rule="evenodd" clip-rule="evenodd" d="M9.48336 1.5295C10.5938 0.462822 12.3942 0.462822 13.5046 1.5295C14.6151 2.59619 14.6151 4.32562 13.5046 5.3923L7.74453 10.9254C7.41545 11.2415 7.22172 11.4276 7.00621 11.5891C6.75219 11.7794 6.47734 11.9426 6.18653 12.0757C5.9398 12.1887 5.67988 12.2719 5.23833 12.4133L3.21546 13.061L2.72838 13.2169C2.33332 13.3434 1.89776 13.2447 1.6033 12.9618C1.30883 12.679 1.20601 12.2606 1.3377 11.8811L2.17434 9.47005C2.32151 9.04589 2.40814 8.79621 2.52573 8.5592C2.66432 8.27985 2.83419 8.01583 3.03232 7.77182C3.20042 7.5648 3.39416 7.37871 3.72328 7.06258L9.48336 1.5295ZM3.19444 12.1454L4.92 11.5929C5.40042 11.439 5.60453 11.3729 5.79464 11.2859C6.02573 11.1801 6.24414 11.0504 6.44599 10.8992C6.61205 10.7747 6.76493 10.629 7.12301 10.285L11.7197 5.86946C11.2408 5.7072 10.6238 5.40644 10.0462 4.85162C9.46863 4.2968 9.15554 3.70414 8.98662 3.2441L4.38995 7.65963C4.03186 8.0036 3.88009 8.15045 3.75057 8.30997C3.59313 8.50387 3.45815 8.71366 3.34802 8.93564C3.25742 9.11826 3.18855 9.31434 3.02841 9.77582L2.45322 11.4334L3.19444 12.1454ZM9.72549 2.53435C9.74625 2.63641 9.78136 2.77515 9.83993 2.93734C9.97181 3.30247 10.2209 3.78201 10.6903 4.2329C11.1597 4.6838 11.6589 4.9231 12.039 5.04978C12.2079 5.10604 12.3523 5.13976 12.4586 5.15971L12.8605 4.77358C13.6152 4.04861 13.6152 2.8732 12.8605 2.14822C12.1058 1.42325 10.8822 1.42325 10.1275 2.14822L9.72549 2.53435Z" fill="#C4C4C4"/>
</svg>
