<svg width="17" height="18" viewBox="0 0 17 18" fill="none" xmlns="http://www.w3.org/2000/svg">
<path d="M8.75 7.75464C8.75 7.40947 8.47017 7.12964 8.125 7.12964C7.77983 7.12964 7.5 7.40947 7.5 7.75464V9.42131C7.5 9.76647 7.77983 10.0463 8.125 10.0463C8.47017 10.0463 8.75 9.76647 8.75 9.42131V7.75464Z" fill="#BC3636"/>
<path fill-rule="evenodd" clip-rule="evenodd" d="M9.56225 0.277296L11.5904 0.615321C12.5536 0.77583 13.3338 0.905863 13.9443 1.08758C14.5799 1.27683 15.1051 1.54195 15.5094 2.01927C15.9137 2.49659 16.089 3.05823 16.1712 3.71636C16.25 4.34831 16.25 5.13935 16.25 6.11576V11.0603C16.25 12.0367 16.25 12.8278 16.1712 13.4597C16.089 14.1179 15.9137 14.6795 15.5094 15.1568C15.1051 15.6341 14.5799 15.8992 13.9443 16.0885C13.3338 16.2702 12.5536 16.4002 11.5905 16.5607L9.56225 16.8988C8.70125 17.0423 7.98942 17.161 7.42083 17.1747C6.8245 17.1891 6.27166 17.0933 5.81039 16.7026C5.42103 16.3727 5.22821 15.9439 5.12713 15.4631H4.74693C3.80292 15.4631 3.03145 15.4631 2.42241 15.3812C1.78578 15.2956 1.23383 15.1104 0.793259 14.6698C0.352676 14.2292 0.167442 13.6773 0.0818506 13.0406C-3.27677e-05 12.4316 -1.61912e-05 11.6601 4.75455e-07 10.7161V6.45997C-1.61912e-05 5.51595 -3.27677e-05 4.7445 0.0818506 4.13545C0.167442 3.49883 0.352676 2.94688 0.793259 2.5063C1.23383 2.06572 1.78578 1.88049 2.42241 1.7949C3.03146 1.71301 3.8029 1.71303 4.74693 1.71305H5.12713C5.2282 1.23218 5.42103 0.803396 5.81039 0.473555C6.27166 0.0828047 6.8245 -0.0130369 7.42083 0.00136308C7.98942 0.0151047 8.70133 0.13378 9.56225 0.277296ZM5 13.034C4.99999 13.464 4.99998 13.8573 5.00953 14.2131H4.79167C3.79191 14.2131 3.10496 14.2117 2.58897 14.1424C2.09095 14.0754 1.84676 13.9556 1.67714 13.7859C1.50753 13.6163 1.38766 13.3721 1.3207 12.8741C1.25133 12.3581 1.25 11.6711 1.25 10.6714V6.50471C1.25 5.50495 1.25133 4.818 1.3207 4.30201C1.38766 3.804 1.50753 3.5598 1.67714 3.39019C1.84676 3.22057 2.09095 3.1007 2.58897 3.03375C3.10496 2.96438 3.79191 2.96305 4.79167 2.96305H5.00953C4.99998 3.3188 4.99999 3.71213 5 4.14214V13.034ZM7.39067 1.251C6.93875 1.24008 6.7465 1.3188 6.61833 1.42733C6.49025 1.53585 6.38099 1.71255 6.31748 2.1601C6.25149 2.62495 6.25 3.25719 6.25 4.18958V12.9865C6.25 13.9189 6.25149 14.5511 6.31748 15.016C6.38099 15.4636 6.49025 15.6402 6.61833 15.7487C6.7465 15.8573 6.93875 15.936 7.39067 15.9251C7.86 15.9137 8.48392 15.8113 9.40358 15.658L11.3443 15.3346C12.3578 15.1656 13.0607 15.0473 13.5876 14.8905C14.0977 14.7386 14.3676 14.5709 14.5557 14.3488C14.7438 14.1268 14.8648 13.8331 14.9307 13.3049C14.9988 12.7594 15 12.0466 15 11.0191V6.15701C15 5.1295 14.9988 4.41671 14.9307 3.87123C14.8648 3.34305 14.7438 3.04928 14.5557 2.82724C14.3676 2.6052 14.0977 2.4375 13.5876 2.28561C13.0607 2.12876 12.3578 2.01045 11.3443 1.84154L9.40358 1.51809C8.48392 1.36481 7.86 1.26234 7.39067 1.251Z" fill="#BC3636"/>
</svg>
