<svg width="16" height="16" viewBox="0 0 16 16" fill="none" xmlns="http://www.w3.org/2000/svg">
<g clip-path="url(#clip0_2218_3283)">
<path fill-rule="evenodd" clip-rule="evenodd" d="M7.66732 1.83325C4.44566 1.83325 1.83398 4.44493 1.83398 7.66658C1.83398 10.8883 4.44566 13.4999 7.66732 13.4999C10.889 13.4999 13.5007 10.8883 13.5007 7.66658C13.5007 4.44493 10.889 1.83325 7.66732 1.83325ZM0.833984 7.66658C0.833984 3.89264 3.89337 0.833252 7.66732 0.833252C11.4413 0.833252 14.5007 3.89264 14.5007 7.66658C14.5007 9.37358 13.8747 10.9344 12.8399 12.1321L15.0209 14.3131C15.2161 14.5083 15.2161 14.8249 15.0209 15.0201C14.8256 15.2154 14.5091 15.2154 14.3138 15.0201L12.1328 12.8392C10.9351 13.874 9.37432 14.4999 7.66732 14.4999C3.89337 14.4999 0.833984 11.4405 0.833984 7.66658Z" fill="white"/>
</g>
<defs>
<clipPath id="clip0_2218_3283">
<rect width="16" height="16" fill="white"/>
</clipPath>
</defs>
</svg>
