<svg width="20" height="20" viewBox="0 0 20 20" fill="none" xmlns="http://www.w3.org/2000/svg">
    <g clip-path="url(#clip0_4323_3687)">
        <path fill-rule="evenodd" clip-rule="evenodd" d="M9.5349 1.39535C5.03955 1.39535 1.39535 5.03955 1.39535 9.5349C1.39535 14.0302 5.03955 17.6744 9.5349 17.6744C14.0302 17.6744 17.6744 14.0302 17.6744 9.5349C17.6744 5.03955 14.0302 1.39535 9.5349 1.39535ZM0 9.5349C0 4.26892 4.26892 0 9.5349 0C14.8009 0 19.0698 4.26892 19.0698 9.5349C19.0698 11.9168 18.1964 14.0946 16.7525 15.7658L19.7957 18.809C20.0681 19.0815 20.0681 19.5232 19.7957 19.7957C19.5232 20.0681 19.0815 20.0681 18.809 19.7957L15.7658 16.7525C14.0946 18.1964 11.9168 19.0698 9.5349 19.0698C4.26892 19.0698 0 14.8009 0 9.5349Z" fill="white"/>
    </g>
    <defs>
        <clipPath id="clip0_4323_3687">
            <rect width="20" height="20" fill="white"/>
        </clipPath>
    </defs>
</svg>