<svg width="16" height="16" viewBox="0 0 16 16" fill="none" xmlns="http://www.w3.org/2000/svg">
<path d="M10.667 5.99967C10.667 6.36786 10.3686 6.66634 10.0004 6.66634C9.63218 6.66634 9.3337 6.36786 9.3337 5.99967C9.3337 5.63148 9.63218 5.33301 10.0004 5.33301C10.3686 5.33301 10.667 5.63148 10.667 5.99967Z" fill="#808191"/>
<path d="M6.66703 5.99967C6.66703 6.36786 6.36856 6.66634 6.00037 6.66634C5.63218 6.66634 5.3337 6.36786 5.3337 5.99967C5.3337 5.63148 5.63218 5.33301 6.00037 5.33301C6.36856 5.33301 6.66703 5.63148 6.66703 5.99967Z" fill="#808191"/>
<path fill-rule="evenodd" clip-rule="evenodd" d="M8.00037 1.83301C7.17194 1.83301 6.50037 2.50458 6.50037 3.33301V3.50266C6.7787 3.49967 7.07917 3.49967 7.40386 3.49967H8.59687C8.92157 3.49967 9.22204 3.49967 9.50037 3.50266V3.33301C9.50037 2.50458 8.82879 1.83301 8.00037 1.83301ZM10.5004 3.53763V3.33301C10.5004 1.9523 9.38108 0.833008 8.00037 0.833008C6.61966 0.833008 5.50037 1.9523 5.50037 3.33301V3.53763C5.41037 3.5442 5.32352 3.5519 5.23968 3.56094C4.65411 3.62405 4.16442 3.75627 3.72956 4.05432C3.57999 4.15683 3.43951 4.272 3.30965 4.39856C2.9321 4.76652 2.70642 5.22078 2.52969 5.7826C2.35811 6.32806 2.21944 7.02145 2.04519 7.89273L2.03247 7.95632C1.78138 9.21175 1.58351 10.201 1.52668 10.989C1.46862 11.7941 1.54976 12.4714 1.93112 13.0583C2.05836 13.2541 2.20687 13.4353 2.37395 13.5985C2.87471 14.0875 3.52294 14.2999 4.32378 14.4009C5.10757 14.4997 6.11644 14.4997 7.39673 14.4997H8.60401C9.88429 14.4997 10.8932 14.4997 11.677 14.4009C12.4778 14.2999 13.126 14.0875 13.6268 13.5985C13.7939 13.4353 13.9424 13.2541 14.0696 13.0583C14.451 12.4714 14.5321 11.7941 14.4741 10.989C14.4172 10.201 14.2194 9.21178 13.9683 7.95638L13.9556 7.89276C13.7813 7.02146 13.6426 6.32807 13.471 5.7826C13.2943 5.22078 13.0686 4.76652 12.6911 4.39856C12.5612 4.272 12.4207 4.15683 12.2712 4.05432C11.8363 3.75627 11.3466 3.62405 10.7611 3.56094C10.6772 3.5519 10.5904 3.5442 10.5004 3.53763ZM5.34684 4.55518C4.84904 4.60883 4.5415 4.71016 4.29491 4.87917C4.19258 4.94931 4.09646 5.02811 4.00761 5.1147C3.79352 5.32336 3.63385 5.60505 3.48361 6.08267C3.33008 6.57075 3.2013 7.21117 3.02011 8.11715C2.76041 9.41563 2.57586 10.3432 2.52409 11.0609C2.47303 11.7689 2.55925 12.1896 2.76966 12.5135C2.85672 12.6475 2.95834 12.7714 3.07265 12.8831C3.34895 13.1529 3.74463 13.32 4.44885 13.4087C5.16278 13.4987 6.10853 13.4997 7.43272 13.4997H8.56802C9.89221 13.4997 10.838 13.4987 11.5519 13.4087C12.2561 13.32 12.6518 13.1529 12.9281 12.8831C13.0424 12.7714 13.144 12.6475 13.2311 12.5135C13.4415 12.1896 13.5277 11.7689 13.4766 11.0609C13.4249 10.3432 13.2403 9.41563 12.9806 8.11715C12.7994 7.21117 12.6707 6.57075 12.5171 6.08267C12.3669 5.60505 12.2072 5.32336 11.9931 5.1147C11.9043 5.02811 11.8082 4.94931 11.7058 4.87917C11.4592 4.71016 11.1517 4.60883 10.6539 4.55518C10.1452 4.50035 9.49193 4.49967 8.56802 4.49967H7.43272C6.5088 4.49967 5.85556 4.50035 5.34684 4.55518Z" fill="#808191"/>
</svg>
