<svg width="22" height="23" viewBox="0 0 22 23" fill="none" xmlns="http://www.w3.org/2000/svg">
<circle cx="8.2513" cy="8.74984" r="1.83333" stroke="#C4C4C4" stroke-width="1.5"/>
<path d="M11.9154 14.2498C11.9154 15.2624 11.9154 16.0832 8.2487 16.0832C4.58203 16.0832 4.58203 15.2624 4.58203 14.2498C4.58203 13.2373 6.22365 12.4165 8.2487 12.4165C10.2737 12.4165 11.9154 13.2373 11.9154 14.2498Z" stroke="#C4C4C4" stroke-width="1.5"/>
<path d="M1.83203 11.4998C1.83203 8.04287 1.83203 6.31439 2.90597 5.24045C3.97991 4.1665 5.7084 4.1665 9.16536 4.1665H12.832C16.289 4.1665 18.0175 4.1665 19.0914 5.24045C20.1654 6.31439 20.1654 8.04287 20.1654 11.4998C20.1654 14.9568 20.1654 16.6853 19.0914 17.7592C18.0175 18.8332 16.289 18.8332 12.832 18.8332H9.16536C5.7084 18.8332 3.97991 18.8332 2.90597 17.7592C1.83203 16.6853 1.83203 14.9568 1.83203 11.4998Z" stroke="#C4C4C4" stroke-width="1.5"/>
<path d="M17.418 11.5H13.7513" stroke="#C4C4C4" stroke-width="1.5" stroke-linecap="round"/>
<path d="M17.418 8.75H12.8346" stroke="#C4C4C4" stroke-width="1.5" stroke-linecap="round"/>
<path d="M17.418 14.25H14.668" stroke="#C4C4C4" stroke-width="1.5" stroke-linecap="round"/>
</svg>
