<svg width="16" height="16" viewBox="0 0 16 16" fill="none" xmlns="http://www.w3.org/2000/svg">
<path d="M5.97514 12.9181L5.66008 13.3064L5.97514 12.9181ZM8.00065 3.7151L7.63543 4.05659C7.72998 4.15771 7.86222 4.2151 8.00065 4.2151C8.13909 4.2151 8.27133 4.15771 8.36587 4.05659L8.00065 3.7151ZM10.0262 12.9181L10.3412 13.3064L10.0262 12.9181ZM8.00066 13.999L8.00066 13.499L8.00066 13.999ZM6.2902 12.5299C5.32361 11.7455 4.19509 10.717 3.31246 9.59129C2.42019 8.45329 1.83398 7.28494 1.83398 6.21069H0.833984C0.833984 7.62261 1.58759 9.01209 2.52551 10.2083C3.47307 11.4168 4.66513 12.499 5.66008 13.3064L6.2902 12.5299ZM1.83398 6.21069C1.83398 4.27428 2.67909 3.07723 3.72466 2.66782C4.76793 2.25931 6.22758 2.55088 7.63543 4.05659L8.36587 3.37362C6.77383 1.67091 4.90015 1.13361 3.36005 1.73666C1.82226 2.33881 0.833984 3.99375 0.833984 6.21069H1.83398ZM10.3412 13.3064C11.3362 12.499 12.5282 11.4169 13.4758 10.2083C14.4137 9.0121 15.1673 7.62262 15.1673 6.21067H14.1673C14.1673 7.28495 13.5811 8.45331 12.6888 9.59131C11.8062 10.717 10.6777 11.7455 9.71111 12.5299L10.3412 13.3064ZM15.1673 6.21067C15.1673 3.99374 14.179 2.3388 12.6412 1.73665C11.1012 1.13361 9.22747 1.67091 7.63543 3.37362L8.36587 4.05659C9.77373 2.55088 11.2334 2.25931 12.2766 2.66781C13.3222 3.07722 14.1673 4.27427 14.1673 6.21067H15.1673ZM5.66008 13.3064C6.5077 13.9942 7.09552 14.499 8.00065 14.499L8.00066 13.499C7.51874 13.499 7.21856 13.2832 6.2902 12.5299L5.66008 13.3064ZM9.71111 12.5299C8.78275 13.2832 8.48257 13.499 8.00066 13.499L8.00065 14.499C8.90578 14.499 9.4936 13.9942 10.3412 13.3064L9.71111 12.5299Z" fill="#808191"/>
<path d="M12.3327 5.99912H10.9993M10.9993 5.99912L9.66602 5.99912M10.9993 5.99912L10.9993 4.66577M10.9993 5.99912L10.9993 7.33244" stroke="#808191" stroke-linecap="round"/>
</svg>
