<svg width="22" height="21" viewBox="0 0 22 21" fill="none" xmlns="http://www.w3.org/2000/svg">
<path fill-rule="evenodd" clip-rule="evenodd" d="M17.899 1.63083C16.6803 1.83896 15.0372 2.36262 12.7313 3.10051L7.51124 4.77094C5.65704 5.36428 4.31404 5.79468 3.36545 6.182C2.37372 6.58693 2.02092 6.86919 1.90634 7.0584C1.55342 7.64118 1.55342 8.36095 1.90634 8.94374C2.02092 9.13295 2.37372 9.4152 3.36545 9.82014C4.31404 10.2075 5.65704 10.6379 7.51124 11.2312C7.54052 11.2406 7.56942 11.2498 7.59798 11.2589C8.10441 11.4206 8.49811 11.5464 8.8368 11.764C9.16309 11.9737 9.44339 12.2428 9.66183 12.5561C9.88856 12.8812 10.0195 13.2592 10.188 13.7453C10.1975 13.7727 10.2071 13.8005 10.2169 13.8286C10.8349 15.6086 11.2833 16.8979 11.6867 17.8085C12.1085 18.7606 12.4025 19.0993 12.5996 19.2093C13.2067 19.5481 13.9564 19.5481 14.5635 19.2093C14.7606 19.0993 15.0546 18.7606 15.4764 17.8085C15.8799 16.8979 16.3282 15.6086 16.9463 13.8286L18.6863 8.81732C19.455 6.60363 20.0004 5.02627 20.2172 3.85629C20.4351 2.68074 20.2686 2.1814 19.9562 1.88146C19.6437 1.58152 19.1236 1.42171 17.899 1.63083ZM17.6187 0.117969C18.9752 -0.11368 20.1968 -0.0605873 21.088 0.79491C21.9791 1.65041 22.0344 2.82322 21.7931 4.12542C21.5533 5.41975 20.9684 7.10415 20.2279 9.23669L18.452 14.3515C17.8494 16.0869 17.3812 17.4354 16.9494 18.41C16.5329 19.35 16.0704 20.1457 15.368 20.5377C14.2636 21.1541 12.8996 21.1541 11.7951 20.5377C11.0927 20.1457 10.6303 19.35 10.2138 18.41C9.78197 17.4354 9.31377 16.0869 8.7112 14.3515L8.69835 14.3145C8.48725 13.7065 8.4229 13.5416 8.33173 13.4109C8.2297 13.2646 8.09877 13.1389 7.94636 13.0409C7.81018 12.9534 7.63839 12.8916 7.00507 12.689L6.96649 12.6766C5.15879 12.0982 3.75417 11.6487 2.73898 11.2342C1.75973 10.8343 0.93092 10.3904 0.522554 9.71603C-0.119498 8.65579 -0.119497 7.34634 0.522555 6.28611C0.930921 5.61177 1.75973 5.16781 2.73898 4.76797C3.75419 4.35345 5.15882 3.90397 6.96655 3.3255L12.2945 1.62057C14.5159 0.909699 16.2704 0.348219 17.6187 0.117969ZM17.4167 4.32532C17.7276 4.62702 17.7247 5.11348 17.4105 5.41185L13.1421 9.46432C12.8278 9.76269 12.3211 9.75999 12.0103 9.45829C11.6995 9.15659 11.7023 8.67014 12.0166 8.37176L16.2849 4.3193C16.5992 4.02092 17.1059 4.02362 17.4167 4.32532Z" fill="#C4C4C4"/>
</svg>
