<svg width="20" height="20" viewBox="0 0 20 20" fill="none" xmlns="http://www.w3.org/2000/svg">
<path d="M7.50065 9.99984C7.50065 11.1504 6.56791 12.0832 5.41732 12.0832C4.26672 12.0832 3.33398 11.1504 3.33398 9.99984C3.33398 8.84924 4.26672 7.9165 5.41732 7.9165C6.56791 7.9165 7.50065 8.84924 7.50065 9.99984Z" stroke="white" stroke-width="1.31687"/>
<path d="M11.6667 5.4165L7.5 8.33317" stroke="white" stroke-width="1.31687" stroke-linecap="round"/>
<path d="M11.6667 14.5835L7.5 11.6668" stroke="white" stroke-width="1.31687" stroke-linecap="round"/>
<path d="M15.8327 15.4168C15.8327 16.5674 14.8999 17.5002 13.7493 17.5002C12.5988 17.5002 11.666 16.5674 11.666 15.4168C11.666 14.2662 12.5988 13.3335 13.7493 13.3335C14.8999 13.3335 15.8327 14.2662 15.8327 15.4168Z" stroke="white" stroke-width="1.31687"/>
<path d="M15.8327 4.58333C15.8327 5.73393 14.8999 6.66667 13.7493 6.66667C12.5988 6.66667 11.666 5.73393 11.666 4.58333C11.666 3.43274 12.5988 2.5 13.7493 2.5C14.8999 2.5 15.8327 3.43274 15.8327 4.58333Z" stroke="white" stroke-width="1.31687"/>
</svg>
