<svg width="12" height="12" viewBox="0 0 12 12" fill="none" xmlns="http://www.w3.org/2000/svg">
<path fill-rule="evenodd" clip-rule="evenodd" d="M1.5 5.20833C1.5 3.60954 1.5 2.81014 1.68876 2.5412C1.87752 2.27227 2.62916 2.01498 4.13246 1.5004L4.41886 1.40236C5.20249 1.13412 5.59431 1 6 1C6.40569 1 6.79751 1.13412 7.58114 1.40236L7.86754 1.5004C9.37084 2.01498 10.1225 2.27227 10.3112 2.5412C10.5 2.81014 10.5 3.60954 10.5 5.20833V5.99568C10.5 8.81472 8.38052 10.1827 7.05072 10.7636C6.68999 10.9212 6.50963 11 6 11C5.49037 11 5.31001 10.9212 4.94928 10.7636C3.61948 10.1827 1.5 8.81472 1.5 5.99568V5.20833ZM6 3.625C6.20711 3.625 6.375 3.79289 6.375 4V6C6.375 6.20711 6.20711 6.375 6 6.375C5.79289 6.375 5.625 6.20711 5.625 6V4C5.625 3.79289 5.79289 3.625 6 3.625ZM6 8C6.27614 8 6.5 7.77614 6.5 7.5C6.5 7.22386 6.27614 7 6 7C5.72386 7 5.5 7.22386 5.5 7.5C5.5 7.77614 5.72386 8 6 8Z" fill="#C4C4C4"/>
</svg>
