<svg width="18" height="19" viewBox="0 0 18 19" fill="none" xmlns="http://www.w3.org/2000/svg">
<path fill-rule="evenodd" clip-rule="evenodd" d="M8.95695 1.4375H9.04305C10.7744 1.43749 12.1311 1.43749 13.1897 1.57981C14.2732 1.72549 15.1283 2.0295 15.7994 2.7006C16.3943 3.29547 16.7015 4.03584 16.8649 4.95423C17.0254 5.85641 17.0548 6.97883 17.0609 8.37252C17.0623 8.68317 16.8116 8.93615 16.5009 8.9375C16.1902 8.93885 15.9374 8.68812 15.9359 8.37747C15.9338 7.89696 15.9288 7.46052 15.9174 7.0625H10.1334C10.1275 7.0626 10.1215 7.0626 10.1156 7.0625H5.25842C5.25245 7.0626 5.24649 7.0626 5.24053 7.0625H2.08254C2.06284 7.7538 2.0625 8.55665 2.0625 9.5C2.0625 11.2836 2.06369 12.5648 2.19478 13.5398C2.32369 14.4986 2.56886 15.0766 2.9961 15.5039C3.35946 15.8673 3.83019 16.0974 4.54634 16.2377C5.27819 16.381 6.2229 16.4227 7.5048 16.4336C7.81545 16.4362 8.06512 16.6902 8.0625 17.0008C8.05988 17.3115 7.80585 17.5612 7.49523 17.5586C6.21725 17.5477 5.17645 17.5075 4.33009 17.3417C3.46803 17.1729 2.76786 16.8666 2.20061 16.2994C1.5295 15.6283 1.22549 14.7732 1.07981 13.6897C0.937485 12.6311 0.937493 11.2743 0.9375 9.54305V9.45695C0.937493 7.72567 0.937485 6.36889 1.07981 5.31028C1.22549 4.22673 1.5295 3.37171 2.20061 2.7006C2.87171 2.0295 3.72673 1.72549 4.81028 1.57981C5.86889 1.43749 7.22567 1.43749 8.95695 1.4375ZM2.14261 5.9375H4.94122L7.08329 2.57139C6.23768 2.58436 5.54404 2.61628 4.96019 2.69478C4.00138 2.82369 3.42334 3.06886 2.9961 3.4961C2.56886 3.92334 2.32369 4.50138 2.19478 5.46019C2.17441 5.61165 2.15718 5.77051 2.14261 5.9375ZM8.4054 2.56274C8.39145 2.60201 8.37285 2.64034 8.34952 2.67699L6.27469 5.9375H9.81623L11.9392 2.60143C11.1418 2.56302 10.181 2.5625 9 2.5625C8.79525 2.5625 8.59718 2.56252 8.4054 2.56274ZM13.1987 2.71773L11.1497 5.9375H15.8574C15.8325 5.65137 15.7999 5.39059 15.7573 5.1513C15.6191 4.37486 15.3841 3.87634 15.0039 3.4961C14.6008 3.09298 14.0634 2.85195 13.1987 2.71773ZM13.8366 10.241C14.5746 9.503 15.7711 9.503 16.509 10.241C17.247 10.9789 17.247 12.1754 16.509 12.9134L13.2976 16.1247C13.1245 16.2979 13.004 16.4184 12.8689 16.5239C12.71 16.6478 12.5381 16.7541 12.3562 16.8408C12.2014 16.9145 12.0398 16.9683 11.8075 17.0457L10.399 17.5152C10.0682 17.6255 9.70358 17.5394 9.45712 17.2929C9.2106 17.0464 9.1245 16.6818 9.23475 16.351L9.70425 14.9425C9.78165 14.7102 9.8355 14.5485 9.90923 14.3938C9.99592 14.2119 10.1022 14.04 10.2261 13.8811C10.3315 13.746 10.452 13.6254 10.6252 13.4523L13.8366 10.241ZM15.7136 11.0364C15.4149 10.7379 14.9307 10.7379 14.6321 11.0364L14.5333 11.1352C14.5372 11.1474 14.5414 11.16 14.5458 11.1729C14.6072 11.3496 14.7236 11.5838 14.945 11.805C15.1662 12.0264 15.4004 12.1428 15.5771 12.2042C15.59 12.2086 15.6026 12.2128 15.6148 12.2167L15.7136 12.1179C16.0121 11.8193 16.0121 11.3351 15.7136 11.0364ZM14.7643 13.0672C14.5645 12.9551 14.3529 12.804 14.1494 12.6006C13.946 12.3971 13.7949 12.1855 13.6828 11.9857L11.4433 14.2252C11.2392 14.4294 11.1708 14.4991 11.1132 14.573C11.0395 14.6674 10.9763 14.7696 10.9248 14.8778C10.8845 14.9623 10.8527 15.0547 10.7614 15.3286L10.5022 16.1063L10.6437 16.2478L11.4214 15.9886C11.6953 15.8973 11.7877 15.8655 11.8722 15.8252C11.9804 15.7737 12.0826 15.7105 12.177 15.6368C12.2509 15.5792 12.3206 15.5108 12.5248 15.3066L14.7643 13.0672Z" fill="white"/>
<path fill-rule="evenodd" clip-rule="evenodd" d="M8.95695 1.4375H9.04305C10.7744 1.43749 12.1311 1.43749 13.1897 1.57981C14.2732 1.72549 15.1283 2.0295 15.7994 2.7006C16.3943 3.29547 16.7015 4.03584 16.8649 4.95423C17.0254 5.85641 17.0548 6.97883 17.0609 8.37252C17.0623 8.68317 16.8116 8.93615 16.5009 8.9375C16.1902 8.93885 15.9374 8.68812 15.9359 8.37747C15.9338 7.89696 15.9288 7.46052 15.9174 7.0625H10.1334C10.1275 7.0626 10.1215 7.0626 10.1156 7.0625H5.25842C5.25245 7.0626 5.24649 7.0626 5.24053 7.0625H2.08254C2.06284 7.7538 2.0625 8.55665 2.0625 9.5C2.0625 11.2836 2.06369 12.5648 2.19478 13.5398C2.32369 14.4986 2.56886 15.0766 2.9961 15.5039C3.35946 15.8673 3.83019 16.0974 4.54634 16.2377C5.27819 16.381 6.2229 16.4227 7.5048 16.4336C7.81545 16.4362 8.06512 16.6902 8.0625 17.0008C8.05988 17.3115 7.80585 17.5612 7.49523 17.5586C6.21725 17.5477 5.17645 17.5075 4.33009 17.3417C3.46803 17.1729 2.76786 16.8666 2.20061 16.2994C1.5295 15.6283 1.22549 14.7732 1.07981 13.6897C0.937485 12.6311 0.937493 11.2743 0.9375 9.54305V9.45695C0.937493 7.72567 0.937485 6.36889 1.07981 5.31028C1.22549 4.22673 1.5295 3.37171 2.20061 2.7006C2.87171 2.0295 3.72673 1.72549 4.81028 1.57981C5.86889 1.43749 7.22567 1.43749 8.95695 1.4375ZM2.14261 5.9375H4.94122L7.08329 2.57139C6.23768 2.58436 5.54404 2.61628 4.96019 2.69478C4.00138 2.82369 3.42334 3.06886 2.9961 3.4961C2.56886 3.92334 2.32369 4.50138 2.19478 5.46019C2.17441 5.61165 2.15718 5.77051 2.14261 5.9375ZM8.4054 2.56274C8.39145 2.60201 8.37285 2.64034 8.34952 2.67699L6.27469 5.9375H9.81623L11.9392 2.60143C11.1418 2.56302 10.181 2.5625 9 2.5625C8.79525 2.5625 8.59718 2.56252 8.4054 2.56274ZM13.1987 2.71773L11.1497 5.9375H15.8574C15.8325 5.65137 15.7999 5.39059 15.7573 5.1513C15.6191 4.37486 15.3841 3.87634 15.0039 3.4961C14.6008 3.09298 14.0634 2.85195 13.1987 2.71773ZM13.8366 10.241C14.5746 9.503 15.7711 9.503 16.509 10.241C17.247 10.9789 17.247 12.1754 16.509 12.9134L13.2976 16.1247C13.1245 16.2979 13.004 16.4184 12.8689 16.5239C12.71 16.6478 12.5381 16.7541 12.3562 16.8408C12.2014 16.9145 12.0398 16.9683 11.8075 17.0457L10.399 17.5152C10.0682 17.6255 9.70358 17.5394 9.45712 17.2929C9.2106 17.0464 9.1245 16.6818 9.23475 16.351L9.70425 14.9425C9.78165 14.7102 9.8355 14.5485 9.90923 14.3938C9.99592 14.2119 10.1022 14.04 10.2261 13.8811C10.3315 13.746 10.452 13.6254 10.6252 13.4523L13.8366 10.241ZM15.7136 11.0364C15.4149 10.7379 14.9307 10.7379 14.6321 11.0364L14.5333 11.1352C14.5372 11.1474 14.5414 11.16 14.5458 11.1729C14.6072 11.3496 14.7236 11.5838 14.945 11.805C15.1662 12.0264 15.4004 12.1428 15.5771 12.2042C15.59 12.2086 15.6026 12.2128 15.6148 12.2167L15.7136 12.1179C16.0121 11.8193 16.0121 11.3351 15.7136 11.0364ZM14.7643 13.0672C14.5645 12.9551 14.3529 12.804 14.1494 12.6006C13.946 12.3971 13.7949 12.1855 13.6828 11.9857L11.4433 14.2252C11.2392 14.4294 11.1708 14.4991 11.1132 14.573C11.0395 14.6674 10.9763 14.7696 10.9248 14.8778C10.8845 14.9623 10.8527 15.0547 10.7614 15.3286L10.5022 16.1063L10.6437 16.2478L11.4214 15.9886C11.6953 15.8973 11.7877 15.8655 11.8722 15.8252C11.9804 15.7737 12.0826 15.7105 12.177 15.6368C12.2509 15.5792 12.3206 15.5108 12.5248 15.3066L14.7643 13.0672Z" fill="white"/>
</svg>
