<svg width="18" height="18" viewBox="0 0 18 18" fill="none" xmlns="http://www.w3.org/2000/svg">
<g clip-path="url(#clip0_2228_3291)">
<path fill-rule="evenodd" clip-rule="evenodd" d="M8.95695 0.9375H9.04305C10.7743 0.937493 12.1311 0.937485 13.1897 1.07981C14.2732 1.22549 15.1283 1.5295 15.7994 2.2006C16.3943 2.79547 16.7015 3.53584 16.8649 4.45423C17.0254 5.35641 17.0549 6.47883 17.0609 7.87252C17.0623 8.18317 16.8115 8.43615 16.5009 8.4375C16.1902 8.43885 15.9374 8.18812 15.9359 7.87747C15.9338 7.39696 15.9288 6.96052 15.9174 6.5625H10.1334C10.1275 6.5626 10.1215 6.5626 10.1156 6.5625H5.25841C5.25245 6.5626 5.24649 6.5626 5.24053 6.5625H2.08254C2.06284 7.2538 2.0625 8.05665 2.0625 9C2.0625 10.7836 2.06369 12.0648 2.19478 13.0398C2.32369 13.9986 2.56886 14.5766 2.9961 15.0039C3.35946 15.3673 3.83019 15.5974 4.54634 15.7377C5.27819 15.881 6.2229 15.9227 7.5048 15.9336C7.81545 15.9362 8.06513 16.1902 8.0625 16.5008C8.05987 16.8115 7.80585 17.0612 7.49523 17.0586C6.21725 17.0477 5.17645 17.0075 4.33009 16.8417C3.46803 16.6729 2.76786 16.3666 2.20061 15.7994C1.5295 15.1283 1.22549 14.2732 1.07981 13.1897C0.937485 12.1311 0.937493 10.7743 0.9375 9.04305V8.95695C0.937493 7.22567 0.937485 5.86889 1.07981 4.81028C1.22549 3.72673 1.5295 2.87171 2.20061 2.2006C2.87171 1.5295 3.72673 1.22549 4.81028 1.07981C5.86889 0.937485 7.22567 0.937493 8.95695 0.9375ZM2.14261 5.4375H4.94122L7.08329 2.07139C6.23768 2.08436 5.54404 2.11628 4.96019 2.19478C4.00138 2.32369 3.42334 2.56886 2.9961 2.9961C2.56886 3.42334 2.32369 4.00138 2.19478 4.96018C2.17442 5.11165 2.15718 5.27051 2.14261 5.4375ZM8.4054 2.06274C8.39145 2.10201 8.37285 2.14034 8.34952 2.17699L6.27469 5.4375H9.81622L11.9392 2.10143C11.1418 2.06302 10.181 2.0625 9 2.0625C8.79525 2.0625 8.59718 2.06251 8.4054 2.06274ZM13.1986 2.21773L11.1497 5.4375H15.8574C15.8325 5.15137 15.7999 4.89059 15.7573 4.6513C15.6191 3.87486 15.3841 3.37634 15.0039 2.9961C14.6008 2.59298 14.0634 2.35195 13.1986 2.21773ZM13.8366 9.741C14.5746 9.003 15.7711 9.003 16.509 9.741C17.247 10.4789 17.247 11.6754 16.509 12.4134L13.2976 15.6247C13.1245 15.7979 13.004 15.9184 12.8689 16.0239C12.71 16.1478 12.5381 16.2541 12.3562 16.3408C12.2014 16.4145 12.0398 16.4683 11.8075 16.5457L10.399 17.0152C10.0682 17.1255 9.70357 17.0394 9.45712 16.7929C9.2106 16.5464 9.1245 16.1818 9.23475 15.851L9.70425 14.4425C9.78165 14.2102 9.8355 14.0485 9.90923 13.8938C9.99593 13.7119 10.1022 13.54 10.2261 13.3811C10.3315 13.246 10.452 13.1254 10.6252 12.9523L13.8366 9.741ZM15.7136 10.5364C15.4149 10.2379 14.9307 10.2379 14.6321 10.5364L14.5333 10.6352C14.5372 10.6474 14.5414 10.66 14.5458 10.6729C14.6071 10.8496 14.7236 11.0838 14.9449 11.305C15.1662 11.5264 15.4004 11.6428 15.5771 11.7042C15.59 11.7086 15.6026 11.7128 15.6148 11.7167L15.7136 11.6179C16.0121 11.3193 16.0121 10.8351 15.7136 10.5364ZM14.7643 12.5671C14.5645 12.4551 14.3529 12.304 14.1494 12.1006C13.946 11.8971 13.7949 11.6855 13.6828 11.4857L11.4434 13.7252C11.2392 13.9294 11.1708 13.9991 11.1132 14.073C11.0395 14.1674 10.9763 14.2696 10.9248 14.3778C10.8845 14.4623 10.8527 14.5547 10.7614 14.8286L10.5022 15.6063L10.6437 15.7478L11.4214 15.4886C11.6953 15.3973 11.7877 15.3655 11.8722 15.3252C11.9804 15.2737 12.0826 15.2105 12.177 15.1368C12.2509 15.0792 12.3206 15.0108 12.5248 14.8066L14.7643 12.5671Z" fill="#660BAD"/>
<path fill-rule="evenodd" clip-rule="evenodd" d="M8.95695 0.9375H9.04305C10.7743 0.937493 12.1311 0.937485 13.1897 1.07981C14.2732 1.22549 15.1283 1.5295 15.7994 2.2006C16.3943 2.79547 16.7015 3.53584 16.8649 4.45423C17.0254 5.35641 17.0549 6.47883 17.0609 7.87252C17.0623 8.18317 16.8115 8.43615 16.5009 8.4375C16.1902 8.43885 15.9374 8.18812 15.9359 7.87747C15.9338 7.39696 15.9288 6.96052 15.9174 6.5625H10.1334C10.1275 6.5626 10.1215 6.5626 10.1156 6.5625H5.25841C5.25245 6.5626 5.24649 6.5626 5.24053 6.5625H2.08254C2.06284 7.2538 2.0625 8.05665 2.0625 9C2.0625 10.7836 2.06369 12.0648 2.19478 13.0398C2.32369 13.9986 2.56886 14.5766 2.9961 15.0039C3.35946 15.3673 3.83019 15.5974 4.54634 15.7377C5.27819 15.881 6.2229 15.9227 7.5048 15.9336C7.81545 15.9362 8.06513 16.1902 8.0625 16.5008C8.05987 16.8115 7.80585 17.0612 7.49523 17.0586C6.21725 17.0477 5.17645 17.0075 4.33009 16.8417C3.46803 16.6729 2.76786 16.3666 2.20061 15.7994C1.5295 15.1283 1.22549 14.2732 1.07981 13.1897C0.937485 12.1311 0.937493 10.7743 0.9375 9.04305V8.95695C0.937493 7.22567 0.937485 5.86889 1.07981 4.81028C1.22549 3.72673 1.5295 2.87171 2.20061 2.2006C2.87171 1.5295 3.72673 1.22549 4.81028 1.07981C5.86889 0.937485 7.22567 0.937493 8.95695 0.9375ZM2.14261 5.4375H4.94122L7.08329 2.07139C6.23768 2.08436 5.54404 2.11628 4.96019 2.19478C4.00138 2.32369 3.42334 2.56886 2.9961 2.9961C2.56886 3.42334 2.32369 4.00138 2.19478 4.96018C2.17442 5.11165 2.15718 5.27051 2.14261 5.4375ZM8.4054 2.06274C8.39145 2.10201 8.37285 2.14034 8.34952 2.17699L6.27469 5.4375H9.81622L11.9392 2.10143C11.1418 2.06302 10.181 2.0625 9 2.0625C8.79525 2.0625 8.59718 2.06251 8.4054 2.06274ZM13.1986 2.21773L11.1497 5.4375H15.8574C15.8325 5.15137 15.7999 4.89059 15.7573 4.6513C15.6191 3.87486 15.3841 3.37634 15.0039 2.9961C14.6008 2.59298 14.0634 2.35195 13.1986 2.21773ZM13.8366 9.741C14.5746 9.003 15.7711 9.003 16.509 9.741C17.247 10.4789 17.247 11.6754 16.509 12.4134L13.2976 15.6247C13.1245 15.7979 13.004 15.9184 12.8689 16.0239C12.71 16.1478 12.5381 16.2541 12.3562 16.3408C12.2014 16.4145 12.0398 16.4683 11.8075 16.5457L10.399 17.0152C10.0682 17.1255 9.70357 17.0394 9.45712 16.7929C9.2106 16.5464 9.1245 16.1818 9.23475 15.851L9.70425 14.4425C9.78165 14.2102 9.8355 14.0485 9.90923 13.8938C9.99593 13.7119 10.1022 13.54 10.2261 13.3811C10.3315 13.246 10.452 13.1254 10.6252 12.9523L13.8366 9.741ZM15.7136 10.5364C15.4149 10.2379 14.9307 10.2379 14.6321 10.5364L14.5333 10.6352C14.5372 10.6474 14.5414 10.66 14.5458 10.6729C14.6071 10.8496 14.7236 11.0838 14.9449 11.305C15.1662 11.5264 15.4004 11.6428 15.5771 11.7042C15.59 11.7086 15.6026 11.7128 15.6148 11.7167L15.7136 11.6179C16.0121 11.3193 16.0121 10.8351 15.7136 10.5364ZM14.7643 12.5671C14.5645 12.4551 14.3529 12.304 14.1494 12.1006C13.946 11.8971 13.7949 11.6855 13.6828 11.4857L11.4434 13.7252C11.2392 13.9294 11.1708 13.9991 11.1132 14.073C11.0395 14.1674 10.9763 14.2696 10.9248 14.3778C10.8845 14.4623 10.8527 14.5547 10.7614 14.8286L10.5022 15.6063L10.6437 15.7478L11.4214 15.4886C11.6953 15.3973 11.7877 15.3655 11.8722 15.3252C11.9804 15.2737 12.0826 15.2105 12.177 15.1368C12.2509 15.0792 12.3206 15.0108 12.5248 14.8066L14.7643 12.5671Z" fill="#660BAD"/>
</g>
<defs>
<clipPath id="clip0_2228_3291">
<rect width="18" height="18" fill="white"/>
</clipPath>
</defs>
</svg>
