<svg width="16" height="16" viewBox="0 0 16 16" fill="none" xmlns="http://www.w3.org/2000/svg">
<g clip-path="url(#clip0_1782_8415)">
<path d="M5.99935 0.66626V2.66626M9.99935 0.66626V2.66626M5.99935 13.3329V15.3329M9.99935 13.3329V15.3329M13.3327 5.99959H15.3327M13.3327 9.33293H15.3327M0.666016 5.99959H2.66602M0.666016 9.33293H2.66602M3.99935 2.66626H11.9993C12.7357 2.66626 13.3327 3.26321 13.3327 3.99959V11.9996C13.3327 12.736 12.7357 13.3329 11.9993 13.3329H3.99935C3.26297 13.3329 2.66602 12.736 2.66602 11.9996V3.99959C2.66602 3.26321 3.26297 2.66626 3.99935 2.66626ZM5.99935 5.99959H9.99935V9.99959H5.99935V5.99959Z" stroke="#808191" stroke-width="1.2549" stroke-linecap="round" stroke-linejoin="round"/>
</g>
<defs>
<clipPath id="clip0_1782_8415">
<rect width="16" height="16" fill="white" transform="translate(0 -0.000488281)"/>
</clipPath>
</defs>
</svg>
