<svg width="35" height="35" viewBox="0 0 35 35" fill="none" xmlns="http://www.w3.org/2000/svg">
<path d="M34.8537 17.8477C34.8537 27.2171 27.2649 34.8058 17.8956 34.8058C8.52624 34.8058 0.9375 27.2171 0.9375 17.8477C0.9375 8.47839 8.52624 0.889648 17.8956 0.889648C27.2649 0.889648 34.8537 8.47839 34.8537 17.8477Z" fill="url(#paint0_linear_1985_3553)"/>
<path d="M14.7884 25.6198C14.2373 25.6198 14.3362 25.4078 14.1384 24.885L12.5273 19.5714L22.5326 13.3252L23.7055 13.6361L22.7305 16.2929L14.7884 25.6198Z" fill="#C8DAEA"/>
<path d="M14.7891 25.6196C15.213 25.6196 15.3967 25.4218 15.637 25.1957C16.0044 24.8424 20.7244 20.2496 20.7244 20.2496L17.8274 19.543L15.1424 21.2388L14.7891 25.4783V25.6196Z" fill="#A9C9DD"/>
<path d="M15.0711 21.2956L21.9109 26.3406C22.6881 26.7646 23.2534 26.5526 23.4512 25.6199L26.2352 12.5057C26.5178 11.361 25.7971 10.8522 25.0481 11.1914L8.71182 17.4942C7.59541 17.9464 7.60955 18.5682 8.51398 18.8367L12.7111 20.1509L22.4196 14.0319C22.8718 13.7492 23.2958 13.9047 22.9566 14.2156L15.0711 21.2956Z" fill="url(#paint1_linear_1985_3553)"/>
<defs>
<linearGradient id="paint0_linear_1985_3553" x1="22.8657" y1="6.24982" x2="14.3867" y2="26.034" gradientUnits="userSpaceOnUse">
<stop stop-color="#37AEE2"/>
<stop offset="1" stop-color="#1E96C8"/>
</linearGradient>
<linearGradient id="paint1_linear_1985_3553" x1="19.168" y1="18.3781" x2="22.701" y2="24.0308" gradientUnits="userSpaceOnUse">
<stop stop-color="#EFF7FC"/>
<stop offset="1" stop-color="white"/>
</linearGradient>
</defs>
</svg>
