<svg width="35" height="35" viewBox="0 0 35 35" fill="none" xmlns="http://www.w3.org/2000/svg">
<path d="M34.9149 26.3104C34.9149 26.4961 34.9092 26.8989 34.8981 27.21C34.8708 27.9712 34.8104 28.9534 34.7192 29.401C34.582 30.0735 34.375 30.7083 34.105 31.2367C33.7856 31.8618 33.3783 32.4216 32.8942 32.9048C32.4111 33.3871 31.8518 33.7929 31.2277 34.111C30.6965 34.3817 30.0577 34.5888 29.3813 34.7254C28.9382 34.8148 27.9634 34.874 27.207 34.9009C26.8956 34.912 26.4928 34.9176 26.3078 34.9176L9.60715 34.9149C9.42144 34.9149 9.01876 34.9092 8.70765 34.8981C7.94642 34.8708 6.96418 34.8104 6.51661 34.7192C5.84405 34.582 5.20921 34.375 4.68086 34.1051C4.0558 33.7857 3.49595 33.3783 3.01275 32.8942C2.5305 32.4111 2.1247 31.8518 1.80664 31.2277C1.5359 30.6965 1.32876 30.0578 1.1922 29.3814C1.10278 28.9383 1.04359 27.9634 1.01666 27.207C1.0056 26.8957 1 26.4928 1 26.3079L1.00265 9.60719C1.00265 9.42148 1.00831 9.01876 1.01948 8.70765C1.0468 7.94642 1.10711 6.96418 1.19836 6.51664C1.33552 5.84408 1.54253 5.20925 1.8125 4.68086C2.13189 4.05583 2.53931 3.49595 3.02338 3.01275C3.50642 2.53053 4.06577 2.1247 4.68987 1.8066C5.22104 1.53593 5.85985 1.32879 6.53622 1.19224C6.97928 1.10278 7.95421 1.04359 8.71056 1.01669C9.02197 1.0056 9.42482 1 9.60977 1L26.3104 1.00268C26.4961 1.00268 26.8988 1.00835 27.2099 1.01951C27.9712 1.04683 28.9534 1.10715 29.401 1.1984C30.0735 1.33555 30.7083 1.54256 31.2367 1.81253C31.8618 2.13192 32.4216 2.53934 32.9048 3.02341C33.387 3.50645 33.7929 4.06577 34.1109 4.68991C34.3817 5.22107 34.5888 5.85985 34.7254 6.53622C34.8148 6.97931 34.8739 7.9542 34.9009 8.71059C34.912 9.022 34.9176 9.42482 34.9176 9.60984L34.9149 26.3104V26.3104Z" fill="#2AA2D5"/>
<path d="M14.7884 25.6198C14.2373 25.6198 14.3362 25.4078 14.1384 24.885L12.5273 19.5714L22.5326 13.3252L23.7055 13.6361L22.7305 16.2929L14.7884 25.6198Z" fill="#C8DAEA"/>
<path d="M14.7891 25.6196C15.213 25.6196 15.3967 25.4218 15.637 25.1957C16.0044 24.8424 20.7244 20.2496 20.7244 20.2496L17.8274 19.543L15.1424 21.2388L14.7891 25.4783V25.6196Z" fill="#A9C9DD"/>
<path d="M15.0711 21.2956L21.9109 26.3406C22.6881 26.7646 23.2534 26.5526 23.4512 25.6199L26.2352 12.5057C26.5178 11.361 25.7971 10.8522 25.0481 11.1914L8.71182 17.4942C7.59541 17.9464 7.60955 18.5682 8.51398 18.8367L12.7111 20.1509L22.4196 14.0319C22.8718 13.7492 23.2958 13.9047 22.9566 14.2156L15.0711 21.2956Z" fill="url(#paint0_linear_1985_3553)"/>
<defs>
<linearGradient id="paint0_linear_1985_3553" x1="19.168" y1="18.3781" x2="22.701" y2="24.0308" gradientUnits="userSpaceOnUse">
<stop stop-color="#EFF7FC"/>
<stop offset="1" stop-color="white"/>
</linearGradient>
</defs>
</svg>