<svg width="23" height="14" viewBox="0 0 23 14" fill="none" xmlns="http://www.w3.org/2000/svg">
<path d="M7.33398 1.75C4.31368 1.75 1.86523 4.10051 1.86523 7C1.86523 9.8995 4.31368 12.25 7.33398 12.25H8.37565C8.80712 12.25 9.1569 12.5858 9.1569 13C9.1569 13.4142 8.80712 13.75 8.37565 13.75H7.33398C3.45073 13.75 0.302734 10.7279 0.302734 7C0.302734 3.27208 3.45073 0.25 7.33398 0.25H8.37565C8.80712 0.25 9.1569 0.585786 9.1569 1C9.1569 1.41421 8.80712 1.75 8.37565 1.75H7.33398Z" fill="#C4C4C4"/>
<path d="M7.5943 6.99995C7.5943 6.58573 7.94408 6.24995 8.37555 6.24995H14.6256C15.057 6.24995 15.4068 6.58573 15.4068 6.99995C15.4068 7.41416 15.057 7.74995 14.6256 7.74995H8.37555C7.94408 7.74995 7.5943 7.41416 7.5943 6.99995Z" fill="#C4C4C4"/>
<path d="M14.6257 0.25C14.1942 0.25 13.8444 0.585786 13.8444 1C13.8444 1.41421 14.1942 1.75 14.6257 1.75H15.6673C18.6876 1.75 21.1361 4.10051 21.1361 7C21.1361 9.8995 18.6876 12.25 15.6673 12.25H14.6257C14.1942 12.25 13.8444 12.5858 13.8444 13C13.8444 13.4142 14.1942 13.75 14.6257 13.75H15.6673C19.5506 13.75 22.6986 10.7279 22.6986 7C22.6986 3.27208 19.5506 0.25 15.6673 0.25H14.6257Z" fill="#C4C4C4"/>
</svg>
