<svg width="33" height="24" viewBox="0 0 33 24" fill="none" xmlns="http://www.w3.org/2000/svg">
<path d="M22.9251 9.00195C25.8499 9.01406 27.4339 9.11051 28.4672 9.8789C29.6488 10.7576 29.6488 12.1718 29.6488 15.0002V16.0002C29.6488 18.8286 29.6488 20.2429 28.4672 21.1215C27.2856 22.0002 25.3838 22.0002 21.5803 22.0002H10.8224C7.01886 22.0002 5.1171 22.0002 3.9355 21.1215C2.75391 20.2429 2.75391 18.8286 2.75391 16.0002L2.75391 15.0002C2.75391 12.1718 2.75391 10.7576 3.9355 9.87889C4.96878 9.11051 6.55277 9.01406 9.47762 9.00195" stroke="#C4C4C4" stroke-width="1.5" stroke-linecap="round"/>
<path d="M16.2022 15L16.2022 2M16.2022 2L20.2364 5.5M16.2022 2L12.168 5.5" stroke="#C4C4C4" stroke-width="1.5" stroke-linecap="round" stroke-linejoin="round"/>
</svg>
