<svg width="11" height="12" viewBox="0 0 11 12" fill="none" xmlns="http://www.w3.org/2000/svg">
<path d="M5.49995 4.62651C6.88854 4.62651 8.01422 3.59083 8.01422 2.31325C8.01422 1.03568 6.88854 0 5.49995 0C4.11136 0 2.98569 1.03568 2.98569 2.31325C2.98569 3.59083 4.11136 4.62651 5.49995 4.62651Z" fill="#C4C4C4"/>
<path d="M2.98573 5.92771C1.67138 5.92771 0.565084 6.83283 0.411513 8.03382L0.00327432 11.2264C-0.0271465 11.4643 0.157811 11.6799 0.416388 11.7079C0.674966 11.7359 0.909245 11.5657 0.939666 11.3278L1.3479 8.13518C1.42652 7.52034 1.8976 7.02737 2.51431 6.85823L2.51431 9.28308C2.51429 9.80269 2.51428 10.236 2.56454 10.5799C2.61759 10.943 2.7343 11.2708 3.02059 11.5342C3.30689 11.7976 3.66316 11.905 4.05777 11.9538C4.43162 12 4.90255 12 5.4673 12H5.53268C6.09743 12 6.56838 12 6.94223 11.9538C7.33684 11.905 7.69311 11.7976 7.97941 11.5342C8.2657 11.2708 8.38241 10.943 8.43546 10.5799C8.48572 10.236 8.48571 9.80269 8.48569 9.2831L8.48569 6.85823C9.1024 7.02737 9.57348 7.52034 9.6521 8.13518L10.0603 11.3278C10.0908 11.5657 10.325 11.7359 10.5836 11.7079C10.8422 11.6799 11.0271 11.4643 10.9967 11.2264L10.5885 8.03382C10.4349 6.83283 9.32862 5.92771 8.01427 5.92771H2.98573Z" fill="#C4C4C4"/>
</svg>
