<svg width="22" height="18" viewBox="0 0 22 18" fill="none" xmlns="http://www.w3.org/2000/svg">
<path fill-rule="evenodd" clip-rule="evenodd" d="M8.94337 0.250367H13.0562C14.894 0.250347 16.3496 0.250337 17.4888 0.403507C18.6612 0.561127 19.6102 0.893247 20.3586 1.64161C21.1069 2.38998 21.439 3.33893 21.5967 4.51135C21.7498 5.65056 21.7498 7.10617 21.7498 8.94397V9.05677C21.7498 10.8946 21.7498 12.3502 21.5967 13.4894C21.439 14.6618 21.1069 15.6108 20.3586 16.3592C19.6102 17.1075 18.6612 17.4396 17.4888 17.5973C16.3496 17.7504 14.894 17.7504 13.0562 17.7504H8.94338C7.10562 17.7504 5.64998 17.7504 4.51077 17.5973C3.33835 17.4396 2.3894 17.1075 1.64103 16.3592C0.892667 15.6108 0.560547 14.6618 0.402927 13.4894C0.249757 12.3502 0.249767 10.8946 0.249787 9.05677V8.94397C0.249767 7.10617 0.249757 5.65056 0.402927 4.51135C0.560547 3.33893 0.892667 2.38998 1.64103 1.64161C2.3894 0.893247 3.33835 0.561127 4.51077 0.403507C5.64998 0.250337 7.10561 0.250347 8.94337 0.250367ZM4.71064 1.89013C3.70455 2.02539 3.1249 2.27906 2.70169 2.70227C2.27848 3.12548 2.02481 3.70513 1.88955 4.71122C1.75138 5.73888 1.74979 7.09357 1.74979 9.00037C1.74979 10.9072 1.75138 12.2619 1.88955 13.2896C2.02481 14.2956 2.27848 14.8753 2.70169 15.2985C3.1249 15.7217 3.70455 15.9754 4.71064 16.1106C5.7383 16.2488 7.09297 16.2504 8.99979 16.2504H12.9998C14.9066 16.2504 16.2613 16.2488 17.289 16.1106C18.295 15.9754 18.8747 15.7217 19.2979 15.2985C19.7211 14.8753 19.9748 14.2956 20.11 13.2896C20.2482 12.2619 20.2498 10.9072 20.2498 9.00037C20.2498 7.09357 20.2482 5.73888 20.11 4.71122C19.9748 3.70513 19.7211 3.12548 19.2979 2.70227C18.8747 2.27906 18.295 2.02539 17.289 1.89013C16.2613 1.75196 14.9066 1.75037 12.9998 1.75037H8.99979C7.09297 1.75037 5.7383 1.75196 4.71064 1.89013ZM4.42362 4.52023C4.6888 4.20202 5.16172 4.15903 5.47993 4.4242L7.63882 6.22328C8.57178 7.00077 9.21949 7.53877 9.76639 7.89047C10.2957 8.23097 10.6547 8.34527 10.9998 8.34527C11.3449 8.34527 11.7039 8.23097 12.2332 7.89047C12.7801 7.53877 13.4278 7.00077 14.3608 6.22328L16.5197 4.4242C16.8379 4.15903 17.3108 4.20202 17.576 4.52023C17.8411 4.83844 17.7981 5.31136 17.4799 5.57654L15.2834 7.40697C14.3971 8.14557 13.6787 8.74427 13.0446 9.15207C12.3841 9.57687 11.7409 9.84527 10.9998 9.84527C10.2587 9.84527 9.61549 9.57687 8.95497 9.15207C8.32091 8.74427 7.60251 8.14557 6.71615 7.40697L4.51965 5.57654C4.20144 5.31136 4.15845 4.83844 4.42362 4.52023Z" fill="#666666"/>
</svg>
