<svg width="22" height="19" viewBox="0 0 22 19" fill="none" xmlns="http://www.w3.org/2000/svg">
<path fill-rule="evenodd" clip-rule="evenodd" d="M8.94358 0.625H13.0564C14.8942 0.62498 16.3498 0.624971 17.489 0.778141C18.6614 0.93576 19.6104 1.26788 20.3588 2.01624C21.1071 2.76461 21.4392 3.71356 21.5969 4.88598C21.75 6.02519 21.75 7.4808 21.75 9.3186V9.4314C21.75 11.2692 21.75 12.7248 21.5969 13.864C21.4392 15.0364 21.1071 15.9854 20.3588 16.7338C19.6104 17.4821 18.6614 17.8142 17.489 17.9719C16.3498 18.125 14.8942 18.125 13.0564 18.125H8.94359C7.10583 18.125 5.65019 18.125 4.51098 17.9719C3.33856 17.8142 2.38961 17.4821 1.64124 16.7338C0.89288 15.9854 0.56076 15.0364 0.40314 13.864C0.24997 12.7248 0.24998 11.2692 0.25 9.4314V9.3186C0.24998 7.4808 0.24997 6.02519 0.40314 4.88598C0.56076 3.71356 0.89288 2.76461 1.64124 2.01624C2.38961 1.26788 3.33856 0.93576 4.51098 0.778141C5.65019 0.624971 7.10582 0.62498 8.94358 0.625ZM4.71085 2.26476C3.70476 2.40002 3.12511 2.65369 2.7019 3.0769C2.27869 3.50011 2.02502 4.07976 1.88976 5.08585C1.75159 6.11351 1.75 7.4682 1.75 9.375C1.75 11.2818 1.75159 12.6365 1.88976 13.6642C2.02502 14.6702 2.27869 15.2499 2.7019 15.6731C3.12511 16.0963 3.70476 16.35 4.71085 16.4852C5.73851 16.6234 7.09318 16.625 9 16.625H13C14.9068 16.625 16.2615 16.6234 17.2892 16.4852C18.2952 16.35 18.8749 16.0963 19.2981 15.6731C19.7213 15.2499 19.975 14.6702 20.1102 13.6642C20.2484 12.6365 20.25 11.2818 20.25 9.375C20.25 7.4682 20.2484 6.11351 20.1102 5.08585C19.975 4.07976 19.7213 3.50011 19.2981 3.0769C18.8749 2.65369 18.2952 2.40002 17.2892 2.26476C16.2615 2.12659 14.9068 2.125 13 2.125H9C7.09318 2.125 5.73851 2.12659 4.71085 2.26476ZM4.42383 4.89486C4.68901 4.57665 5.16193 4.53366 5.48014 4.79883L7.63903 6.59791C8.57199 7.3754 9.2197 7.9134 9.7666 8.2651C10.2959 8.6056 10.6549 8.7199 11 8.7199C11.3451 8.7199 11.7041 8.6056 12.2334 8.2651C12.7803 7.9134 13.428 7.3754 14.361 6.59791L16.5199 4.79883C16.8381 4.53366 17.311 4.57665 17.5762 4.89486C17.8413 5.21307 17.7983 5.68599 17.4801 5.95117L15.2836 7.7816C14.3973 8.5202 13.6789 9.1189 13.0448 9.5267C12.3843 9.9515 11.7411 10.2199 11 10.2199C10.2589 10.2199 9.6157 9.9515 8.95518 9.5267C8.32112 9.1189 7.60272 8.5202 6.71636 7.7816L4.51986 5.95117C4.20165 5.68599 4.15866 5.21307 4.42383 4.89486Z" fill="#666666"/>
</svg>
