<svg width="27" height="26" viewBox="0 0 27 26" fill="none" xmlns="http://www.w3.org/2000/svg">
<path d="M11.2932 12.9049C11.2932 11.5685 12.3765 10.4852 13.7128 10.4852C15.0492 10.4852 16.1325 11.5685 16.1325 12.9049C16.1325 14.2412 15.0492 15.3245 13.7128 15.3245C12.3765 15.3245 11.2932 14.2412 11.2932 12.9049Z" fill="#C4C4C4"/>
<path fill-rule="evenodd" clip-rule="evenodd" d="M2.95898 12.9049C2.95898 14.6678 3.41599 15.2615 4.32999 16.449C6.15499 18.82 9.21571 21.5079 13.7128 21.5079C18.21 21.5079 21.2707 18.82 23.0957 16.449C24.0097 15.2615 24.4667 14.6678 24.4667 12.9049C24.4667 11.1419 24.0097 10.5482 23.0957 9.36073C21.2707 6.98975 18.21 4.30176 13.7128 4.30176C9.21571 4.30176 6.15499 6.98975 4.32999 9.36073C3.41599 10.5482 2.95898 11.1419 2.95898 12.9049ZM13.7128 8.87215C11.4857 8.87215 9.68015 10.6777 9.68015 12.9049C9.68015 15.132 11.4857 16.9375 13.7128 16.9375C15.94 16.9375 17.7455 15.132 17.7455 12.9049C17.7455 10.6777 15.94 8.87215 13.7128 8.87215Z" fill="#C4C4C4"/>
</svg>
