<svg width="23" height="22" viewBox="0 0 23 22" fill="none" xmlns="http://www.w3.org/2000/svg">
<path fill-rule="evenodd" clip-rule="evenodd" d="M8.59071 2.18191C8.32808 2.26179 8.06871 2.35257 7.81334 2.45411C6.64431 2.91897 5.58211 3.60032 4.68738 4.45926C3.79265 5.3182 3.08291 6.33792 2.59869 7.46018C2.2144 8.35082 1.97812 9.2922 1.89696 10.25H6.56413C6.59746 9.1541 6.70376 8.0741 6.88041 7.05057C7.09701 5.79558 7.41702 4.63914 7.829 3.65039C8.05393 3.11057 8.30805 2.61641 8.59071 2.18191ZM11.5007 0.25C10.0301 0.25 8.57399 0.528057 7.21539 1.06829C5.8568 1.60853 4.62235 2.40037 3.58253 3.3986C2.54271 4.39683 1.71787 5.5819 1.15513 6.88615C0.592377 8.1904 0.302734 9.58829 0.302734 11C0.302734 12.4117 0.592377 13.8096 1.15512 15.1138C1.71787 16.4181 2.5427 17.6032 3.58253 18.6014C4.62235 19.5996 5.8568 20.3915 7.21539 20.9317C8.57399 21.4719 10.0301 21.75 11.5007 21.75C12.9712 21.75 14.4273 21.4719 15.7859 20.9317C17.1445 20.3915 18.379 19.5996 19.4188 18.6014C20.4586 17.6032 21.2834 16.4181 21.8462 15.1138C22.4089 13.8096 22.6986 12.4117 22.6986 11C22.6986 9.58829 22.4089 8.1904 21.8462 6.88615C21.2834 5.5819 20.4586 4.39683 19.4188 3.3986C18.379 2.40037 17.1445 1.60853 15.7859 1.0683C14.4273 0.528057 12.9712 0.25 11.5007 0.25ZM11.5007 1.75C11.2285 1.75 10.8769 1.87579 10.4681 2.2822C10.0563 2.69161 9.644 3.33326 9.27975 4.20747C8.9179 5.07589 8.62409 6.12424 8.4219 7.29576C8.25967 8.23569 8.16019 9.23313 8.12733 10.25L14.874 10.25C14.8411 9.23313 14.7416 8.23569 14.5794 7.29576C14.3772 6.12424 14.0834 5.0759 13.7216 4.20748C13.3573 3.33326 12.945 2.69161 12.5332 2.2822C12.1244 1.87579 11.7728 1.75 11.5007 1.75ZM16.4372 10.25C16.4038 9.1541 16.2975 8.07411 16.1209 7.05057C15.9043 5.79558 15.5843 4.63914 15.1723 3.65039C14.9474 3.11057 14.6932 2.61641 14.4106 2.18191C14.6732 2.26179 14.9326 2.35257 15.188 2.45411C16.357 2.91897 17.4192 3.60032 18.3139 4.45926C19.2087 5.31821 19.9184 6.33792 20.4026 7.46018C20.7869 8.35082 21.0232 9.2922 21.1043 10.25H16.4372ZM14.874 11.75L8.12733 11.75C8.16019 12.7669 8.25967 13.7643 8.4219 14.7042C8.62409 15.8758 8.9179 16.9241 9.27974 17.7925C9.644 18.6667 10.0563 19.3084 10.4681 19.7178C10.8769 20.1242 11.2285 20.25 11.5007 20.25C11.7728 20.25 12.1244 20.1242 12.5332 19.7178C12.945 19.3084 13.3573 18.6667 13.7216 17.7925C14.0834 16.9241 14.3772 15.8758 14.5794 14.7042C14.7416 13.7643 14.8411 12.7669 14.874 11.75ZM14.4106 19.8181C14.6933 19.3836 14.9474 18.8894 15.1723 18.3496C15.5843 17.3609 15.9043 16.2044 16.1209 14.9494C16.2975 13.9259 16.4038 12.8459 16.4372 11.75H21.1043C21.0232 12.7078 20.7869 13.6492 20.4026 14.5398C19.9184 15.6621 19.2086 16.6818 18.3139 17.5407C17.4192 18.3997 16.357 19.081 15.188 19.5459C14.9326 19.6474 14.6732 19.7382 14.4106 19.8181ZM8.59071 19.8181C8.30805 19.3836 8.05393 18.8894 7.829 18.3496C7.41702 17.3609 7.09701 16.2044 6.88041 14.9494C6.70376 13.9259 6.59746 12.8459 6.56413 11.75H1.89696C1.97812 12.7078 2.2144 13.6492 2.59869 14.5398C3.08291 15.6621 3.79265 16.6818 4.68738 17.5407C5.58211 18.3997 6.64431 19.081 7.81334 19.5459C8.06871 19.6474 8.32808 19.7382 8.59071 19.8181Z" fill="#C4C4C4"/>
</svg>
