<svg width="25" height="25" viewBox="0 0 25 25" fill="none" xmlns="http://www.w3.org/2000/svg">
    <path opacity="0.5" d="M19.6838 8.51246C19.901 7.33492 18.9472 6.25623 17.6888 6.25623H7.31113C6.05271 6.25623 5.0989 7.33492 5.3161 8.51246M17.7251 6.25623C17.752 6.02242 17.7655 5.90548 17.7657 5.80891C17.7679 4.88509 17.0354 4.10888 16.0685 4.0103C15.9674 4 15.8436 4 15.596 4H9.40409C9.15647 4 9.03267 4 8.93159 4.0103C7.9647 4.10888 7.23222 4.88509 7.23433 5.80891C7.23455 5.90548 7.24803 6.0224 7.27499 6.25623" stroke="#808191" stroke-width="1.5"/>
    <path d="M14.9498 14.4834C15.4803 14.7958 15.4803 15.6045 14.9498 15.9169L11.7468 17.8033C11.2312 18.1069 10.5977 17.7117 10.5977 17.0865L10.5977 13.3138C10.5977 12.6886 11.2312 12.2934 11.7468 12.597L14.9498 14.4834Z" stroke="#808191" stroke-width="1.5"/>
    <path d="M3.36434 14.6431C2.94061 11.788 2.72875 10.3604 3.6292 9.43645C4.52966 8.51245 6.1327 8.51245 9.33877 8.51245H15.6612C18.8673 8.51245 20.4703 8.51245 21.3708 9.43645C22.2713 10.3604 22.0594 11.788 21.6357 14.6431L21.2338 17.3505C20.9016 19.5895 20.7354 20.709 19.8831 21.3794C19.0307 22.0498 17.7736 22.0498 15.2594 22.0498H9.7406C7.22637 22.0498 5.96925 22.0498 5.11692 21.3794C4.26459 20.709 4.09845 19.5895 3.76616 17.3505L3.36434 14.6431Z" stroke="#808191" stroke-width="1.5"/>
</svg>