<svg width="101" height="31" viewBox="0 0 101 31" fill="none" xmlns="http://www.w3.org/2000/svg">
<g clip-path="url(#clip0_2212_3273)">
<path d="M77.5 12.5L96.25 1.67468L96.25 23.3253L77.5 12.5Z" fill="url(#paint0_linear_2212_3273)"/>
<path d="M8.496 22L0 4.816H6.48L12 16.72H12.048L17.544 4.816H24.048L15.528 22H8.496ZM25.2469 22V4.816H31.5109V10.912H40.9909V4.816H47.2549V22H40.9909V15.16H31.5109V22H25.2469ZM59.7733 22.504C55.6453 22.504 51.2293 21.28 48.9253 19.504L51.0853 15.784C53.0773 17.368 56.7973 18.52 60.0853 18.52C62.5093 18.52 64.0453 17.944 64.0453 17.056C64.0453 16.312 62.9413 15.856 60.3253 15.568L57.1573 15.208C51.7333 14.632 49.4053 13.12 49.4053 10.072C49.4053 6.376 53.5813 4.288 59.7013 4.288C63.3253 4.288 66.7333 5.152 68.8453 6.52L67.0933 10.12C65.2213 8.872 62.3893 8.08 59.7493 8.104C57.3013 8.128 55.5013 8.704 55.4773 9.616C55.4773 10.264 56.4373 10.672 58.6453 10.888L61.8373 11.224C67.6453 11.824 70.1413 13.408 70.1413 16.528C70.1653 20.08 66.0853 22.504 59.7733 22.504Z" fill="white"/>
<rect x="-11.918" y="27" width="117.311" height="1" rx="0.5" fill="url(#paint1_linear_2212_3273)"/>
</g>
<defs>
<linearGradient id="paint0_linear_2212_3273" x1="90" y1="-5.46392e-07" x2="90" y2="25" gradientUnits="userSpaceOnUse">
<stop stop-color="#9747FF"/>
<stop offset="1" stop-color="#5C3FFF"/>
</linearGradient>
<linearGradient id="paint1_linear_2212_3273" x1="-11.918" y1="27.5" x2="105.393" y2="27.5" gradientUnits="userSpaceOnUse">
<stop offset="0.03" stop-color="#6C00C0"/>
<stop offset="1" stop-color="#5C3FFF"/>
</linearGradient>
<clipPath id="clip0_2212_3273">
<rect width="101" height="31" fill="white"/>
</clipPath>
</defs>
</svg>
