<svg width="34" height="35" viewBox="0 0 34 35" fill="none" xmlns="http://www.w3.org/2000/svg">
<path d="M33.9149 26.3104C33.9149 26.4961 33.9092 26.8989 33.8981 27.21C33.8708 27.9712 33.8104 28.9534 33.7192 29.401C33.582 30.0735 33.375 30.7083 33.105 31.2367C32.7856 31.8618 32.3783 32.4216 31.8942 32.9048C31.4111 33.3871 30.8518 33.7929 30.2277 34.111C29.6965 34.3817 29.0577 34.5888 28.3813 34.7254C27.9382 34.8148 26.9634 34.874 26.207 34.9009C25.8956 34.912 25.4928 34.9176 25.3078 34.9176L8.60715 34.9149C8.42144 34.9149 8.01876 34.9092 7.70765 34.8981C6.94642 34.8708 5.96418 34.8104 5.51661 34.7192C4.84405 34.582 4.20921 34.375 3.68086 34.1051C3.0558 33.7857 2.49595 33.3783 2.01275 32.8942C1.5305 32.4111 1.1247 31.8518 0.806635 31.2277C0.535902 30.6965 0.328762 30.0578 0.192203 29.3814C0.102775 28.9383 0.0435876 27.9634 0.01666 27.207C0.00559749 26.8957 0 26.4928 0 26.3079L0.0026497 9.60719C0.0026497 9.42148 0.00831344 9.01876 0.0194753 8.70765C0.0468003 7.94642 0.107114 6.96418 0.198363 6.51664C0.335518 5.84408 0.542526 5.20925 0.812498 4.68086C1.13189 4.05583 1.53931 3.49595 2.02338 3.01275C2.50642 2.53053 3.06577 2.1247 3.68987 1.8066C4.22104 1.53593 4.85985 1.32879 5.53622 1.19224C5.97928 1.10278 6.95421 1.04359 7.71056 1.01669C8.02197 1.0056 8.42482 1 8.60977 1L25.3104 1.00268C25.4961 1.00268 25.8988 1.00835 26.2099 1.01951C26.9712 1.04683 27.9534 1.10715 28.401 1.1984C29.0735 1.33555 29.7083 1.54256 30.2367 1.81253C30.8618 2.13192 31.4216 2.53934 31.9048 3.02341C32.387 3.50645 32.7929 4.06577 33.1109 4.68991C33.3817 5.22107 33.5888 5.85985 33.7254 6.53622C33.8148 6.97931 33.8739 7.9542 33.9009 8.71059C33.912 9.022 33.9176 9.42482 33.9176 9.60984L33.9149 26.3104V26.3104Z" fill="#009AFA"/>
<path d="M22.525 6.09375H18.7684C16.5391 6.09375 14.0595 7.03137 14.0595 10.2628C14.0704 11.3888 14.0595 12.4672 14.0595 13.6808H11.4805V17.7847H14.1393V29.5994H19.025V17.7068H22.2497L22.5415 13.6693H18.9408C18.9408 13.6693 18.9489 11.8732 18.9408 11.3516C18.9408 10.0746 20.2696 10.1477 20.3495 10.1477C20.9818 10.1477 22.2113 10.1496 22.5269 10.1477V6.09375H22.525Z" fill="white"/>
</svg>