<svg width="34" height="34" viewBox="0 0 34 34" fill="none" xmlns="http://www.w3.org/2000/svg">
<path fill-rule="evenodd" clip-rule="evenodd" d="M30.1511 33.92H3.76889C1.68752 33.92 0 32.2325 0 30.1511V3.76889C0 1.68752 1.68752 0 3.76889 0H30.1511C32.2325 0 33.92 1.68752 33.92 3.76889V30.1511C33.92 32.2325 32.2325 33.92 30.1511 33.92Z" fill="black"/>
<path fill-rule="evenodd" clip-rule="evenodd" d="M17.627 14.721L18.532 16.01L26.313 7H24.313L17.627 14.721Z" fill="white"/>
<path fill-rule="evenodd" clip-rule="evenodd" d="M27.4339 27H20.9969L7.00586 7H13.4429L27.4339 27ZM21.7639 25.304H24.3269L12.6759 8.696H10.1129L21.7639 25.304Z" fill="white"/>
<path fill-rule="evenodd" clip-rule="evenodd" d="M9.043 27.0002L16.246 18.6562L15.304 17.4072L7 27.0002H9.043Z" fill="white"/>
</svg>
