<svg width="35" height="35" viewBox="0 0 35 35" fill="none" xmlns="http://www.w3.org/2000/svg">
<path d="M34.0809 26.2323C34.0809 26.418 34.0752 26.8207 34.0641 27.1318C34.0368 27.893 33.9764 28.8753 33.8852 29.3229C33.748 29.9954 33.541 30.6302 33.271 31.1586C32.9517 31.7836 32.5443 32.3435 32.0602 32.8267C31.5771 33.309 31.0178 33.7148 30.3937 34.0329C29.8625 34.3035 29.2238 34.5107 28.5474 34.6472C28.1043 34.7367 27.1294 34.7959 26.373 34.8228C26.0616 34.8339 25.6588 34.8395 25.4738 34.8395L8.77317 34.8368C8.58746 34.8368 8.18477 34.8311 7.87366 34.82C7.11244 34.7927 6.13019 34.7323 5.68263 34.6411C5.01007 34.5039 4.37523 34.2969 3.84688 34.027C3.22182 33.7075 2.66197 33.3002 2.17876 32.8161C1.69652 32.333 1.29071 31.7737 0.972651 31.1496C0.701918 30.6184 0.494777 29.9796 0.358218 29.3033C0.268791 28.8602 0.209603 27.8853 0.182676 27.1289C0.171613 26.8175 0.166016 26.4147 0.166016 26.2297L0.168665 9.52906C0.168665 9.34335 0.174329 8.94063 0.185491 8.62952C0.212816 7.8683 0.27313 6.88605 0.364379 6.43852C0.501534 5.76596 0.708542 5.13112 0.978513 4.60274C1.2979 3.97771 1.70533 3.41783 2.18939 2.93462C2.67243 2.45241 3.23179 2.04657 3.85589 1.72848C4.38705 1.45781 5.02587 1.25067 5.70223 1.11411C6.1453 1.02465 7.12022 0.965463 7.87658 0.938568C8.18798 0.927472 8.59084 0.921875 8.77579 0.921875L25.4764 0.924558C25.6622 0.924558 26.0649 0.930222 26.376 0.941383C27.1372 0.968708 28.1194 1.02902 28.567 1.12027C29.2395 1.25743 29.8744 1.46443 30.4027 1.73441C31.0278 2.05379 31.5876 2.46122 32.0708 2.94529C32.553 3.42833 32.9589 3.98764 33.2769 4.61178C33.5477 5.14295 33.7548 5.78172 33.8914 6.45809C33.9808 6.90119 34.04 7.87608 34.0669 8.63247C34.078 8.94388 34.0836 9.3467 34.0836 9.53171L34.0809 26.2323Z" fill="url(#paint0_linear_1985_3546)"/>
<path d="M26.1124 8.94565C23.8161 6.64747 20.7623 5.38117 17.5087 5.37988C10.8049 5.37988 5.3488 10.8339 5.34612 17.5378C5.34526 19.6807 5.90531 21.7725 6.96963 23.6162L5.24414 29.9169L11.6917 28.2261C13.4682 29.1947 15.4682 29.7052 17.5039 29.7061H17.5089C24.212 29.7061 29.6686 24.2514 29.6713 17.5474C29.6726 14.2987 28.4087 11.2438 26.1124 8.94565ZM17.5089 27.6526H17.5047C15.6908 27.6519 13.9116 27.1647 12.3595 26.244L11.9904 26.025L8.16431 27.0283L9.18557 23.2991L8.94514 22.9168C7.93322 21.3078 7.39878 19.448 7.39957 17.5386C7.40176 11.9666 11.9367 7.4334 17.5128 7.4334C20.2129 7.43443 22.751 8.48702 24.6597 10.3972C26.5683 12.3073 27.6188 14.8464 27.6178 17.5467C27.6156 23.1191 23.0807 27.6526 17.5089 27.6526ZM23.0539 20.0839C22.7499 19.9318 21.2559 19.1968 20.9773 19.0954C20.6987 18.994 20.4961 18.9433 20.2935 19.2475C20.0909 19.5516 19.5085 20.236 19.3312 20.4387C19.1539 20.6415 18.9767 20.6668 18.6728 20.5147C18.3689 20.3627 17.3897 20.0419 16.2289 19.0069C15.3255 18.2014 14.7156 17.2064 14.5383 16.9022C14.361 16.5981 14.5195 16.4337 14.6716 16.2822C14.8083 16.1461 14.9755 15.9274 15.1274 15.75C15.2794 15.5726 15.33 15.4458 15.4313 15.2431C15.5326 15.0403 15.482 14.8629 15.406 14.7108C15.33 14.5588 14.7222 13.0634 14.469 12.4551C14.2223 11.8627 13.9717 11.9429 13.7852 11.9336C13.6081 11.9248 13.4053 11.9229 13.2027 11.9229C13.0002 11.9229 12.6709 11.9989 12.3924 12.3031C12.1138 12.6072 11.3287 13.3422 11.3287 14.8376C11.3287 16.3329 12.4177 17.7775 12.5696 17.9803C12.7216 18.183 14.7125 21.2517 17.7611 22.5676C18.4862 22.8806 19.0522 23.0676 19.4936 23.2076C20.2216 23.4387 20.8841 23.4062 21.4078 23.328C21.9916 23.2408 23.2057 22.593 23.459 21.8834C23.7123 21.1737 23.7123 20.5654 23.6363 20.4387C23.5603 20.312 23.3578 20.236 23.0539 20.0839Z" fill="white"/>
<defs>
<linearGradient id="paint0_linear_1985_3546" x1="17.1248" y1="0.921875" x2="17.1248" y2="34.8395" gradientUnits="userSpaceOnUse">
<stop stop-color="#61FD7D"/>
<stop offset="1" stop-color="#2BB826"/>
</linearGradient>
</defs>
</svg>
