<svg width="32" height="32" viewBox="0 0 32 32" fill="none" xmlns="http://www.w3.org/2000/svg">
<rect opacity="0.1" width="32" height="32" rx="12" fill="white"/>
<path fill-rule="evenodd" clip-rule="evenodd" d="M8.83398 22.667C8.83398 22.3908 9.05784 22.167 9.33398 22.167H22.6673C22.9435 22.167 23.1673 22.3908 23.1673 22.667C23.1673 22.9431 22.9435 23.167 22.6673 23.167H9.33398C9.05784 23.167 8.83398 22.9431 8.83398 22.667Z" fill="#808191"/>
<path d="M14.5 10.6663V22.6663H17.5V10.6663C17.5 9.93301 17.2 9.33301 16.3 9.33301H15.7C14.8 9.33301 14.5 9.93301 14.5 10.6663Z" fill="#808191"/>
<path d="M10 14.6663V22.6663H12.6667V14.6663C12.6667 13.933 12.4 13.333 11.6 13.333H11.0667C10.2667 13.333 10 13.933 10 14.6663Z" fill="#808191"/>
<path d="M19.334 18.0003V22.667H22.0007V18.0003C22.0007 17.267 21.734 16.667 20.934 16.667H20.4007C19.6007 16.667 19.334 17.267 19.334 18.0003Z" fill="#808191"/>
</svg>
