<svg width="32" height="32" viewBox="0 0 32 32" fill="none" xmlns="http://www.w3.org/2000/svg">
<g opacity="0.1">
<rect width="32" height="32" rx="12" fill="white"/>
</g>
<g clip-path="url(#clip0_1891_3875)">
<path fill-rule="evenodd" clip-rule="evenodd" d="M14.9744 8.83301H17.0269C18.0958 8.833 18.9338 8.833 19.6032 8.89665C20.2856 8.96153 20.8443 9.09605 21.3369 9.39789C21.8527 9.71397 22.2864 10.1476 22.6024 10.6634C22.9043 11.156 23.0388 11.7147 23.1037 12.3971C23.1673 13.0665 23.1673 13.9045 23.1673 14.9734V15.6849C23.1673 16.4458 23.1673 17.0423 23.1344 17.5242C23.101 18.0145 23.0318 18.4226 22.8755 18.8C22.4865 19.7392 21.7402 20.4855 20.8009 20.8745C20.2643 21.0968 19.653 21.1461 18.8162 21.1606C18.5235 21.1656 18.338 21.1693 18.1967 21.185C18.0646 21.1996 18.0134 21.221 17.9835 21.2384C17.9519 21.2568 17.9088 21.2903 17.8341 21.3929C17.7531 21.5039 17.6617 21.6573 17.5168 21.9022L17.1554 22.5128C16.6396 23.3841 15.3616 23.3841 14.8459 22.5128L14.4845 21.9022C14.3395 21.6573 14.2481 21.5039 14.1672 21.3929C14.0925 21.2903 14.0494 21.2568 14.0178 21.2384C13.9878 21.221 13.9366 21.1996 13.8046 21.185C13.6632 21.1693 13.4778 21.1656 13.1851 21.1606C12.3482 21.1461 11.737 21.0968 11.2004 20.8745C10.2611 20.4855 9.51484 19.7392 9.12578 18.8C8.96947 18.4226 8.90031 18.0145 8.86686 17.5242C8.83398 17.0423 8.83398 16.4458 8.83398 15.6849L8.83398 14.9734C8.83398 13.9045 8.83398 13.0665 8.89763 12.3971C8.96251 11.7147 9.09703 11.156 9.39886 10.6634C9.71494 10.1476 10.1486 9.71397 10.6644 9.39789C11.157 9.09605 11.7157 8.96153 12.3981 8.89665C13.0675 8.833 13.9055 8.833 14.9744 8.83301ZM12.4927 9.89216C11.8835 9.95008 11.4959 10.0612 11.1869 10.2505C10.8057 10.4842 10.4851 10.8047 10.2515 11.1859C10.0621 11.4949 9.95106 11.8826 9.89314 12.4917C9.83451 13.1083 9.83398 13.8988 9.83398 14.9997V15.6663C9.83398 16.4498 9.83426 17.0123 9.86454 17.4562C9.89452 17.8956 9.95223 18.1821 10.0497 18.4173C10.3372 19.1115 10.8888 19.6631 11.583 19.9507C11.9268 20.0931 12.3654 20.1463 13.2023 20.1607L13.2235 20.1611C13.4889 20.1656 13.7214 20.1696 13.9146 20.191C14.1223 20.214 14.3254 20.2605 14.5206 20.374C14.7141 20.4866 14.8537 20.6369 14.9754 20.8039C15.0878 20.9582 15.2034 21.1534 15.3342 21.3746L15.7065 22.0035C15.835 22.2206 16.1663 22.2206 16.2948 22.0035L16.667 21.3746C16.7979 21.1534 16.9135 20.9582 17.0259 20.8039C17.1476 20.6369 17.2872 20.4866 17.4807 20.374C17.6759 20.2605 17.879 20.214 18.0866 20.191C18.2799 20.1696 18.5124 20.1656 18.7777 20.1611L18.799 20.1607C19.6359 20.1463 20.0745 20.0931 20.4183 19.9507C21.1125 19.6631 21.6641 19.1115 21.9516 18.4173C22.0491 18.1821 22.1068 17.8956 22.1368 17.4562C22.167 17.0123 22.1673 16.4498 22.1673 15.6663V14.9997C22.1673 13.8988 22.1668 13.1083 22.1082 12.4917C22.0502 11.8826 21.9392 11.4949 21.7498 11.1859C21.5162 10.8047 21.1956 10.4842 20.8144 10.2505C20.5054 10.0612 20.1178 9.95008 19.5086 9.89216C18.892 9.83354 18.1015 9.83301 17.0007 9.83301H15.0007C13.8998 9.83301 13.1093 9.83354 12.4927 9.89216ZM12.834 13.9997C12.834 13.7235 13.0578 13.4997 13.334 13.4997H18.6673C18.9435 13.4997 19.1673 13.7235 19.1673 13.9997C19.1673 14.2758 18.9435 14.4997 18.6673 14.4997H13.334C13.0578 14.4997 12.834 14.2758 12.834 13.9997ZM12.834 16.333C12.834 16.0569 13.0578 15.833 13.334 15.833H17.0007C17.2768 15.833 17.5007 16.0569 17.5007 16.333C17.5007 16.6091 17.2768 16.833 17.0007 16.833H13.334C13.0578 16.833 12.834 16.6091 12.834 16.333Z" fill="#808191"/>
</g>
<defs>
<clipPath id="clip0_1891_3875">
<rect width="16" height="16" fill="white" transform="translate(8 8)"/>
</clipPath>
</defs>
</svg>
