<svg width="32" height="32" viewBox="0 0 32 32" fill="none" xmlns="http://www.w3.org/2000/svg">
<rect opacity="0.1" width="32" height="32" rx="12" fill="white"/>
<g clip-path="url(#clip0_3152_4108)">
<path fill-rule="evenodd" clip-rule="evenodd" d="M13.5007 19.9997C13.5007 19.7235 13.7245 19.4997 14.0007 19.4997H18.0007C18.2768 19.4997 18.5007 19.7235 18.5007 19.9997C18.5007 20.2758 18.2768 20.4997 18.0007 20.4997H14.0007C13.7245 20.4997 13.5007 20.2758 13.5007 19.9997Z" fill="#808191"/>
<path fill-rule="evenodd" clip-rule="evenodd" d="M13.8002 8.83301H18.2009C18.3475 8.83297 18.4599 8.83294 18.5581 8.84348C19.4609 8.94037 20.1519 9.68172 20.1938 10.5798C20.9876 10.8168 21.5533 11.5513 21.5635 12.3938C21.9642 12.514 22.3098 12.7036 22.5927 13.0092C23.0273 13.4787 23.162 14.0573 23.1672 14.7332C23.1721 15.383 23.0563 16.2042 22.9125 17.2239L22.6199 19.2996C22.5075 20.097 22.4161 20.7447 22.2741 21.2523C22.1254 21.7834 21.9063 22.2204 21.5006 22.5562C21.0982 22.8895 20.6207 23.0332 20.0563 23.1009C19.5106 23.1664 18.8242 23.1664 17.9694 23.1664H14.0319C13.1772 23.1664 12.4907 23.1664 11.945 23.1009C11.3806 23.0332 10.9031 22.8895 10.5007 22.5562C10.095 22.2204 9.87589 21.7834 9.72724 21.2523C9.58516 20.7447 9.49385 20.097 9.38144 19.2996L9.08878 17.2239C8.94499 16.2041 8.8292 15.383 8.83414 14.7332C8.83927 14.0573 8.97396 13.4787 9.40862 13.0092C9.69146 12.7037 10.037 12.5141 10.4375 12.3939C10.4477 11.5513 11.0134 10.8167 11.8074 10.5797C11.8493 9.6817 12.5403 8.94037 13.443 8.84348C13.5413 8.83294 13.6536 8.83297 13.8002 8.83301ZM11.46 12.2182C12.0772 12.1663 12.8338 12.1663 13.7446 12.1664H18.2567C19.1673 12.1663 19.9239 12.1663 20.541 12.2182C20.4496 11.8131 20.0877 11.4997 19.6418 11.4997H12.3592C11.9133 11.4997 11.5514 11.8131 11.46 12.2182ZM18.4514 9.83778C18.8182 9.87714 19.1081 10.1506 19.1791 10.4997H12.8221C12.8931 10.1506 13.1829 9.87714 13.5497 9.83778C13.5873 9.83375 13.6407 9.83302 13.828 9.83302H18.1732C18.3604 9.83302 18.4139 9.83375 18.4514 9.83778ZM10.1424 13.6886C10.3444 13.4705 10.648 13.3258 11.2381 13.2473C11.8388 13.1674 12.643 13.1664 13.7822 13.1664H18.2191C19.3583 13.1664 20.1625 13.1674 20.7632 13.2473C21.3533 13.3258 21.6569 13.4705 21.8589 13.6886C22.0561 13.9016 22.163 14.1916 22.1672 14.7408C22.1715 15.3075 22.0674 16.0549 21.9165 17.1252L21.6346 19.1252C21.516 19.9658 21.433 20.547 21.3111 20.9828C21.1936 21.4025 21.0553 21.6266 20.8629 21.786C20.6672 21.948 20.4045 22.0519 19.9372 22.108C19.458 22.1655 18.8317 22.1664 17.9371 22.1664H14.0642C13.1696 22.1664 12.5433 22.1655 12.0641 22.108C11.5968 22.0519 11.3341 21.948 11.1384 21.786C10.946 21.6266 10.8077 21.4025 10.6902 20.9828C10.5682 20.547 10.4852 19.9658 10.3667 19.1252L10.0848 17.1252C9.93385 16.0549 9.82981 15.3075 9.83411 14.7408C9.83828 14.1916 9.94519 13.9016 10.1424 13.6886Z" fill="#808191"/>
</g>
<defs>
<clipPath id="clip0_3152_4108">
<rect width="16" height="16" fill="white" transform="translate(8 8)"/>
</clipPath>
</defs>
</svg>
