<svg width="32" height="32" viewBox="0 0 32 32" fill="none" xmlns="http://www.w3.org/2000/svg">
<g opacity="0.1">
<rect width="32" height="32" rx="12" fill="white"/>
</g>
<path fill-rule="evenodd" clip-rule="evenodd" d="M16.0003 13.4997C14.6196 13.4997 13.5003 14.619 13.5003 15.9997C13.5003 17.3804 14.6196 18.4997 16.0003 18.4997C17.381 18.4997 18.5003 17.3804 18.5003 15.9997C18.5003 14.619 17.381 13.4997 16.0003 13.4997ZM14.5003 15.9997C14.5003 15.1712 15.1719 14.4997 16.0003 14.4997C16.8288 14.4997 17.5003 15.1712 17.5003 15.9997C17.5003 16.8281 16.8288 17.4997 16.0003 17.4997C15.1719 17.4997 14.5003 16.8281 14.5003 15.9997Z" fill="#808191"/>
<path fill-rule="evenodd" clip-rule="evenodd" d="M15.9835 8.83301C15.6872 8.833 15.4398 8.833 15.2367 8.84685C15.0253 8.86128 14.8257 8.89237 14.6321 8.97256C14.1828 9.15863 13.8259 9.51554 13.6399 9.96476C13.543 10.1986 13.5168 10.4451 13.5068 10.713C13.4987 10.9283 13.39 11.108 13.2296 11.2006C13.0692 11.2932 12.8593 11.2975 12.6688 11.1968C12.4317 11.0715 12.2052 10.971 11.9542 10.938C11.4721 10.8745 10.9846 11.0051 10.5989 11.3011C10.4326 11.4287 10.3058 11.5861 10.1876 11.7619C10.0741 11.9309 9.95044 12.1451 9.80229 12.4017L9.78545 12.4309C9.63729 12.6875 9.51361 12.9017 9.42407 13.0845C9.33086 13.2748 9.25795 13.4633 9.2306 13.671C9.16713 14.1531 9.29777 14.6406 9.59377 15.0264C9.74785 15.2272 9.94814 15.3731 10.1751 15.5157C10.3576 15.6304 10.4589 15.8144 10.4589 15.9997C10.4589 16.1849 10.3576 16.3689 10.1751 16.4835C9.94812 16.6262 9.7478 16.7721 9.5937 16.9729C9.29771 17.3587 9.16707 17.8462 9.23054 18.3283C9.25789 18.536 9.3308 18.7245 9.42401 18.9148C9.51354 19.0976 9.63722 19.3118 9.78538 19.5684L9.80222 19.5976C9.95037 19.8542 10.074 20.0684 10.1876 20.2374C10.3058 20.4132 10.4325 20.5706 10.5988 20.6982C10.9845 20.9942 11.4721 21.1248 11.9541 21.0613C12.2051 21.0283 12.4317 20.9278 12.6687 20.8025C12.8592 20.7018 13.0692 20.7061 13.2296 20.7987C13.39 20.8913 13.4987 21.071 13.5068 21.2864C13.5168 21.5543 13.543 21.8007 13.6399 22.0346C13.8259 22.4838 14.1828 22.8407 14.6321 23.0268C14.8257 23.107 15.0253 23.1381 15.2367 23.1525C15.4398 23.1663 15.6872 23.1663 15.9835 23.1663H16.0172C16.3135 23.1663 16.5608 23.1663 16.7639 23.1525C16.9753 23.1381 17.175 23.107 17.3686 23.0268C17.8178 22.8407 18.1747 22.4838 18.3608 22.0346C18.4576 21.8007 18.4839 21.5542 18.4939 21.2863C18.5019 21.071 18.6106 20.8913 18.771 20.7987C18.9314 20.7061 19.1414 20.7018 19.3319 20.8025C19.5689 20.9278 19.7955 21.0283 20.0464 21.0613C20.5285 21.1248 21.016 20.9941 21.4018 20.6981C21.568 20.5706 21.6948 20.4132 21.813 20.2373C21.9265 20.0684 22.0502 19.8542 22.1983 19.5976L22.2152 19.5684C22.3633 19.3118 22.487 19.0975 22.5766 18.9148C22.6698 18.7245 22.7427 18.536 22.77 18.3282C22.8335 17.8462 22.7029 17.3586 22.4069 16.9729C22.2528 16.7721 22.0525 16.6261 21.8255 16.4835C21.643 16.3688 21.5417 16.1849 21.5417 15.9996C21.5417 15.8144 21.643 15.6305 21.8255 15.5158C22.0525 15.3732 22.2528 15.2272 22.4069 15.0264C22.7029 14.6407 22.8336 14.1531 22.7701 13.6711C22.7428 13.4633 22.6698 13.2748 22.5766 13.0845C22.4871 12.9018 22.3634 12.6876 22.2153 12.431L22.1984 12.4018C22.0503 12.1452 21.9266 11.9309 21.8131 11.762C21.6949 11.5861 21.5681 11.4287 21.4019 11.3012C21.0161 11.0052 20.5286 10.8745 20.0465 10.938C19.7955 10.971 19.569 11.0716 19.332 11.1968C19.1414 11.2975 18.9315 11.2932 18.771 11.2006C18.6106 11.108 18.5019 10.9283 18.4939 10.7129C18.4839 10.4451 18.4576 10.1986 18.3608 9.96476C18.1747 9.51554 17.8178 9.15863 17.3686 8.97256C17.175 8.89237 16.9753 8.86128 16.7639 8.84685C16.5608 8.833 16.3135 8.833 16.0172 8.83301H15.9835ZM15.0147 9.89644C15.0662 9.87514 15.1443 9.85548 15.3048 9.84454C15.4698 9.83328 15.6829 9.83301 16.0003 9.83301C16.3178 9.83301 16.5308 9.83328 16.6958 9.84454C16.8563 9.85548 16.9345 9.87514 16.9859 9.89644C17.1901 9.98102 17.3523 10.1432 17.4369 10.3474C17.4636 10.4118 17.4857 10.5123 17.4946 10.7503C17.5143 11.2786 17.787 11.7872 18.271 12.0667C18.7551 12.3461 19.3319 12.3279 19.7993 12.0809C20.0099 11.9696 20.1079 11.9386 20.177 11.9295C20.3961 11.9006 20.6177 11.96 20.7931 12.0945C20.8373 12.1284 20.8933 12.1863 20.9831 12.3198C21.0753 12.457 21.1821 12.6414 21.3408 12.9163C21.4995 13.1913 21.6058 13.3759 21.6786 13.5244C21.7493 13.6689 21.7714 13.7464 21.7787 13.8016C21.8075 14.0207 21.7481 14.2423 21.6136 14.4177C21.5711 14.473 21.4952 14.5423 21.2935 14.6691C20.8459 14.9503 20.5418 15.4407 20.5417 15.9996C20.5417 16.5585 20.8459 17.049 21.2935 17.3302C21.4952 17.457 21.5711 17.5263 21.6135 17.5816C21.7481 17.757 21.8074 17.9786 21.7786 18.1977C21.7713 18.2529 21.7493 18.3304 21.6785 18.4749C21.6058 18.6234 21.4995 18.808 21.3407 19.083C21.182 19.3579 21.0752 19.5423 20.983 19.6795C20.8933 19.813 20.8372 19.8709 20.793 19.9048C20.6177 20.0393 20.3961 20.0987 20.177 20.0698C20.1078 20.0607 20.0098 20.0297 19.7992 19.9184C19.3318 19.6714 18.755 19.6532 18.271 19.9327C17.787 20.2122 17.5143 20.7208 17.4946 21.249C17.4857 21.4871 17.4636 21.5875 17.4369 21.6519C17.3523 21.8561 17.1901 22.0183 16.9859 22.1029C16.9345 22.1242 16.8563 22.1439 16.6958 22.1548C16.5308 22.1661 16.3178 22.1663 16.0003 22.1663C15.6829 22.1663 15.4698 22.1661 15.3048 22.1548C15.1443 22.1439 15.0662 22.1242 15.0147 22.1029C14.8106 22.0183 14.6483 21.8561 14.5638 21.6519C14.5371 21.5875 14.515 21.4871 14.5061 21.249C14.4863 20.7208 14.2136 20.2121 13.7296 19.9327C13.2455 19.6532 12.6687 19.6714 12.2014 19.9184C11.9908 20.0297 11.8927 20.0608 11.8236 20.0699C11.6045 20.0987 11.3829 20.0394 11.2075 19.9048C11.1634 19.8709 11.1073 19.8131 11.0176 19.6796C10.9253 19.5423 10.8186 19.3579 10.6598 19.083C10.5011 18.8081 10.3948 18.6234 10.3221 18.4749C10.2513 18.3305 10.2292 18.253 10.222 18.1978C10.1931 17.9786 10.2525 17.757 10.3871 17.5817C10.4295 17.5264 10.5054 17.457 10.7071 17.3303C11.1547 17.049 11.4589 16.5586 11.4589 15.9997C11.4589 15.4407 11.1548 14.9503 10.7071 14.669C10.5054 14.5423 10.4296 14.4729 10.3871 14.4176C10.2526 14.2423 10.1932 14.0207 10.222 13.8015C10.2293 13.7463 10.2514 13.6688 10.3221 13.5244C10.3949 13.3759 10.5012 13.1912 10.6599 12.9163C10.8186 12.6414 10.9254 12.457 11.0176 12.3197C11.1074 12.1862 11.1634 12.1284 11.2076 12.0945C11.383 11.9599 11.6046 11.9006 11.8237 11.9294C11.8928 11.9385 11.9908 11.9696 12.2015 12.0809C12.6688 12.3279 13.2456 12.3461 13.7296 12.0666C14.2136 11.7872 14.4863 11.2786 14.5061 10.7504C14.515 10.5123 14.5371 10.4119 14.5638 10.3474C14.6483 10.1432 14.8106 9.98102 15.0147 9.89644Z" fill="#808191"/>
</svg>
