<svg width="28" height="26" viewBox="0 0 28 26" fill="none" xmlns="http://www.w3.org/2000/svg">
<path fill-rule="evenodd" clip-rule="evenodd" d="M24.2077 7.94054C24.2077 8.35966 23.8159 8.69944 23.3327 8.69944H4.66602C4.18277 8.69944 3.79102 8.35966 3.79102 7.94054C3.79102 7.52141 4.18277 7.18164 4.66602 7.18164H23.3327C23.8159 7.18164 24.2077 7.52141 24.2077 7.94054Z" fill="white"/>
<path fill-rule="evenodd" clip-rule="evenodd" d="M24.2077 12.9996C24.2077 13.4187 23.8159 13.7585 23.3327 13.7585H4.66602C4.18277 13.7585 3.79102 13.4187 3.79102 12.9996C3.79102 12.5805 4.18277 12.2407 4.66602 12.2407H23.3327C23.8159 12.2407 24.2077 12.5805 24.2077 12.9996Z" fill="white"/>
<path fill-rule="evenodd" clip-rule="evenodd" d="M24.2077 18.0592C24.2077 18.4783 23.8159 18.8181 23.3327 18.8181H4.66602C4.18277 18.8181 3.79102 18.4783 3.79102 18.0592C3.79102 17.6401 4.18277 17.3003 4.66602 17.3003H23.3327C23.8159 17.3003 24.2077 17.6401 24.2077 18.0592Z" fill="white"/>
<path d="M24.8995 17.0904C25.6972 17.4898 25.6972 18.6283 24.8995 19.0277L23.1524 19.9026C22.432 20.2633 21.584 19.7395 21.584 18.9339L21.584 17.1842C21.584 16.3786 22.432 15.8548 23.1524 16.2155L24.8995 17.0904Z" fill="white"/>
</svg>
