<svg width="158" height="51" viewBox="0 0 158 51" fill="none" xmlns="http://www.w3.org/2000/svg">
<g clip-path="url(#clip0_396_4691)">
<path d="M126.531 20.3125L157 2.72136L157 37.9036L126.531 20.3125Z" fill="url(#paint0_linear_396_4691)"/>
<path d="M14.3998 35L0.59375 7.076H11.1238L20.0938 26.42H20.1718L29.1028 7.076H39.6718L25.8268 35H14.3998ZM41.6199 35V7.076H51.7989V16.982H67.2039V7.076H77.3829V35H67.2039V23.885H51.7989V35H41.6199ZM97.7254 35.819C91.0174 35.819 83.8414 33.83 80.0974 30.944L83.6074 24.899C86.8444 27.473 92.8894 29.345 98.2324 29.345C102.171 29.345 104.667 28.409 104.667 26.966C104.667 25.757 102.873 25.016 98.6224 24.548L93.4744 23.963C84.6604 23.027 80.8774 20.57 80.8774 15.617C80.8774 9.611 87.6634 6.218 97.6084 6.218C103.497 6.218 109.035 7.622 112.467 9.845L109.62 15.695C106.578 13.667 101.976 12.38 97.6864 12.419C93.7084 12.458 90.7834 13.394 90.7444 14.876C90.7444 15.929 92.3044 16.592 95.8924 16.943L101.079 17.489C110.517 18.464 114.573 21.038 114.573 26.108C114.612 31.88 107.982 35.819 97.7254 35.819Z" fill="white"/>
<rect x="-17.9121" y="43.875" width="182.136" height="1.625" rx="0.8125" fill="url(#paint1_linear_396_4691)"/>
</g>
<defs>
<linearGradient id="paint0_linear_396_4691" x1="146.844" y1="-8.87888e-07" x2="146.844" y2="40.625" gradientUnits="userSpaceOnUse">
<stop stop-color="#9747FF"/>
<stop offset="1" stop-color="#5C3FFF"/>
</linearGradient>
<linearGradient id="paint1_linear_396_4691" x1="-17.9121" y1="44.6875" x2="164.224" y2="44.6875" gradientUnits="userSpaceOnUse">
<stop offset="0.03" stop-color="#6C00C0"/>
<stop offset="1" stop-color="#5C3FFF"/>
</linearGradient>
<clipPath id="clip0_396_4691">
<rect width="156.812" height="50.375" fill="white" transform="translate(0.59375)"/>
</clipPath>
</defs>
</svg>
