<svg width="22" height="22" viewBox="0 0 22 22" fill="none" xmlns="http://www.w3.org/2000/svg">
    <path fill-rule="evenodd" clip-rule="evenodd" d="M9.42716 21.322L9.69805 20.8644C10.1322 20.1309 10.3493 19.7641 10.6951 19.5596C11.0409 19.355 11.4919 19.3406 12.394 19.3118C13.2399 19.2847 13.8084 19.2109 14.2945 19.0096C15.3179 18.5856 16.131 17.7725 16.5549 16.7491C16.8728 15.9816 16.8728 15.0085 16.8728 13.0624V12.2271C16.8728 9.49262 16.8728 8.12539 16.2574 7.12102C15.913 6.55902 15.4405 6.0865 14.8785 5.74211C13.8741 5.12663 12.5069 5.12663 9.77244 5.12663H7.26642C4.53199 5.12663 3.16477 5.12663 2.1604 5.74211C1.5984 6.0865 1.12589 6.55902 0.781495 7.12102C0.166016 8.12539 0.166016 9.49262 0.166016 12.2271V13.0624C0.166016 15.0085 0.166016 15.9816 0.483949 16.7491C0.907859 17.7725 1.72096 18.5856 2.74437 19.0096C3.23045 19.2109 3.79895 19.2847 4.64481 19.3118C5.54691 19.3406 5.99796 19.355 6.34376 19.5596C6.68955 19.7641 6.90663 20.1309 7.34077 20.8644L7.61167 21.322C8.01528 22.0039 9.02355 22.0039 9.42716 21.322ZM12.174 13.48C12.7507 13.48 13.2182 13.0125 13.2182 12.4359C13.2182 11.8592 12.7507 11.3917 12.174 11.3917C11.5974 11.3917 11.1299 11.8592 11.1299 12.4359C11.1299 13.0125 11.5974 13.48 12.174 13.48ZM9.56361 12.4359C9.56361 13.0125 9.09611 13.48 8.51943 13.48C7.94275 13.48 7.47525 13.0125 7.47525 12.4359C7.47525 11.8592 7.94275 11.3917 8.51943 11.3917C9.09611 11.3917 9.56361 11.8592 9.56361 12.4359ZM4.86481 13.48C5.44149 13.48 5.90899 13.0125 5.90899 12.4359C5.90899 11.8592 5.44149 11.3917 4.86481 11.3917C4.28813 11.3917 3.82063 11.8592 3.82063 12.4359C3.82063 13.0125 4.28813 13.48 4.86481 13.48Z" fill="#C4C4C4"/>
    <path d="M14.4331 0.166992C15.6808 0.166984 16.673 0.166977 17.4687 0.242636C18.2846 0.320213 18.9745 0.482825 19.589 0.85941C20.2213 1.24685 20.7528 1.77843 21.1403 2.41068C21.5169 3.02521 21.6795 3.71506 21.757 4.53097C21.8327 5.32668 21.8327 6.31892 21.8327 7.56658V8.41874C21.8327 9.30671 21.8327 10.013 21.7936 10.5857C21.7536 11.1717 21.6702 11.6748 21.475 12.1459C20.9981 13.2973 20.0834 14.212 18.932 14.6889C18.9032 14.7008 18.8743 14.7123 18.8452 14.7235C18.7062 14.7766 18.5872 14.8221 18.4826 14.856C18.4979 14.3481 18.4979 13.7696 18.4978 13.1168V12.1502C18.4979 10.8484 18.4979 9.75797 18.4136 8.87145C18.3254 7.94335 18.1334 7.07239 17.6429 6.27196C17.1645 5.49131 16.5082 4.83496 15.7275 4.35657C14.9271 3.86607 14.0561 3.6741 13.128 3.58586C12.2415 3.50157 11.1511 3.50159 9.84931 3.50163H7.18955C6.30545 3.50161 5.51882 3.50159 4.82734 3.52798C4.85955 3.41635 4.90369 3.28838 4.9555 3.13818C5.04361 2.88272 5.15497 2.64112 5.29618 2.41068C5.68362 1.77843 6.2152 1.24685 6.84745 0.85941C7.46198 0.482825 8.15182 0.320213 8.96773 0.242636C9.76346 0.166977 10.7557 0.166984 12.0033 0.166992H14.4331Z" fill="#C4C4C4"/>
</svg>