<svg width="21" height="17" viewBox="0 0 21 17" fill="none" xmlns="http://www.w3.org/2000/svg">
    <path d="M8.1569 8.50033C8.1569 7.20591 9.20623 6.15658 10.5007 6.15658C11.7951 6.15658 12.8444 7.20591 12.8444 8.50033C12.8444 9.79474 11.7951 10.8441 10.5007 10.8441C9.20623 10.8441 8.1569 9.79474 8.1569 8.50033Z" fill="#C4C4C4"/>
    <path fill-rule="evenodd" clip-rule="evenodd" d="M0.0839844 8.50033C0.0839844 10.208 0.526656 10.7831 1.412 11.9333C3.17978 14.23 6.14452 16.8337 10.5007 16.8337C14.8568 16.8337 17.8215 14.23 19.5893 11.9333C20.4746 10.7831 20.9173 10.208 20.9173 8.50033C20.9173 6.79264 20.4746 6.21754 19.5893 5.06734C17.8215 2.7707 14.8568 0.166992 10.5007 0.166992C6.14452 0.166992 3.17978 2.7707 1.412 5.06734C0.526655 6.21754 0.0839844 6.79264 0.0839844 8.50033ZM10.5007 4.59408C8.34329 4.59408 6.5944 6.34296 6.5944 8.50033C6.5944 10.6577 8.34329 12.4066 10.5007 12.4066C12.658 12.4066 14.4069 10.6577 14.4069 8.50033C14.4069 6.34296 12.658 4.59408 10.5007 4.59408Z" fill="#C4C4C4"/>
</svg>